<?xml version="1.0" standalone="no"?>
<!DOCTYPE svg PUBLIC "-//W3C//DTD SVG 1.1//EN" "http://www.w3.org/Graphics/SVG/1.1/DTD/svg11.dtd" >
<svg xmlns="http://www.w3.org/2000/svg" xmlns:xlink="http://www.w3.org/1999/xlink" version="1.1">
<metadata>
Created by FontForge 20170731 at Wed Nov 28 12:04:28 2018
 By Aleksey,,,
Copyright \(c\) 2011 by . All rights reserved.
</metadata>
<defs>
<font id="Archive-Regular" horiz-adv-x="655" >
  <font-face 
    font-family="Archive"
    font-weight="400"
    font-stretch="normal"
    units-per-em="1000"
    panose-1="2 0 5 6 4 0 0 2 0 4"
    ascent="750"
    descent="-250"
    x-height="658"
    cap-height="658"
    bbox="0 -286 1187 921"
    underline-thickness="50"
    underline-position="-150"
    unicode-range="U+0020-2212"
  />
<missing-glyph horiz-adv-x="255" 
 />
    <glyph glyph-name=".notdef" horiz-adv-x="255" 
 />
    <glyph glyph-name=".null" horiz-adv-x="0" 
 />
    <glyph glyph-name="nonmarkingreturn" horiz-adv-x="333" 
 />
    <glyph glyph-name="space" unicode=" " horiz-adv-x="271" 
 />
    <glyph glyph-name="exclam" unicode="!" horiz-adv-x="322" 
d="M118.5 212q-4.5 5 -6.5 24l-43 401q0 12 6.5 16.5t22.5 4.5h134q17 0 23.5 -4t6.5 -17l-44 -401q-2 -20 -6.5 -24.5t-21.5 -4.5h-49q-18 0 -22.5 5zM243 162.5q7 -6.5 7 -22.5v-111q0 -16 -7 -22.5t-22 -6.5h-111q-15 0 -22 6.5t-7 22.5v111q0 16 7 22.5t22 6.5h111
q15 0 22 -6.5z" />
    <glyph glyph-name="quotedbl" unicode="&#x22;" horiz-adv-x="443" 
d="M177.5 651q6.5 -7 6.5 -22v-226q0 -15 -6.5 -22t-22.5 -7h-69q-17 0 -23 7t-6 22v226q0 15 6 22t23 7h69q16 0 22.5 -7zM379 650.5q6 -7.5 6 -21.5v-226q0 -14 -6 -21.5t-22 -7.5h-70q-16 0 -22 7.5t-6 21.5v226q0 14 6 21.5t22 7.5h70q16 0 22 -7.5z" />
    <glyph glyph-name="numbersign" unicode="#" horiz-adv-x="658" 
d="M606 479q4 -4 4 -12q0 -7 -1 -11l-7 -58q-4 -24 -26 -24h-58v0l-12 -90h58q11 0 15 -4t4 -12q0 -7 -1 -11l-7 -58q-4 -24 -26 -24h-58l-22 -147q-1 -15 -9.5 -21.5t-20.5 -6.5h-73q-21 0 -21 21q0 7 1 11l22 143h-118l-22 -147q-1 -15 -9.5 -21.5t-20.5 -6.5h-73
q-15 0 -18.5 8.5t-2.5 23.5l22 143h-58q-19 0 -19 17q0 7 1 11l8 57q3 24 25 24h58l12 90h-58q-19 0 -19 17q0 7 1 11l8 57q3 24 25 24h58l22 148q3 27 30 27h73q15 0 18.5 -8.5t2.5 -23.5l-22 -143h118l22 148q3 27 29 27h74q21 0 21 -21q0 -7 -1 -11l-22 -143h58
q11 0 15 -4zM277 374l-12 -90h118l11 90h-117z" />
    <glyph glyph-name="dollar" unicode="$" horiz-adv-x="605" 
d="M483 348q35 -17 62 -54t27 -100q0 -87 -53.5 -139.5t-145.5 -65.5v-76q0 -15 -6.5 -22t-22.5 -7h-78q-16 0 -22.5 7t-6.5 22v78q-85 18 -142.5 71t-57.5 134q0 17 6 22.5t23 5.5h97q19 0 27 -5t9 -23q2 -21 19 -41q14 -17 40.5 -25t57.5 -8q46 0 72 14.5t26 53.5
q0 28 -26 41t-82 26q-50 12 -66 17q-61 19 -101.5 41t-66.5 60t-26 98q0 80 53.5 129t137.5 64v77q0 15 6.5 22t22.5 7h78q16 0 22.5 -7t6.5 -22v-80q79 -16 130.5 -62t51.5 -119q0 -18 -5.5 -23t-23.5 -5h-98q-11 0 -16 5.5t-7.5 12.5t-3.5 9q-6 16 -21 30q-14 13 -37.5 20
t-47.5 7q-32 0 -60 -14t-28 -44q0 -31 40.5 -50t106.5 -37q28 -6 40 -12q54 -16 89 -33z" />
    <glyph glyph-name="percent" unicode="%" horiz-adv-x="890" 
d="M678 682q0 -4 -2 -10l-351 -642q-7 -14 -15.5 -22t-21.5 -8h-58q-18 0 -18 16q0 4 2 10l352 642q14 30 36 30h58q18 0 18 -16zM302.5 365q-42.5 -37 -102.5 -37t-102.5 37t-42.5 95v88q0 59 42.5 96t102.5 37t102.5 -37t42.5 -96v-88q0 -58 -42.5 -95zM227 575.5
q-11 13.5 -27 13.5q-17 0 -28 -13.5t-11 -30.5v-82q0 -17 11 -30.5t28 -13.5q16 0 27 13.5t11 30.5v82q0 17 -11 30.5zM792.5 332q42.5 -37 42.5 -95v-88q0 -59 -42.5 -96t-102.5 -37t-102.5 37t-42.5 96v88q0 58 42.5 95t102.5 37t102.5 -37zM718 264.5q-11 13.5 -28 13.5
q-16 0 -27 -13.5t-11 -30.5v-82q0 -17 11 -30.5t27 -13.5q17 0 28 13.5t11 30.5v82q0 17 -11 30.5z" />
    <glyph glyph-name="ampersand" unicode="&#x26;" horiz-adv-x="721" 
d="M720 20q0 -8 -6 -14t-15 -6h-111q-14 0 -22.5 4.5t-20.5 15.5l-51 49q-39 -41 -89.5 -62t-108.5 -22q-72 0 -128 26.5t-87.5 75.5t-31.5 115q0 48 22.5 87t57.5 63.5t72 32.5l-129 138q-7 9 -7 20v86q0 15 6.5 22t22.5 7h382q16 0 22.5 -7t6.5 -22v-81q0 -15 -6.5 -22
t-22.5 -7h-207l204 -222q13 23 24.5 39.5t14.5 20.5q5 8 11.5 12.5t17.5 4.5h111q17 0 17 -14q0 -6 -3 -14l-92 -158l141 -155q5 -5 5 -13zM349 135.5q31 12.5 50 36.5l-101 109q-49 -2 -74.5 -22t-25.5 -58q0 -37 29 -57.5t66 -20.5q25 0 56 12.5z" />
    <glyph glyph-name="quotesingle" unicode="'" horiz-adv-x="241" 
d="M177 650.5q6 -7.5 6 -21.5v-226q0 -14 -6 -21.5t-22 -7.5h-70q-16 0 -22 7.5t-6 21.5v226q0 14 6 21.5t22 7.5h70q16 0 22 -7.5z" />
    <glyph glyph-name="parenleft" unicode="(" horiz-adv-x="357" 
d="M237 63q20 -92 66 -189q2 -6 2 -9q0 -16 -16 -16h-107q-18 0 -27 20q-89 188 -89 392q0 205 89 393q9 20 27 20h107q16 0 16 -16q0 -3 -2 -9q-46 -97 -66 -189.5t-21 -198.5q1 -106 21 -198z" />
    <glyph glyph-name="parenright" unicode=")" horiz-adv-x="357" 
d="M120 459.5q-20 92.5 -66 189.5q-2 6 -2 9q0 16 16 16h107q18 0 27 -20q89 -188 89 -393q0 -204 -89 -392q-9 -20 -27 -20h-107q-16 0 -16 16q0 3 2 9q46 97 66 189t21 198q-1 106 -21 198.5z" />
    <glyph glyph-name="asterisk" unicode="*" horiz-adv-x="491" 
d="M437 488q0 -16 -21 -22l-98 -27l63 -80q8 -10 8 -19q0 -11 -14 -21l-36 -26q-11 -8 -19 -8q-10 0 -22 14l-56 85l-56 -85q-10 -14 -21 -14q-8 0 -19 8l-36 26q-14 10 -14 21q0 9 8 19l63 80l-98 27q-21 6 -21 22q0 7 3 14l13 42q7 21 24 21q3 0 13 -2l95 -36l-5 102
q0 15 6.5 22t22.5 7h44q16 0 22.5 -7t6.5 -22l-4 -102l95 36q10 2 13 2q17 0 24 -21l13 -42q3 -7 3 -14z" />
    <glyph glyph-name="plus" unicode="+" horiz-adv-x="556" 
d="M505 376.5q7 -6.5 7 -22.5v-78q0 -16 -7 -22.5t-22 -6.5h-134v-134q0 -15 -6.5 -22t-22.5 -7h-78q-16 0 -22.5 7t-6.5 22v134h-135q-15 0 -22 6.5t-7 22.5v78q0 16 7 22.5t22 6.5h135v134q0 15 6.5 22t22.5 7h78q16 0 22.5 -7t6.5 -22v-134h134q15 0 22 -6.5z" />
    <glyph glyph-name="comma" unicode="," horiz-adv-x="301" 
d="M228 162.5q7 -6.5 7 -22.5v-90q0 -17 -1.5 -26t-5.5 -21l-57 -116q-6 -9 -12 -13.5t-15 -4.5h-64q-6 0 -9.5 4.5t-3.5 10.5q0 7 3 13l55 103h-30q-15 0 -22 6.5t-7 22.5v111q0 16 7 22.5t22 6.5h111q15 0 22 -6.5z" />
    <glyph glyph-name="hyphen" unicode="-" horiz-adv-x="434" 
d="M375 328.5q7 -6.5 7 -22.5v-78q0 -16 -7 -22.5t-22 -6.5h-272q-15 0 -22 6.5t-7 22.5v78q0 16 7 22.5t22 6.5h272q15 0 22 -6.5z" />
    <glyph glyph-name="period" unicode="." horiz-adv-x="283" 
d="M219 162.5q7 -6.5 7 -22.5v-111q0 -16 -7 -22.5t-22 -6.5h-111q-15 0 -22 6.5t-7 22.5v111q0 16 7 22.5t22 6.5h111q15 0 22 -6.5z" />
    <glyph glyph-name="slash" unicode="/" horiz-adv-x="401" 
d="M387.5 687q5.5 -6 5.5 -14q0 -6 -1 -8l-239 -638q-5 -12 -11.5 -19.5t-19.5 -7.5h-86q-13 0 -18.5 6t-5.5 14q0 6 1 8l240 638q5 12 11.5 19.5t19.5 7.5h85q13 0 18.5 -6z" />
    <glyph glyph-name="zero" unicode="0" horiz-adv-x="599" 
d="M416 648q58 -25 95.5 -76.5t37.5 -125.5v-234q0 -74 -37.5 -125.5t-95.5 -76.5t-117 -25t-116.5 25t-95 76.5t-37.5 125.5v234q0 74 37.5 125.5t95 76.5t116.5 25t117 -25zM374 502.5q-29 30.5 -75 30.5t-74.5 -30.5t-28.5 -78.5v-190q0 -48 28.5 -78.5t74.5 -30.5
t75 30.5t29 78.5v190q0 48 -29 78.5z" />
    <glyph glyph-name="one" unicode="1" horiz-adv-x="492" 
d="M427.5 133q6.5 -7 6.5 -22v-82q0 -15 -6.5 -22t-22.5 -7h-310q-16 0 -22.5 7t-6.5 22v82q0 15 6.5 22t22.5 7h85v268h-85q-17 0 -23 7t-6 22v81q0 15 6 22t23 7h22q23 0 43 17.5t20 66.5q1 15 8 20.5t21 5.5h97q14 0 21 -5.5t8 -20.5v-3v-488h70q16 0 22.5 -7z" />
    <glyph glyph-name="two" unicode="2" horiz-adv-x="559" 
d="M506.5 133q6.5 -7 6.5 -22v-82q0 -15 -6.5 -22t-22.5 -7h-414q-17 0 -22 5.5t-5 23.5v74q0 28 18 42q90 79 182 157q64 55 95.5 90.5t31.5 70.5q0 37 -23.5 55.5t-61.5 18.5q-41 0 -71 -29.5t-30 -72.5q0 -14 -5.5 -21t-20.5 -7h-88q-15 0 -21 6.5t-6 23.5
q0 80 32.5 132.5t87 77.5t121.5 25q60 0 115 -26.5t89 -74.5t34 -107q0 -47 -16.5 -84t-39.5 -63t-61 -61q-56 -50 -132 -116h211q16 0 22.5 -7z" />
    <glyph glyph-name="three" unicode="3" horiz-adv-x="562" 
d="M437 352q35 -24 57.5 -62t22.5 -87q0 -69 -33.5 -118.5t-90 -74t-125.5 -25.5q-63 0 -118 25t-88.5 68.5t-33.5 95.5q0 19 5.5 24.5t22.5 5.5h89q12 0 17 -4.5t8 -17.5q10 -32 41 -45.5t63 -13.5q36 0 65 21t29 58q0 79 -106 79h-45q-17 0 -22 5.5t-5 23.5v64q0 21 12 34
l105 110h-217q-16 0 -22.5 7.5t-6.5 21.5v81q0 15 6.5 22t22.5 7h382q16 0 22.5 -7t6.5 -22v-81q0 -9 -2.5 -15t-8.5 -14l-125 -133q37 -9 72 -33z" />
    <glyph glyph-name="four" unicode="4" horiz-adv-x="614" 
d="M568.5 262q6.5 -7 6.5 -22v-82q0 -15 -6.5 -22t-22.5 -7h-60v-100q0 -16 -7 -22.5t-22 -6.5h-94q-15 0 -22 6.5t-7 22.5v100h-279q-16 0 -22.5 7t-6.5 22v82q0 9 3.5 16t11.5 19l287 366q15 18 30 18h99q15 0 22 -6.5t7 -22.5v-361h60q16 0 22.5 -7zM190 269h144v188z
" />
    <glyph glyph-name="five" unicode="5" horiz-adv-x="561" 
d="M403.5 397.5q50.5 -27.5 79.5 -77.5t29 -114q0 -69 -35.5 -119t-92 -76t-119.5 -26t-117.5 25.5t-87 69t-32.5 95.5q0 18 5 23.5t22 5.5h90q13 0 17.5 -3.5t6.5 -15.5q9 -29 35.5 -45t60.5 -16q48 0 74.5 25.5t26.5 66.5q0 37 -29 63.5t-70 26.5q-33 0 -53.5 -9
t-46.5 -28q-6 -4 -22 -4h-82q-16 0 -21.5 5.5t-5.5 24.5l25 333q1 15 7 22t21 7h355q16 0 22.5 -7t6.5 -22v-82q0 -15 -6.5 -22t-22.5 -7h-248l-9 -117q16 10 44.5 17.5t58.5 7.5q63 0 113.5 -27.5z" />
    <glyph glyph-name="six" unicode="6" horiz-adv-x="593" 
d="M55 310q17 49 66 125l124 194q9 15 20 21.5t28 6.5h127q9 0 13.5 -5t4.5 -12t-5 -14l-134 -188q24 4 36 4q57 0 107 -28t80 -76.5t30 -107.5q0 -66 -34.5 -122.5t-93 -89.5t-127.5 -33q-64 0 -123.5 28.5t-97 81t-37.5 121.5q0 45 16 94zM221 151.5q30 -29.5 73 -29.5
t73.5 29.5t30.5 71.5t-30.5 71t-73.5 29t-73 -29t-30 -71t30 -71.5z" />
    <glyph glyph-name="seven" unicode="7" horiz-adv-x="539" 
d="M498.5 650q6.5 -7 6.5 -22v-78q0 -22 -11 -41l-233 -479q-8 -16 -16.5 -23t-23.5 -7h-127q-16 0 -16 14q0 6 5 16l252 486h-245q-16 0 -22.5 7t-6.5 22v83q0 15 6.5 22t22.5 7h386q16 0 22.5 -7z" />
    <glyph glyph-name="eight" unicode="8" horiz-adv-x="585" 
d="M515.5 85q-29.5 -46 -87 -72.5t-138.5 -26.5q-82 0 -139.5 26.5t-87 72.5t-29.5 104q0 101 110 159q-40 24 -63.5 61t-23.5 79q0 50 26.5 92t79 66.5t127.5 24.5q74 0 126.5 -24.5t79 -66.5t26.5 -92q0 -42 -23.5 -79t-63.5 -61q110 -57 110 -159q0 -58 -29.5 -104z
M232 437.5q19 -22.5 58 -22.5q38 0 57.5 22.5t19.5 45.5q0 30 -22.5 50.5t-54.5 20.5t-54.5 -20.5t-22.5 -50.5q0 -23 19 -45.5zM357 255q-28 23 -67 23q-40 0 -67.5 -23t-27.5 -57t27.5 -57t67.5 -23q39 0 67 23t28 57t-28 57z" />
    <glyph glyph-name="nine" unicode="9" horiz-adv-x="591" 
d="M536 347q-17 -49 -66 -125l-124 -194q-9 -15 -20 -21.5t-28 -6.5h-127q-9 0 -13.5 5t-4.5 12t5 14l134 188q-24 -4 -36 -4q-57 0 -107 28t-80 76.5t-30 107.5q0 66 34.5 122.5t93 89.5t127.5 33q64 0 123.5 -28.5t97 -81t37.5 -121.5q0 -45 -16 -94zM370 505.5
q-30 29.5 -73 29.5t-73.5 -29.5t-30.5 -71.5t30.5 -71t73.5 -29t73 29t30 71t-30 71.5z" />
    <glyph glyph-name="colon" unicode=":" horiz-adv-x="306" 
d="M242 438.5q7 -6.5 7 -22.5v-111q0 -16 -7 -22.5t-22 -6.5h-111q-15 0 -22 6.5t-7 22.5v111q0 16 7 22.5t22 6.5h111q15 0 22 -6.5zM242 162.5q7 -6.5 7 -22.5v-111q0 -16 -7 -22.5t-22 -6.5h-111q-15 0 -22 6.5t-7 22.5v111q0 16 7 22.5t22 6.5h111q15 0 22 -6.5z" />
    <glyph glyph-name="semicolon" unicode=";" horiz-adv-x="309" 
d="M246 438.5q6 -6.5 6 -27.5v-103q0 -20 -6 -26t-25 -6h-107q-19 0 -25 6t-6 26v103q0 21 6 27.5t25 6.5h107q19 0 25 -6.5zM245 162.5q7 -6.5 7 -22.5v-91q0 -17 -1.5 -25.5t-5.5 -20.5l-57 -116q-6 -9 -12 -13.5t-15 -4.5h-64q-6 0 -9.5 4t-3.5 10t4 13l54 104h-30
q-15 0 -22 6.5t-7 22.5v111q0 16 7 22.5t22 6.5h111q15 0 22 -6.5z" />
    <glyph glyph-name="less" unicode="&#x3c;" horiz-adv-x="566" 
d="M496 477q17 0 17 -19v-90q0 -17 -7.5 -23.5t-22.5 -12.5l-255 -93l255 -93q15 -6 22.5 -12.5t7.5 -23.5v-89q0 -20 -18 -20q-8 0 -14 3l-406 160q-22 9 -22 41v68q0 32 22 41l406 160q6 3 15 3z" />
    <glyph glyph-name="equal" unicode="=" horiz-adv-x="561" 
d="M504 500.5q7 -6.5 7 -22.5v-78q0 -16 -7 -22.5t-22 -6.5h-404q-15 0 -22 6.5t-7 22.5v78q0 16 7 22.5t22 6.5h404q15 0 22 -6.5zM504 264.5q7 -6.5 7 -22.5v-78q0 -16 -7 -22.5t-22 -6.5h-404q-15 0 -22 6.5t-7 22.5v78q0 16 7 22.5t22 6.5h404q15 0 22 -6.5z" />
    <glyph glyph-name="greater" unicode="&#x3e;" horiz-adv-x="566" 
d="M513 273v-68q0 -32 -22 -41l-406 -160q-6 -3 -14 -3q-18 0 -18 20v89q0 17 7.5 23.5t22.5 12.5l255 93l-255 93q-15 6 -22.5 12.5t-7.5 23.5v90q0 19 17 19q9 0 15 -3l406 -160q22 -9 22 -41z" />
    <glyph glyph-name="question" unicode="?" horiz-adv-x="546" 
d="M399.5 652q52.5 -20 84.5 -61.5t32 -101.5q0 -46 -24 -77t-63 -59q-37 -25 -57 -48.5t-20 -61.5q0 -18 -6.5 -25t-25.5 -7h-83q-18 0 -25 8t-7 24q0 52 12.5 85t40.5 62q15 15 45 32q27 17 39.5 29.5t12.5 31.5q0 24 -20.5 39.5t-48.5 15.5q-35 0 -57 -19.5t-28 -43.5
q-3 -15 -9 -23t-22 -8h-100q-11 0 -14 6.5t-3 24.5q5 46 28 90.5t73.5 75.5t130.5 31q62 0 114.5 -20zM353 162.5q7 -6.5 7 -22.5v-111q0 -16 -7 -22.5t-22 -6.5h-111q-15 0 -22 6.5t-7 22.5v111q0 16 7 22.5t22 6.5h111q15 0 22 -6.5z" />
    <glyph glyph-name="at" unicode="@" horiz-adv-x="833" 
d="M576 23v10q-20 -17 -41.5 -26t-53.5 -9q-66 0 -108 39q-28 27 -35.5 63t-7.5 105q0 67 7.5 99t35.5 60q42 40 107 40q26 0 50.5 -9t40.5 -22v22q0 54 -26 80q-27 27 -81 27h-104q-61 0 -88 -27q-15 -15 -20.5 -33.5t-5.5 -46.5v-221q0 -21 3.5 -33.5t13.5 -24.5
q3 -4 3 -10q0 -15 -13 -26l-74 -55q-7 -5 -17 -5q-13 0 -19 8q-23 30 -32.5 61t-9.5 76v235q0 63 12 106.5t45 76.5q34 34 82 45.5t110 11.5h124q60 0 105 -11.5t79 -45.5q33 -33 45 -76.5t12 -106.5v-370q0 -10 -5.5 -20t-18.5 -10h-85q-30 0 -30 23zM553.5 267
q-17.5 17 -43.5 17q-25 0 -41.5 -17t-16.5 -44v-50q0 -26 16.5 -43t41.5 -17q26 0 43.5 17t17.5 43v50q0 27 -17.5 44z" />
    <glyph glyph-name="A" unicode="A" 
d="M643 16q0 -16 -20 -16h-105q-17 0 -24.5 6t-13.5 24l-28 79h-245l-28 -79q-6 -18 -13.5 -24t-24.5 -6h-105q-20 0 -20 16q0 6 3 12l222 599q6 16 15.5 23.5t25.5 7.5h96q16 0 25 -7.5t16 -23.5l221 -599q3 -6 3 -12zM330 470l-75 -221h150z" />
    <glyph glyph-name="B" unicode="B" horiz-adv-x="687" 
d="M576 321.5q21 -15.5 40 -48.5t19 -81q0 -93 -65 -142.5t-173 -49.5h-294q-16 0 -22.5 7t-6.5 22v601q0 15 6.5 22t22.5 7h280q78 0 130.5 -25t77.5 -66t25 -90q0 -64 -25.5 -95.5t-47.5 -41.5q12 -4 33 -19.5zM476 207q0 33 -22 47t-61 14h-23q-16 0 -22.5 7t-6.5 22v76
q0 15 6.5 22t22.5 7h13q83 0 83 60q0 32 -20.5 44t-62.5 12h-152v-376h168q77 0 77 65z" />
    <glyph glyph-name="C" unicode="C" horiz-adv-x="632" 
d="M543 85q-38 -48 -98.5 -74t-123.5 -26q-64 0 -125.5 25t-102 76t-40.5 125v236q0 74 40.5 125t102 76t125.5 25t121 -21.5t95 -64.5t44 -104q0 -18 -6.5 -23.5t-24.5 -5.5h-96q-10 0 -15 5t-8.5 13t-6.5 13q-16 25 -39.5 36.5t-63.5 11.5q-50 0 -80.5 -26.5t-30.5 -73.5
v-208q0 -47 30.5 -73.5t80.5 -26.5q43 0 71 17t34 51q3 19 7.5 27.5t19.5 8.5h98q16 0 23 -8t7 -26q0 -62 -38 -110z" />
    <glyph glyph-name="D" unicode="D" horiz-adv-x="650" 
d="M453 633q62 -25 102.5 -76t40.5 -124v-208q0 -74 -40.5 -125t-102.5 -75.5t-126 -24.5h-224q-16 0 -22.5 7t-6.5 22v600q0 15 6.5 22t22.5 7h224q64 0 126 -25zM408 492.5q-31 26.5 -81 26.5h-96v-380h96q51 0 81.5 26.5t30.5 73.5v180q0 47 -31 73.5z" />
    <glyph glyph-name="E" unicode="E" horiz-adv-x="627" 
d="M573.5 133q6.5 -7 6.5 -22v-82q0 -15 -6.5 -22t-22.5 -7h-448q-16 0 -22.5 7t-6.5 22v600q0 15 6.5 22t22.5 7h431q16 0 22.5 -7t6.5 -22v-83q0 -15 -6.5 -22t-22.5 -7h-302v-109h268q16 0 22.5 -7t6.5 -22v-78q0 -15 -6.5 -22t-22.5 -7h-268v-132h319q16 0 22.5 -7z" />
    <glyph glyph-name="F" unicode="F" horiz-adv-x="602" 
d="M555.5 651q6.5 -7 6.5 -22v-82q0 -15 -6.5 -22t-22.5 -7h-302v-117h260q16 0 22.5 -7t6.5 -22v-79q0 -15 -6.5 -22t-22.5 -7h-260v-234q0 -19 -5.5 -24.5t-23.5 -5.5h-99q-16 0 -22.5 7t-6.5 22v600q0 15 6.5 22t22.5 7h430q16 0 22.5 -7z" />
    <glyph glyph-name="G" unicode="G" horiz-adv-x="646" 
d="M585.5 360q6.5 -7 6.5 -22v-145q-4 -68 -45.5 -115t-102 -70t-121.5 -23q-64 0 -126 23t-102.5 71.5t-40.5 122.5v246q0 74 41 125t102.5 75.5t125.5 24.5q65 0 127 -24.5t102 -71t40 -110.5q0 -18 -5.5 -23t-23.5 -5h-97q-15 0 -19.5 6t-6 14.5t-3.5 13.5
q-9 26 -38 43.5t-76 17.5q-49 0 -79.5 -30t-30.5 -78v-201q0 -47 30 -74t80 -27q52 0 81.5 26t29.5 81h-90q-16 0 -22.5 7t-6.5 22v78q0 15 6.5 22t22.5 7h219q16 0 22.5 -7z" />
    <glyph glyph-name="H" unicode="H" horiz-adv-x="685" 
d="M604 651.5q7 -6.5 7 -22.5v-600q0 -16 -7 -22.5t-22 -6.5h-99q-15 0 -22 6.5t-7 22.5v226h-223v-226q0 -17 -7 -23t-22 -6h-99q-15 0 -22 6.5t-7 22.5v600q0 16 7 22.5t22 6.5h99q15 0 22 -6t7 -23v-226h223v226q0 16 7 22.5t22 6.5h99q15 0 22 -6.5z" />
    <glyph glyph-name="I" unicode="I" horiz-adv-x="444" 
d="M382.5 130q6.5 -7 6.5 -22v-79q0 -15 -6.5 -22t-22.5 -7h-283q-16 0 -22.5 7t-6.5 22v79q0 15 6.5 22t22.5 7h63v382h-61q-16 0 -22.5 7t-6.5 22v81q0 15 6.5 22t22.5 7h278q16 0 22.5 -7t6.5 -22v-81q0 -15 -6.5 -22t-22.5 -7h-60v-382h63q16 0 22.5 -7z" />
    <glyph glyph-name="J" unicode="J" horiz-adv-x="580" 
d="M506.5 667q6.5 -7 6.5 -22v-430q0 -74 -35.5 -122t-92 -70.5t-120.5 -22.5q-67 0 -120.5 25t-84 73.5t-30.5 117.5q0 9 4.5 18t19.5 9h106q15 0 20 -7t5 -14q2 -43 23.5 -63t56.5 -20q48 0 69.5 25t21.5 73v296h-175q-17 0 -23 7t-6 22v83q0 15 6 22t23 7h303
q16 0 22.5 -7z" />
    <glyph glyph-name="K" unicode="K" horiz-adv-x="654" 
d="M634 654q4 -4 4 -10q0 -8 -6 -14l-225 -244l215 -354q4 -5 4 -14q0 -7 -5 -12.5t-14 -5.5h-122q-17 0 -28.5 7.5t-21.5 24.5l-143 240l-62 -65v-178q0 -16 -7 -22.5t-21 -6.5h-99q-15 0 -22 6t-7 23v600q0 17 7 23t22 6h99q14 0 21 -6.5t7 -22.5v-223l207 228
q15 16 23.5 20t26.5 4h135q8 0 12 -4z" />
    <glyph glyph-name="L" unicode="L" horiz-adv-x="582" 
d="M541.5 133q6.5 -7 6.5 -22v-82q0 -15 -6.5 -22t-22.5 -7h-416q-16 0 -22.5 7t-6.5 22v600q0 16 7 22.5t22 6.5h99q15 0 22 -6.5t7 -22.5v-489h288q16 0 22.5 -7z" />
    <glyph glyph-name="M" unicode="M" horiz-adv-x="767" 
d="M686.5 652q6.5 -7 6.5 -22v-601q0 -16 -7 -22.5t-22 -6.5h-96q-15 0 -22 6.5t-7 22.5v339l-100 -175q-13 -21 -29 -21h-50q-10 0 -16 6t-12 15l-101 175v-339q0 -16 -7 -22.5t-22 -6.5h-99q-15 0 -22 6.5t-7 22.5v601q0 15 6.5 22t22.5 7h99q18 0 26.5 -7t13 -15.5
t6.5 -11.5l137 -246l138 246q2 3 6.5 12.5t14 15.5t24.5 6h96q16 0 22.5 -7z" />
    <glyph glyph-name="N" unicode="N" horiz-adv-x="682" 
d="M601 651.5q7 -6.5 7 -22.5v-600q0 -15 -6.5 -22t-22.5 -7h-91q-17 0 -24.5 7t-20.5 27l-212 343v-348q0 -16 -7 -22.5t-22 -6.5h-99q-15 0 -22 6.5t-7 22.5v600q0 15 6.5 22t22.5 7h94q17 0 24.5 -7t20.5 -27l212 -342v347q0 16 7 22.5t22 6.5h96q15 0 22 -6.5z" />
    <glyph glyph-name="O" unicode="O" horiz-adv-x="645" 
d="M550.5 86q-40.5 -51 -102.5 -76t-126 -25t-125.5 24.5t-101.5 76t-40 125.5v236q0 74 40 125.5t101.5 76t125.5 24.5t126 -25t102.5 -76t40.5 -125v-236q0 -74 -40.5 -125zM403 507q-31 27 -81 27t-80.5 -27t-30.5 -74v-208q0 -47 30.5 -74t80.5 -27t81 27t31 74v208
q0 47 -31 74z" />
    <glyph glyph-name="P" unicode="P" horiz-adv-x="628" 
d="M522 595q68 -63 68 -169t-68.5 -168.5t-194.5 -62.5h-96v-166q0 -16 -7 -22.5t-22 -6.5h-99q-15 0 -22 6.5t-7 22.5v600q0 15 6.5 22t22.5 7h225q126 0 194 -63zM410.5 356.5q28.5 26.5 28.5 66.5q0 42 -28 68t-84 26h-96v-187h96q55 0 83.5 26.5z" />
    <glyph glyph-name="Q" unicode="Q" horiz-adv-x="646" 
d="M602 27q0 -13 -13 -26l-48 -39q-14 -14 -26 -14q-10 0 -19 9l-48 49q-51 -22 -127 -22q-64 0 -125.5 24.5t-101.5 76t-40 125.5v236q0 74 40 125.5t101.5 76t125.5 24.5t126 -25t102.5 -76t40.5 -125v-236q0 -39 -8 -67.5t-27 -52.5l38 -43q9 -9 9 -20zM403 507
q-31 27 -81 27t-80.5 -27t-30.5 -74v-208q0 -47 30.5 -74t80.5 -27t81 27t31 74v208q0 47 -31 74z" />
    <glyph glyph-name="R" unicode="R" horiz-adv-x="666" 
d="M617 18q0 -8 -5 -13t-14 -5h-118q-17 0 -28 7t-22 23l-108 161q-7 9 -9 19.5t-2 31.5v80q0 15 6.5 22t22.5 7h20q38 0 66.5 23.5t28.5 57.5q0 38 -26 61.5t-66 23.5h-133v-488q0 -16 -7 -22.5t-22 -6.5h-99q-14 0 -21 6.5t-7 22.5v599q0 15 6 22t22 7h252q78 0 121.5 -15
t77.5 -49q28 -27 43 -68t15 -89q0 -49 -21 -90.5t-53 -69.5t-65 -39l141 -205q4 -7 4 -14z" />
    <glyph glyph-name="S" unicode="S" horiz-adv-x="605" 
d="M473 349q35 -17 62 -54t27 -100q0 -103 -73 -156.5t-193 -53.5q-65 0 -127 24.5t-102 73t-40 114.5q0 17 6 22.5t23 5.5h97q19 0 27 -5t9 -23q2 -21 19 -41q14 -17 40.5 -25t57.5 -8q46 0 72 14.5t26 53.5q0 28 -26 41t-82 26q-50 12 -66 17q-61 19 -101.5 41t-66.5 60
t-26 98q0 62 33.5 106t89 67t120.5 26q67 0 128 -21t99.5 -63.5t38.5 -105.5q0 -18 -5.5 -23t-23.5 -5h-98q-11 0 -16 5.5t-7.5 12.5t-3.5 9q-6 15 -21 30q-14 13 -37.5 20t-47.5 7q-32 0 -60 -14t-28 -44q0 -31 40.5 -50t106.5 -37q28 -6 40 -12q54 -16 89 -33z" />
    <glyph glyph-name="T" unicode="T" horiz-adv-x="574" 
d="M541.5 651q6.5 -7 6.5 -22v-83q0 -15 -6.5 -22t-22.5 -7h-153v-488q0 -16 -7 -22.5t-22 -6.5h-99q-15 0 -22 6.5t-7 22.5v488h-154q-16 0 -22.5 7t-6.5 22v83q0 15 6.5 22t22.5 7h464q16 0 22.5 -7z" />
    <glyph glyph-name="U" unicode="U" horiz-adv-x="661" 
d="M588 651.5q7 -6.5 7 -22.5v-428q0 -74 -39.5 -122.5t-100 -71t-125.5 -22.5t-125 22.5t-99.5 71t-39.5 122.5v428q0 16 7 22.5t22 6.5h99q15 0 22 -6.5t7 -22.5v-406q0 -47 28.5 -73t78.5 -26t79 26t29 73v406q0 16 7 22.5t22 6.5h99q15 0 22 -6.5z" />
    <glyph glyph-name="V" unicode="V" horiz-adv-x="636" 
d="M614 652.5q5 -5.5 5 -13.5q0 -4 -2 -10l-214 -599q-9 -19 -16.5 -24.5t-24.5 -5.5h-96q-17 0 -24.5 5.5t-16.5 24.5l-215 599q-2 6 -2 10q0 8 5 13.5t15 5.5h111q19 0 27 -6.5t14 -25.5l136 -414l135 414q6 19 14 25.5t28 6.5h106q10 0 15 -5.5z" />
    <glyph glyph-name="W" unicode="W" horiz-adv-x="898" 
d="M873.5 652.5q4.5 -5.5 4.5 -13.5q0 -4 -2 -10l-184 -608q-3 -9 -9.5 -15t-17.5 -6h-84q-13 0 -21 6.5t-11 16.5l-100 319l-100 -319q-3 -10 -11 -16.5t-21 -6.5h-88q-11 0 -17.5 6t-9.5 15l-185 608q-1 3 -1 8q0 21 19 21h110q20 0 27.5 -9t12.5 -23l99 -340l96 340
q4 14 11.5 23t22.5 9h70q15 0 22 -9t11 -23l97 -340l99 340q8 32 40 32h106q10 0 14.5 -5.5z" />
    <glyph glyph-name="X" unicode="X" horiz-adv-x="586" 
d="M567 18q0 -7 -4.5 -12.5t-11.5 -5.5h-114q-18 0 -26 4.5t-18 23.5l-99 178l-100 -178q-9 -18 -17.5 -23t-26.5 -5h-114q-7 0 -11.5 5.5t-4.5 12.5q0 8 4 13l178 306l-181 293q-3 5 -3 10q0 7 5 12.5t13 5.5h118q14 0 22 -6t18 -23l100 -161l99 161q11 17 19 23t22 6h117
q8 0 13 -5t5 -12q0 -6 -3 -11l-180 -293l177 -306q4 -5 4 -13z" />
    <glyph glyph-name="Y" unicode="Y" horiz-adv-x="604" 
d="M593 641q0 -5 -2 -11l-206 -383v-218q0 -16 -7 -22.5t-22 -6.5h-100q-15 0 -22 6t-7 23v218l-214 383q-2 6 -2 11q0 17 18 17h115q18 0 27.5 -5.5t19.5 -24.5l117 -215l113 215q9 19 18.5 24.5t27.5 5.5h108q18 0 18 -17z" />
    <glyph glyph-name="Z" unicode="Z" horiz-adv-x="567" 
d="M524.5 133q6.5 -7 6.5 -22v-82q0 -15 -6.5 -22t-22.5 -7h-436q-19 0 -24.5 5.5t-5.5 23.5v78q0 22 13 38l270 373h-245q-16 0 -22.5 7t-6.5 22v82q0 15 6.5 22t22.5 7h402q16 0 22.5 -7t6.5 -22v-78q0 -22 -13 -39l-268 -372h278q16 0 22.5 -7z" />
    <glyph glyph-name="bracketleft" unicode="[" horiz-adv-x="414" 
d="M345 -16q16 0 22.5 -7t6.5 -22v-82q0 -15 -6.5 -22t-22.5 -7h-242q-16 0 -22.5 7t-6.5 22v771q0 15 6.5 22t22.5 7h242q16 0 22.5 -7t6.5 -22v-82q0 -15 -6.5 -22t-22.5 -7h-118v-549h118z" />
    <glyph glyph-name="backslash" unicode="\" horiz-adv-x="401" 
d="M137.5 685.5q6.5 -7.5 11.5 -19.5l240 -638q1 -2 1 -8q0 -8 -5.5 -14t-18.5 -6h-86q-13 0 -19.5 7.5t-11.5 19.5l-239 638q-1 2 -1 8q0 8 5.5 14t18.5 6h85q13 0 19.5 -7.5z" />
    <glyph glyph-name="bracketright" unicode="]" horiz-adv-x="414" 
d="M69 533q-16 0 -22.5 7t-6.5 22v82q0 15 6.5 22t22.5 7h242q16 0 22.5 -7t6.5 -22v-771q0 -15 -6.5 -22t-22.5 -7h-242q-16 0 -22.5 7t-6.5 22v82q0 15 6.5 22t22.5 7h118v549h-118z" />
    <glyph glyph-name="asciicircum" unicode="^" horiz-adv-x="536" 
d="M478 331q0 -14 -18 -14h-94q-15 0 -20 4.5t-8 10.5t-4 9l-66 144l-66 -144q-1 -3 -4.5 -10t-10 -10.5t-18.5 -3.5h-93q-8 0 -13.5 4t-5.5 11q0 4 3 10l142 298q5 11 10.5 14.5t12.5 3.5h86q7 0 12.5 -3.5t9.5 -14.5l142 -298q3 -6 3 -11z" />
    <glyph glyph-name="underscore" unicode="_" horiz-adv-x="590" 
d="M583 -94.5q7 -6.5 7 -22.5v-31q0 -16 -7 -22.5t-22 -6.5h-532q-15 0 -22 6.5t-7 22.5v31q0 16 7 22.5t22 6.5h532q15 0 22 -6.5z" />
    <glyph glyph-name="grave" unicode="`" horiz-adv-x="556" 
d="M226 499q-8 5 -15 12.5t-10 10.5l-100 108q-5 5 -5 11q0 7 6 12t18 5h127q17 0 25.5 -5t19.5 -23l67 -108q4 -6 4 -12q0 -7 -4.5 -11.5t-12.5 -4.5h-98q-14 0 -22 5z" />
    <glyph glyph-name="a" unicode="a" 
d="M643 16q0 -16 -20 -16h-105q-17 0 -24.5 6t-13.5 24l-28 79h-245l-28 -79q-6 -18 -13.5 -24t-24.5 -6h-105q-20 0 -20 16q0 6 3 12l222 599q6 16 15.5 23.5t25.5 7.5h96q16 0 25 -7.5t16 -23.5l221 -599q3 -6 3 -12zM330 470l-75 -221h150z" />
    <glyph glyph-name="b" unicode="b" horiz-adv-x="687" 
d="M576 321.5q21 -15.5 40 -48.5t19 -81q0 -93 -65 -142.5t-173 -49.5h-294q-16 0 -22.5 7t-6.5 22v601q0 15 6.5 22t22.5 7h280q78 0 130.5 -25t77.5 -66t25 -90q0 -64 -25.5 -95.5t-47.5 -41.5q12 -4 33 -19.5zM476 207q0 33 -22 47t-61 14h-23q-16 0 -22.5 7t-6.5 22v76
q0 15 6.5 22t22.5 7h13q83 0 83 60q0 32 -20.5 44t-62.5 12h-152v-376h168q77 0 77 65z" />
    <glyph glyph-name="c" unicode="c" horiz-adv-x="632" 
d="M543 85q-38 -48 -98.5 -74t-123.5 -26q-64 0 -125.5 25t-102 76t-40.5 125v236q0 74 40.5 125t102 76t125.5 25t121 -21.5t95 -64.5t44 -104q0 -18 -6.5 -23.5t-24.5 -5.5h-96q-10 0 -15 5t-8.5 13t-6.5 13q-16 25 -39.5 36.5t-63.5 11.5q-50 0 -80.5 -26.5t-30.5 -73.5
v-208q0 -47 30.5 -73.5t80.5 -26.5q43 0 71 17t34 51q3 19 7.5 27.5t19.5 8.5h98q16 0 23 -8t7 -26q0 -62 -38 -110z" />
    <glyph glyph-name="d" unicode="d" horiz-adv-x="650" 
d="M453 633q62 -25 102.5 -76t40.5 -124v-208q0 -74 -40.5 -125t-102.5 -75.5t-126 -24.5h-224q-16 0 -22.5 7t-6.5 22v600q0 15 6.5 22t22.5 7h224q64 0 126 -25zM408 492.5q-31 26.5 -81 26.5h-96v-380h96q51 0 81.5 26.5t30.5 73.5v180q0 47 -31 73.5z" />
    <glyph glyph-name="e" unicode="e" horiz-adv-x="627" 
d="M573.5 133q6.5 -7 6.5 -22v-82q0 -15 -6.5 -22t-22.5 -7h-448q-16 0 -22.5 7t-6.5 22v600q0 15 6.5 22t22.5 7h431q16 0 22.5 -7t6.5 -22v-83q0 -15 -6.5 -22t-22.5 -7h-302v-109h268q16 0 22.5 -7t6.5 -22v-78q0 -15 -6.5 -22t-22.5 -7h-268v-132h319q16 0 22.5 -7z" />
    <glyph glyph-name="f" unicode="f" horiz-adv-x="602" 
d="M555.5 651q6.5 -7 6.5 -22v-82q0 -15 -6.5 -22t-22.5 -7h-302v-117h260q16 0 22.5 -7t6.5 -22v-79q0 -15 -6.5 -22t-22.5 -7h-260v-234q0 -19 -5.5 -24.5t-23.5 -5.5h-99q-16 0 -22.5 7t-6.5 22v600q0 15 6.5 22t22.5 7h430q16 0 22.5 -7z" />
    <glyph glyph-name="g" unicode="g" horiz-adv-x="646" 
d="M585.5 360q6.5 -7 6.5 -22v-145q-4 -68 -45.5 -115t-102 -70t-121.5 -23q-64 0 -126 23t-102.5 71.5t-40.5 122.5v246q0 74 41 125t102.5 75.5t125.5 24.5q65 0 127 -24.5t102 -71t40 -110.5q0 -18 -5.5 -23t-23.5 -5h-97q-15 0 -19.5 6t-6 14.5t-3.5 13.5
q-9 26 -38 43.5t-76 17.5q-49 0 -79.5 -30t-30.5 -78v-201q0 -47 30 -74t80 -27q52 0 81.5 26t29.5 81h-90q-16 0 -22.5 7t-6.5 22v78q0 15 6.5 22t22.5 7h219q16 0 22.5 -7z" />
    <glyph glyph-name="h" unicode="h" horiz-adv-x="685" 
d="M604 651.5q7 -6.5 7 -22.5v-600q0 -16 -7 -22.5t-22 -6.5h-99q-15 0 -22 6.5t-7 22.5v226h-223v-226q0 -17 -7 -23t-22 -6h-99q-15 0 -22 6.5t-7 22.5v600q0 16 7 22.5t22 6.5h99q15 0 22 -6t7 -23v-226h223v226q0 16 7 22.5t22 6.5h99q15 0 22 -6.5z" />
    <glyph glyph-name="i" unicode="i" horiz-adv-x="444" 
d="M382.5 130q6.5 -7 6.5 -22v-79q0 -15 -6.5 -22t-22.5 -7h-283q-16 0 -22.5 7t-6.5 22v79q0 15 6.5 22t22.5 7h63v382h-61q-16 0 -22.5 7t-6.5 22v81q0 15 6.5 22t22.5 7h278q16 0 22.5 -7t6.5 -22v-81q0 -15 -6.5 -22t-22.5 -7h-60v-382h63q16 0 22.5 -7z" />
    <glyph glyph-name="j" unicode="j" horiz-adv-x="580" 
d="M506.5 656q6.5 -7 6.5 -22v-419q0 -74 -35.5 -122t-92 -70.5t-120.5 -22.5q-67 0 -120.5 25t-84 73.5t-30.5 117.5q0 9 4.5 18t19.5 9h106q15 0 20 -7t5 -14q2 -43 23.5 -63t56.5 -20q48 0 69.5 25t21.5 73v285h-175q-17 0 -23 7t-6 22v83q0 15 6 22t23 7h303
q16 0 22.5 -7z" />
    <glyph glyph-name="k" unicode="k" horiz-adv-x="654" 
d="M634 654q4 -4 4 -10q0 -8 -6 -14l-225 -244l215 -354q4 -5 4 -14q0 -7 -5 -12.5t-14 -5.5h-122q-17 0 -28.5 7.5t-21.5 24.5l-143 240l-62 -65v-178q0 -16 -7 -22.5t-21 -6.5h-99q-15 0 -22 6t-7 23v600q0 17 7 23t22 6h99q14 0 21 -6.5t7 -22.5v-223l207 228
q15 16 23.5 20t26.5 4h135q8 0 12 -4z" />
    <glyph glyph-name="l" unicode="l" horiz-adv-x="582" 
d="M541.5 133q6.5 -7 6.5 -22v-82q0 -15 -6.5 -22t-22.5 -7h-416q-16 0 -22.5 7t-6.5 22v600q0 16 7 22.5t22 6.5h99q15 0 22 -6.5t7 -22.5v-489h288q16 0 22.5 -7z" />
    <glyph glyph-name="m" unicode="m" horiz-adv-x="767" 
d="M686.5 652q6.5 -7 6.5 -22v-601q0 -16 -7 -22.5t-22 -6.5h-96q-15 0 -22 6.5t-7 22.5v339l-100 -175q-13 -21 -29 -21h-50q-10 0 -16 6t-12 15l-101 175v-339q0 -16 -7 -22.5t-22 -6.5h-99q-15 0 -22 6.5t-7 22.5v601q0 15 6.5 22t22.5 7h99q18 0 26.5 -7t13 -15.5
t6.5 -11.5l137 -246l138 246q2 3 6.5 12.5t14 15.5t24.5 6h96q16 0 22.5 -7z" />
    <glyph glyph-name="n" unicode="n" horiz-adv-x="682" 
d="M601 651.5q7 -6.5 7 -22.5v-600q0 -15 -6.5 -22t-22.5 -7h-91q-17 0 -24.5 7t-20.5 27l-212 343v-348q0 -16 -7 -22.5t-22 -6.5h-99q-15 0 -22 6.5t-7 22.5v600q0 15 6.5 22t22.5 7h94q17 0 24.5 -7t20.5 -27l212 -342v347q0 16 7 22.5t22 6.5h96q15 0 22 -6.5z" />
    <glyph glyph-name="o" unicode="o" horiz-adv-x="645" 
d="M550.5 86q-40.5 -51 -102.5 -76t-126 -25t-125.5 24.5t-101.5 76t-40 125.5v236q0 74 40 125.5t101.5 76t125.5 24.5t126 -25t102.5 -76t40.5 -125v-236q0 -74 -40.5 -125zM403 507q-31 27 -81 27t-80.5 -27t-30.5 -74v-208q0 -47 30.5 -74t80.5 -27t81 27t31 74v208
q0 47 -31 74z" />
    <glyph glyph-name="p" unicode="p" horiz-adv-x="628" 
d="M522 595q68 -63 68 -169t-68.5 -168.5t-194.5 -62.5h-96v-166q0 -16 -7 -22.5t-22 -6.5h-99q-15 0 -22 6.5t-7 22.5v600q0 15 6.5 22t22.5 7h225q126 0 194 -63zM410.5 356.5q28.5 26.5 28.5 66.5q0 42 -28 68t-84 26h-96v-187h96q55 0 83.5 26.5z" />
    <glyph glyph-name="q" unicode="q" horiz-adv-x="646" 
d="M602 27q0 -13 -13 -26l-48 -39q-14 -14 -26 -14q-10 0 -19 9l-48 49q-51 -22 -127 -22q-64 0 -125.5 24.5t-101.5 76t-40 125.5v236q0 74 40 125.5t101.5 76t125.5 24.5t126 -25t102.5 -76t40.5 -125v-236q0 -39 -8 -67.5t-27 -52.5l38 -43q9 -9 9 -20zM403 507
q-31 27 -81 27t-80.5 -27t-30.5 -74v-208q0 -47 30.5 -74t80.5 -27t81 27t31 74v208q0 47 -31 74z" />
    <glyph glyph-name="r" unicode="r" horiz-adv-x="666" 
d="M617 18q0 -8 -5 -13t-14 -5h-118q-17 0 -28 7t-22 23l-108 161q-7 9 -9 19.5t-2 31.5v80q0 15 6.5 22t22.5 7h20q38 0 66.5 23.5t28.5 57.5q0 38 -26 61.5t-66 23.5h-133v-488q0 -16 -7 -22.5t-22 -6.5h-99q-14 0 -21 6.5t-7 22.5v599q0 15 6 22t22 7h252q78 0 121.5 -15
t77.5 -49q28 -27 43 -68t15 -89q0 -49 -21 -90.5t-53 -69.5t-65 -39l141 -205q4 -7 4 -14z" />
    <glyph glyph-name="s" unicode="s" horiz-adv-x="605" 
d="M473 349q35 -17 62 -54t27 -100q0 -103 -73 -156.5t-193 -53.5q-65 0 -127 24.5t-102 73t-40 114.5q0 17 6 22.5t23 5.5h97q19 0 27 -5t9 -23q2 -21 19 -41q14 -17 40.5 -25t57.5 -8q46 0 72 14.5t26 53.5q0 28 -26 41t-82 26q-50 12 -66 17q-61 19 -101.5 41t-66.5 60
t-26 98q0 62 33.5 106t89 67t120.5 26q67 0 128 -21t99.5 -63.5t38.5 -105.5q0 -18 -5.5 -23t-23.5 -5h-98q-11 0 -16 5.5t-7.5 12.5t-3.5 9q-6 15 -21 30q-14 13 -37.5 20t-47.5 7q-32 0 -60 -14t-28 -44q0 -31 40.5 -50t106.5 -37q28 -6 40 -12q54 -16 89 -33z" />
    <glyph glyph-name="t" unicode="t" horiz-adv-x="574" 
d="M541.5 651q6.5 -7 6.5 -22v-83q0 -15 -6.5 -22t-22.5 -7h-153v-488q0 -16 -7 -22.5t-22 -6.5h-99q-15 0 -22 6.5t-7 22.5v488h-154q-16 0 -22.5 7t-6.5 22v83q0 15 6.5 22t22.5 7h464q16 0 22.5 -7z" />
    <glyph glyph-name="u" unicode="u" horiz-adv-x="661" 
d="M588 651.5q7 -6.5 7 -22.5v-428q0 -74 -39.5 -122.5t-100 -71t-125.5 -22.5t-125 22.5t-99.5 71t-39.5 122.5v428q0 16 7 22.5t22 6.5h99q15 0 22 -6.5t7 -22.5v-406q0 -47 28.5 -73t78.5 -26t79 26t29 73v406q0 16 7 22.5t22 6.5h99q15 0 22 -6.5z" />
    <glyph glyph-name="v" unicode="v" horiz-adv-x="636" 
d="M614 652.5q5 -5.5 5 -13.5q0 -4 -2 -10l-214 -599q-9 -19 -16.5 -24.5t-24.5 -5.5h-96q-17 0 -24.5 5.5t-16.5 24.5l-215 599q-2 6 -2 10q0 8 5 13.5t15 5.5h111q19 0 27 -6.5t14 -25.5l136 -414l135 414q6 19 14 25.5t28 6.5h106q10 0 15 -5.5z" />
    <glyph glyph-name="w" unicode="w" horiz-adv-x="898" 
d="M873.5 652.5q4.5 -5.5 4.5 -13.5q0 -4 -2 -10l-184 -608q-3 -9 -9.5 -15t-17.5 -6h-84q-13 0 -21 6.5t-11 16.5l-100 319l-100 -319q-3 -10 -11 -16.5t-21 -6.5h-88q-11 0 -17.5 6t-9.5 15l-185 608q-1 3 -1 8q0 21 19 21h110q20 0 27.5 -9t12.5 -23l99 -340l96 340
q4 14 11.5 23t22.5 9h70q15 0 22 -9t11 -23l97 -340l99 340q8 32 40 32h106q10 0 14.5 -5.5z" />
    <glyph glyph-name="x" unicode="x" horiz-adv-x="586" 
d="M567 18q0 -7 -4.5 -12.5t-11.5 -5.5h-114q-18 0 -26 4.5t-18 23.5l-99 178l-100 -178q-9 -18 -17.5 -23t-26.5 -5h-114q-7 0 -11.5 5.5t-4.5 12.5q0 8 4 13l178 306l-181 293q-3 5 -3 10q0 7 5 12.5t13 5.5h118q14 0 22 -6t18 -23l100 -161l99 161q11 17 19 23t22 6h117
q8 0 13 -5t5 -12q0 -6 -3 -11l-180 -293l177 -306q4 -5 4 -13z" />
    <glyph glyph-name="y" unicode="y" horiz-adv-x="604" 
d="M593 641q0 -5 -2 -11l-206 -383v-218q0 -16 -7 -22.5t-22 -6.5h-100q-15 0 -22 6t-7 23v218l-214 383q-2 6 -2 11q0 17 18 17h115q18 0 27.5 -5.5t19.5 -24.5l117 -215l113 215q9 19 18.5 24.5t27.5 5.5h108q18 0 18 -17z" />
    <glyph glyph-name="z" unicode="z" horiz-adv-x="567" 
d="M524.5 133q6.5 -7 6.5 -22v-82q0 -15 -6.5 -22t-22.5 -7h-436q-19 0 -24.5 5.5t-5.5 23.5v78q0 22 13 38l270 373h-245q-16 0 -22.5 7t-6.5 22v82q0 15 6.5 22t22.5 7h402q16 0 22.5 -7t6.5 -22v-78q0 -22 -13 -39l-268 -372h278q16 0 22.5 -7z" />
    <glyph glyph-name="braceleft" unicode="{" horiz-adv-x="499" 
d="M448.5 321q6.5 -7 6.5 -22v-82q0 -15 -6.5 -22t-22.5 -7h-32q-32 -1 -49 -17q-16 -17 -16 -60v-115q0 -66 -46 -112q-42 -40 -114 -40h-96q-16 0 -22.5 7t-6.5 22v82q0 15 6.5 22t22.5 7h47q34 2 46 14q9 8 12.5 22.5t3.5 40.5v101q0 50 21.5 69t48.5 26l6 2l-7 1
q-27 7 -48 26t-21 69v101q0 26 -3.5 40t-12.5 23q-12 12 -46 14h-47q-16 0 -22.5 7t-6.5 22v82q0 15 6.5 22t22.5 7h96q72 0 114 -40q46 -46 46 -112v-115q0 -43 16 -60q19 -18 56 -18h25q16 0 22.5 -7z" />
    <glyph glyph-name="bar" unicode="|" horiz-adv-x="337" 
d="M230 785.5q7 -6.5 7 -22.5v-900q0 -16 -7 -22.5t-22 -6.5h-79q-15 0 -22 6.5t-7 22.5v900q0 16 7 22.5t22 6.5h79q15 0 22 -6.5z" />
    <glyph glyph-name="braceright" unicode="}" horiz-adv-x="499" 
d="M154 346q16 17 16 60v115q0 66 46 112q42 40 114 40h96q16 0 22.5 -7t6.5 -22v-82q0 -15 -6.5 -22t-22.5 -7h-47q-34 -2 -46 -14q-9 -9 -12.5 -23t-3.5 -40v-101q0 -50 -21 -69t-48 -26l-7 -1l6 -2q27 -7 48.5 -26t21.5 -69v-101q0 -26 3.5 -40.5t12.5 -22.5
q12 -12 46 -14h47q16 0 22.5 -7t6.5 -22v-82q0 -15 -6.5 -22t-22.5 -7h-96q-72 0 -114 40q-46 46 -46 112v115q0 43 -16 60q-17 16 -49 17h-32q-16 0 -22.5 7t-6.5 22v82q0 15 6.5 22t22.5 7h25q37 0 56 18z" />
    <glyph glyph-name="asciitilde" unicode="~" horiz-adv-x="833" 
d="M663 297q0 -12 -10 -22q-32 -29 -66.5 -48t-76.5 -19q-55 0 -104 27q-24 14 -42 19.5t-39 5.5q-25 0 -59 -21q-8 -5 -17 -5q-15 0 -24 11l-51 51q-8 8 -8 18q0 12 10 22q32 29 66.5 47.5t76.5 18.5q55 0 104 -27q25 -14 42.5 -19.5t38.5 -5.5q25 0 59 21q8 5 18 5
q15 0 24 -10l51 -52q7 -7 7 -17z" />
    <glyph glyph-name="exclamdown" unicode="&#xa1;" horiz-adv-x="316" 
d="M81 339.5q-7 6.5 -7 22.5v111q0 16 7 22.5t22 6.5h111q15 0 22 -6.5t7 -22.5v-111q0 -16 -7 -22.5t-22 -6.5h-111q-15 0 -22 6.5zM205.5 290q4.5 -5 6.5 -24l43 -401q0 -12 -6.5 -16.5t-22.5 -4.5h-134q-17 0 -23.5 4t-6.5 17l44 401q2 20 6.5 24.5t21.5 4.5h49
q18 0 22.5 -5z" />
    <glyph glyph-name="sterling" unicode="&#xa3;" horiz-adv-x="651" 
d="M604.5 133q6.5 -7 6.5 -22v-82q0 -14 -6.5 -21.5t-22.5 -7.5h-519q-16 1 -22 8t-6 21v82q0 15 6 22t23 7q27 0 45 17.5t21 71.5h-66q-16 0 -22.5 7t-6.5 22v78q0 15 6.5 22t22.5 7h66v108q0 62 31 107.5t83.5 69t115.5 23.5q62 0 116.5 -24t88.5 -74.5t34 -124.5
q0 -15 -3.5 -18.5t-15.5 -3.5h-99q-15 0 -21.5 7t-6.5 15q0 48 -21.5 65.5t-66.5 17.5q-39 0 -58 -28.5t-19 -71.5v-68h130q16 0 22.5 -7t6.5 -22v-78q0 -15 -6.5 -22t-22.5 -7h-130q0 -62 -33 -89h327q16 0 22.5 -7z" />
    <glyph glyph-name="currency" unicode="&#xa4;" horiz-adv-x="674" 
d="M540 505q9 0 20 -11l33 -33q11 -11 11 -20q0 -10 -11 -21l-40 -41q36 -57 36 -125q0 -71 -37 -129l41 -41q11 -11 11 -21q0 -9 -11 -20l-32 -32q-11 -11 -20 -11q-10 0 -21 11l-41 41q-58 -37 -128 -37q-67 0 -126 36l-41 -40q-11 -11 -21 -11q-9 0 -20 11l-33 33
q-11 11 -11 20q0 10 11 21l40 40q-36 59 -36 127q0 69 37 127l-40 41q-11 11 -11 21q0 9 11 20l32 32q11 11 20 11q10 0 21 -11l41 -40q58 37 127 37q68 0 127 -36l40 40q11 11 21 11zM461 252q0 46 -32 77q-32 32 -78 32t-77 -31t-31 -77t32 -78t77 -32t77 32q32 31 32 77z
" />
    <glyph glyph-name="yen" unicode="&#xa5;" horiz-adv-x="594" 
d="M581 653q5 -5 5 -12q0 -6 -3 -11l-115 -215h41q15 0 22 -6.5t7 -22.5v-53q0 -16 -7 -22.5t-22 -6.5h-101l-31 -57v-2h132q15 0 22 -6.5t7 -22.5v-53q0 -16 -7 -22.5t-22 -6.5h-132v-105q0 -16 -7 -22.5t-22 -6.5h-100q-15 0 -22 6.5t-7 22.5v105h-139q-15 0 -22 6.5
t-7 22.5v53q0 16 7 22.5t22 6.5h139v2l-32 57h-107q-15 0 -22 6.5t-7 22.5v53q0 16 7 22.5t22 6.5h45l-120 215q-2 6 -2 11q0 17 18 17h116q18 0 27 -5.5t19 -24.5l116 -213h2l112 213q10 19 19 24.5t27 5.5h108q9 0 14 -5z" />
    <glyph glyph-name="brokenbar" unicode="&#xa6;" horiz-adv-x="337" 
d="M230 605.5q7 -6.5 7 -22.5v-210q0 -16 -7 -22.5t-22 -6.5h-79q-15 0 -22 6.5t-7 22.5v210q0 16 7 22.5t22 6.5h79q15 0 22 -6.5zM230 148.5q7 -6.5 7 -22.5v-210q0 -16 -7 -22.5t-22 -6.5h-79q-15 0 -22 6.5t-7 22.5v210q0 16 7 22.5t22 6.5h79q15 0 22 -6.5z" />
    <glyph glyph-name="section" unicode="&#xa7;" horiz-adv-x="541" 
d="M479 192.5q-17 -32.5 -48 -47.5q20 -19 32 -46.5t12 -53.5q0 -55 -28.5 -92.5t-74 -56t-97.5 -18.5q-72 0 -118 21.5t-67 56t-21 73.5q0 22 6 28.5t23 6.5h76q15 0 23 -6t9 -15q4 -19 18 -31q18 -16 48 -16q25 0 40 13t15 35q0 23 -25.5 39.5t-80.5 39.5q-54 23 -89.5 43
t-61 52t-25.5 77q0 48 21 83.5t60 53.5q-41 36 -41 86q0 48 28 83.5t72.5 53.5t93.5 18q79 0 122 -31.5t57.5 -65.5t14.5 -47q0 -18 -4.5 -26t-24.5 -8h-75q-15 0 -21.5 7t-12.5 20q-5 12 -12 19q-16 14 -42 14q-19 0 -33.5 -10t-14.5 -30q0 -17 14 -28t40 -24l6 -2l103 -49
q49 -22 74.5 -59.5t25.5 -85.5q0 -42 -17 -74.5zM356 232q11 10 11 24q0 27 -36 44l-89 43q-13 5 -23 5q-14 0 -24 -9.5t-11 -23.5t6.5 -22.5t26.5 -19.5l93 -47q8 -4 19 -4q16 0 27 10z" />
    <glyph glyph-name="dieresis" unicode="&#xa8;" horiz-adv-x="556" 
d="M230.5 651.5q7.5 -6.5 7.5 -22.5v-65q0 -16 -7.5 -22.5t-21.5 -6.5h-110q-15 0 -22 6t-7 23v65q0 17 7 23t22 6h110q14 0 21.5 -6.5zM478 651.5q7 -6.5 7 -22.5v-65q0 -16 -7 -22.5t-22 -6.5h-110q-15 0 -22 6.5t-7 22.5v65q0 16 7 22.5t22 6.5h110q15 0 22 -6.5z" />
    <glyph glyph-name="guillemotleft" unicode="&#xab;" horiz-adv-x="473" 
d="M190 490q6 0 10.5 -4.5t4.5 -12.5v-88q0 -18 -21 -35l-62 -51l62 -51q10 -8 15.5 -15.5t5.5 -18.5v-89q0 -7 -4.5 -11.5t-10.5 -4.5t-11 5l-137 119q-12 11 -12 27v78q0 17 12 27l137 120q5 5 11 5zM392 350l-62 -51l62 -51q10 -8 15.5 -15.5t5.5 -18.5v-89
q0 -7 -4.5 -11.5t-10.5 -4.5t-11 5l-137 119q-12 11 -12 27v78q0 17 12 27l137 120q5 5 11 5t10.5 -4.5t4.5 -12.5v-88q0 -18 -21 -35z" />
    <glyph glyph-name="degree" unicode="&#xb0;" horiz-adv-x="392" 
d="M89.5 632q42.5 42 106.5 42q65 0 107 -42t42 -107q0 -64 -42 -106.5t-107 -42.5q-64 0 -106.5 42.5t-42.5 106.5q0 65 42.5 107zM145.5 474.5q20.5 -20.5 50.5 -20.5t50.5 20.5t20.5 50.5t-20.5 50.5t-50.5 20.5t-50.5 -20.5t-20.5 -50.5t20.5 -50.5z" />
    <glyph glyph-name="plusminus" unicode="&#xb1;" horiz-adv-x="561" 
d="M505 347.5q7 -6.5 7 -22.5v-69q0 -16 -7 -22.5t-22 -6.5h-139v-100h139q15 0 22 -6.5t7 -22.5v-69q0 -16 -7 -22.5t-22 -6.5h-405q-15 0 -22 6.5t-7 22.5v69q0 16 7 22.5t22 6.5h139v100h-139q-15 0 -22 6.5t-7 22.5v69q0 16 7 22.5t22 6.5h139v89q0 15 6.5 22t22.5 7h69
q16 0 22.5 -7t6.5 -22v-89h139q15 0 22 -6.5z" />
    <glyph glyph-name="acute" unicode="&#xb4;" horiz-adv-x="556" 
d="M207.5 498.5q-4.5 4.5 -4.5 11.5q0 6 4 12l67 108q11 18 19.5 23t25.5 5h127q12 0 18 -5t6 -12q0 -6 -5 -11l-100 -108q-3 -3 -11 -11.5t-16 -12.5t-20 -4h-98q-8 0 -12.5 4.5z" />
    <glyph glyph-name="uni00B5" unicode="&#xb5;" horiz-adv-x="767" 
d="M686.5 652q6.5 -7 6.5 -22v-601q0 -16 -7 -22.5t-22 -6.5h-96q-15 0 -22 6.5t-7 22.5v339l-100 -175q-13 -21 -29 -21h-50q-10 0 -16 6t-12 15l-101 175v-339q0 -16 -7 -22.5t-22 -6.5h-99q-15 0 -22 6.5t-7 22.5v601q0 15 6.5 22t22.5 7h99q18 0 26.5 -7t13 -15.5
t6.5 -11.5l137 -246l138 246q2 3 6.5 12.5t14 15.5t24.5 6h96q16 0 22.5 -7z" />
    <glyph glyph-name="paragraph" unicode="&#xb6;" horiz-adv-x="833" 
d="M617.5 652q8.5 -6 8.5 -23v-600q0 -16 -7 -22.5t-22 -6.5h-69q-15 0 -22 6.5t-7 22.5v512h-78v-512q0 -16 -7 -22.5t-22 -6.5h-69q-15 0 -22 6.5t-7 22.5v259h-32q-35 0 -65.5 17.5t-48 48t-17.5 65.5v108q0 35 19.5 65t50 48t60.5 18h326q22 0 30.5 -6z" />
    <glyph glyph-name="periodcentered" unicode="&#xb7;" horiz-adv-x="294" 
d="M86 307q29 29 70 29t70 -29t29 -70t-29 -70t-70 -29t-70 29t-29 70t29 70z" />
    <glyph glyph-name="cedilla" unicode="&#xb8;" horiz-adv-x="500" 
d="M344 36q0 -6 -3 -11l-30 -69q49 -5 75.5 -36.5t26.5 -73.5q0 -32 -16 -62t-46.5 -49t-71.5 -19h-67q-61 0 -96 37q-15 15 -15 33q0 19 15 34t35 15q18 0 32 -14q15 -13 31 -13h63q16 0 25 11.5t9 26.5t-9 26.5t-25 12.5h-72q-17 0 -17 14q0 6 3 14l33 66q20 42 29.5 56.5
t20.5 14.5h55q15 0 15 -14z" />
    <glyph glyph-name="guillemotright" unicode="&#xbb;" horiz-adv-x="473" 
d="M64.5 485.5q4.5 4.5 10.5 4.5t11 -5l137 -120q12 -10 12 -27v-78q0 -16 -12 -27l-137 -119q-5 -5 -11 -5t-10.5 4.5t-4.5 11.5v89q0 11 5.5 18.5t15.5 15.5l62 51l-62 51q-21 17 -21 35v88q0 8 4.5 12.5zM443 338v-78q0 -16 -12 -27l-137 -119q-5 -5 -11 -5t-10.5 4.5
t-4.5 11.5v89q0 11 5.5 18.5t15.5 15.5l62 51l-62 51q-21 17 -21 35v88q0 8 4.5 12.5t10.5 4.5t11 -5l137 -120q12 -10 12 -27z" />
    <glyph glyph-name="questiondown" unicode="&#xbf;" horiz-adv-x="538" 
d="M197 335.5q-7 6.5 -7 22.5v111q0 16 7 22.5t22 6.5h111q15 0 22 -6.5t7 -22.5v-111q0 -16 -7 -22.5t-22 -6.5h-111q-15 0 -22 6.5zM494 47.5q3 -6.5 3 -24.5q-5 -46 -28 -90.5t-73.5 -75.5t-130.5 -31q-62 0 -114.5 20t-84.5 61.5t-32 101.5q0 46 24 77t63 59
q37 25 57 48.5t20 61.5q0 18 6.5 25t25.5 7h83q18 0 25 -8t7 -24q0 -52 -12.5 -85t-40.5 -62q-15 -15 -45 -32q-27 -17 -39.5 -29.5t-12.5 -31.5q0 -24 20.5 -39.5t48.5 -15.5q35 0 57 19.5t28 43.5q3 15 9 23t22 8h100q11 0 14 -6.5z" />
    <glyph glyph-name="Agrave" unicode="&#xc0;" 
d="M253 721q-8 5 -15 12.5t-10 10.5l-100 108q-5 5 -5 11q0 7 6 12t18 5h127q17 0 25.5 -5t19.5 -23l67 -108q4 -6 4 -12q0 -7 -4.5 -11.5t-12.5 -4.5h-98q-14 0 -22 5zM643 16q0 -16 -20 -16h-105q-17 0 -24.5 6t-13.5 24l-28 79h-245l-28 -79q-6 -18 -13.5 -24t-24.5 -6
h-105q-20 0 -20 16q0 6 3 12l222 599q6 16 15.5 23.5t25.5 7.5h96q16 0 25 -7.5t16 -23.5l221 -599q3 -6 3 -12zM330 470l-75 -221h150z" />
    <glyph glyph-name="Aacute" unicode="&#xc1;" 
d="M271.5 720.5q-4.5 4.5 -4.5 11.5q0 6 4 12l67 108q11 18 19.5 23t25.5 5h127q12 0 18 -5t6 -12q0 -6 -5 -11l-100 -108q-3 -3 -11 -11.5t-16 -12.5t-20 -4h-98q-8 0 -12.5 4.5zM643 16q0 -16 -20 -16h-105q-17 0 -24.5 6t-13.5 24l-28 79h-245l-28 -79q-6 -18 -13.5 -24
t-24.5 -6h-105q-20 0 -20 16q0 6 3 12l222 599q6 16 15.5 23.5t25.5 7.5h96q16 0 25 -7.5t16 -23.5l221 -599q3 -6 3 -12zM330 470l-75 -221h150z" />
    <glyph glyph-name="Acircumflex" unicode="&#xc2;" 
d="M397.5 721.5q-7.5 5.5 -15.5 15.5l-51 62l-51 -62q-17 -21 -35 -21h-88q-8 0 -12.5 4.5t-4.5 10.5t5 11l120 137q11 12 27 12h78q17 0 27 -12l119 -137q5 -5 5 -11t-4.5 -10.5t-11.5 -4.5h-89q-11 0 -18.5 5.5zM643 16q0 -16 -20 -16h-105q-17 0 -24.5 6t-13.5 24l-28 79
h-245l-28 -79q-6 -18 -13.5 -24t-24.5 -6h-105q-20 0 -20 16q0 6 3 12l222 599q6 16 15.5 23.5t25.5 7.5h96q16 0 25 -7.5t16 -23.5l221 -599q3 -6 3 -12zM330 470l-75 -221h150z" />
    <glyph glyph-name="Atilde" unicode="&#xc3;" 
d="M524 827v-1q0 -46 -30 -78t-78 -32q-31 0 -81 18q-60 21 -71 23t-21 -3.5t-14 -19.5q-3 -9 -8 -13.5t-17 -4.5h-46q-12 0 -12 20v1q0 46 30 78t78 32q32 0 81 -18q60 -21 71 -23t21 3.5t14 19.5q3 9 8 13.5t17 4.5h46q12 0 12 -20zM643 16q0 -16 -20 -16h-105
q-17 0 -24.5 6t-13.5 24l-28 79h-245l-28 -79q-6 -18 -13.5 -24t-24.5 -6h-105q-20 0 -20 16q0 6 3 12l222 599q6 16 15.5 23.5t25.5 7.5h96q16 0 25 -7.5t16 -23.5l221 -599q3 -6 3 -12zM330 470l-75 -221h150z" />
    <glyph glyph-name="Adieresis" unicode="&#xc4;" 
d="M279.5 832.5q7.5 -6.5 7.5 -22.5v-65q0 -16 -7.5 -22.5t-21.5 -6.5h-110q-15 0 -22 6t-7 23v65q0 17 7 23t22 6h110q14 0 21.5 -6.5zM527 832.5q7 -6.5 7 -22.5v-65q0 -16 -7 -22.5t-22 -6.5h-110q-15 0 -22 6.5t-7 22.5v65q0 16 7 22.5t22 6.5h110q15 0 22 -6.5zM643 16
q0 -16 -20 -16h-105q-17 0 -24.5 6t-13.5 24l-28 79h-245l-28 -79q-6 -18 -13.5 -24t-24.5 -6h-105q-20 0 -20 16q0 6 3 12l222 599q6 16 15.5 23.5t25.5 7.5h96q16 0 25 -7.5t16 -23.5l221 -599q3 -6 3 -12zM330 470l-75 -221h150z" />
    <glyph glyph-name="Aring" unicode="&#xc5;" 
d="M643 16q0 -16 -20 -16h-105q-17 0 -24.5 6t-13.5 24l-28 79h-245l-28 -79q-6 -18 -13.5 -24t-24.5 -6h-105q-20 0 -20 16q0 6 3 12l222 599q5 12 10 19q-17 15 -26.5 37t-9.5 46q0 46 33.5 79t79.5 33t79 -33t33 -79q0 -23 -9 -44.5t-25 -36.5q7 -7 13 -21l221 -599
q3 -6 3 -12zM291 692q16 -16 37 -16t36.5 16t15.5 37q0 20 -16 36t-36 16q-21 0 -37 -15.5t-16 -36.5t16 -37zM330 470l-75 -221h150z" />
    <glyph glyph-name="AE" unicode="&#xc6;" horiz-adv-x="970" 
d="M917.5 133q6.5 -7 6.5 -22v-82q0 -15 -6.5 -22t-22.5 -7h-424q-14 0 -21.5 5t-7.5 19v85h-212l-38 -79q-9 -16 -18.5 -23t-26.5 -7h-117q-7 0 -11.5 5t-4.5 12t2 11l284 591q10 20 22 30t31 10h525q16 0 22.5 -7t6.5 -22v-82q0 -15 -6.5 -22t-22.5 -7h-286v-111h252
q16 0 22.5 -7t6.5 -22v-78q0 -15 -6.5 -22t-22.5 -7h-252v-132h303q16 0 22.5 -7zM410 520l-122 -270h154v270h-32z" />
    <glyph glyph-name="Ccedilla" unicode="&#xc7;" horiz-adv-x="632" 
d="M525.5 65q-55.5 -54 -136.5 -72l-17 -39q49 -5 75.5 -36.5t26.5 -73.5q0 -32 -16 -62t-46.5 -49t-71.5 -19h-67q-61 0 -96 37q-15 15 -15 33q0 19 15 34t35 15q18 0 32 -14q15 -13 31 -13h63q16 0 25 11.5t9 26.5t-9 26.5t-25 12.5h-72q-17 0 -17 14q0 6 3 14l25 50
q4 10 12 26q-60 6 -114 32.5t-88 75t-34 116.5v236q0 74 40.5 125t102 76t125.5 25t121 -21.5t95 -64.5t44 -104q0 -18 -6.5 -23.5t-24.5 -5.5h-96q-10 0 -15 5t-8.5 13t-6.5 13q-16 25 -39.5 36.5t-63.5 11.5q-50 0 -80.5 -26.5t-30.5 -73.5v-208q0 -47 30.5 -73.5
t80.5 -26.5q43 0 71 17t34 51q3 19 7.5 27.5t19.5 8.5h98q16 0 23 -8t7 -26q0 -76 -55.5 -130z" />
    <glyph glyph-name="Egrave" unicode="&#xc8;" horiz-adv-x="627" 
d="M272 721q-8 5 -15 12.5t-10 10.5l-100 108q-5 5 -5 11q0 7 6 12t18 5h127q17 0 25.5 -5t19.5 -23l67 -108q4 -6 4 -12q0 -7 -4.5 -11.5t-12.5 -4.5h-98q-14 0 -22 5zM573.5 133q6.5 -7 6.5 -22v-82q0 -15 -6.5 -22t-22.5 -7h-448q-16 0 -22.5 7t-6.5 22v600q0 15 6.5 22
t22.5 7h431q16 0 22.5 -7t6.5 -22v-83q0 -15 -6.5 -22t-22.5 -7h-302v-109h268q16 0 22.5 -7t6.5 -22v-78q0 -15 -6.5 -22t-22.5 -7h-268v-132h319q16 0 22.5 -7z" />
    <glyph glyph-name="Eacute" unicode="&#xc9;" horiz-adv-x="627" 
d="M241.5 720.5q-4.5 4.5 -4.5 11.5q0 6 4 12l67 108q11 18 19.5 23t25.5 5h127q12 0 18 -5t6 -12q0 -6 -5 -11l-100 -108q-3 -3 -11 -11.5t-16 -12.5t-20 -4h-98q-8 0 -12.5 4.5zM573.5 133q6.5 -7 6.5 -22v-82q0 -15 -6.5 -22t-22.5 -7h-448q-16 0 -22.5 7t-6.5 22v600
q0 15 6.5 22t22.5 7h431q16 0 22.5 -7t6.5 -22v-83q0 -15 -6.5 -22t-22.5 -7h-302v-109h268q16 0 22.5 -7t6.5 -22v-78q0 -15 -6.5 -22t-22.5 -7h-268v-132h319q16 0 22.5 -7z" />
    <glyph glyph-name="Ecircumflex" unicode="&#xca;" horiz-adv-x="627" 
d="M393.5 721.5q-7.5 5.5 -15.5 15.5l-51 62l-51 -62q-17 -21 -35 -21h-88q-8 0 -12.5 4.5t-4.5 10.5t5 11l120 137q10 12 27 12h78q17 0 27 -12l119 -137q5 -5 5 -11t-4.5 -10.5t-11.5 -4.5h-89q-11 0 -18.5 5.5zM573.5 133q6.5 -7 6.5 -22v-82q0 -15 -6.5 -22t-22.5 -7
h-448q-16 0 -22.5 7t-6.5 22v600q0 15 6.5 22t22.5 7h431q16 0 22.5 -7t6.5 -22v-83q0 -15 -6.5 -22t-22.5 -7h-302v-109h268q16 0 22.5 -7t6.5 -22v-78q0 -15 -6.5 -22t-22.5 -7h-268v-132h319q16 0 22.5 -7z" />
    <glyph glyph-name="Edieresis" unicode="&#xcb;" horiz-adv-x="627" 
d="M273.5 832.5q7.5 -6.5 7.5 -22.5v-65q0 -16 -7.5 -22.5t-21.5 -6.5h-110q-15 0 -22 6t-7 23v65q0 17 7 23t22 6h110q14 0 21.5 -6.5zM521 832.5q7 -6.5 7 -22.5v-65q0 -16 -7 -22.5t-22 -6.5h-110q-15 0 -22 6.5t-7 22.5v65q0 16 7 22.5t22 6.5h110q15 0 22 -6.5z
M573.5 133q6.5 -7 6.5 -22v-82q0 -15 -6.5 -22t-22.5 -7h-448q-16 0 -22.5 7t-6.5 22v600q0 15 6.5 22t22.5 7h431q16 0 22.5 -7t6.5 -22v-83q0 -15 -6.5 -22t-22.5 -7h-302v-109h268q16 0 22.5 -7t6.5 -22v-78q0 -15 -6.5 -22t-22.5 -7h-268v-132h319q16 0 22.5 -7z" />
    <glyph glyph-name="Igrave" unicode="&#xcc;" horiz-adv-x="488" 
d="M186 721q-8 5 -15 12.5t-10 10.5l-100 108q-5 5 -5 11q0 7 6 12t18 5h127q17 0 25.5 -5t19.5 -23l67 -108q4 -6 4 -12q0 -7 -4.5 -11.5t-12.5 -4.5h-98q-14 0 -22 5zM425.5 133q6.5 -7 6.5 -22v-82q0 -15 -6.5 -22t-22.5 -7h-311q-16 0 -22.5 7t-6.5 22v82q0 15 6.5 22
t22.5 7h77v378h-61q-16 0 -22.5 7t-6.5 22v82q0 15 6.5 22t22.5 7h278q16 0 22.5 -7t6.5 -22v-82q0 -15 -6.5 -22t-22.5 -7h-60v-378h77q16 0 22.5 -7z" />
    <glyph glyph-name="Iacute" unicode="&#xcd;" horiz-adv-x="484" 
d="M165.5 720.5q-4.5 4.5 -4.5 11.5q0 6 4 12l67 108q11 18 19.5 23t25.5 5h127q12 0 18 -5t6 -12q0 -6 -5 -11l-100 -108q-3 -3 -11 -11.5t-16 -12.5t-20 -4h-98q-8 0 -12.5 4.5zM418.5 133q6.5 -7 6.5 -22v-82q0 -15 -6.5 -22t-22.5 -7h-311q-16 0 -22.5 7t-6.5 22v82
q0 15 6.5 22t22.5 7h77v378h-61q-16 0 -22.5 7t-6.5 22v82q0 15 6.5 22t22.5 7h278q16 0 22.5 -7t6.5 -22v-82q0 -15 -6.5 -22t-22.5 -7h-60v-378h77q16 0 22.5 -7z" />
    <glyph glyph-name="Icircumflex" unicode="&#xce;" horiz-adv-x="494" 
d="M314.5 721.5q-7.5 5.5 -15.5 15.5l-51 62l-51 -62q-17 -21 -35 -21h-88q-8 0 -12.5 4.5t-4.5 10.5t5 11l120 137q11 12 27 12h78q17 0 27 -12l119 -137q5 -5 5 -11t-4.5 -10.5t-11.5 -4.5h-89q-11 0 -18.5 5.5zM418.5 133q6.5 -7 6.5 -22v-82q0 -15 -6.5 -22t-22.5 -7
h-311q-16 0 -22.5 7t-6.5 22v82q0 15 6.5 22t22.5 7h77v378h-61q-16 0 -22.5 7t-6.5 22v82q0 15 6.5 22t22.5 7h278q16 0 22.5 -7t6.5 -22v-82q0 -15 -6.5 -22t-22.5 -7h-60v-378h77q16 0 22.5 -7z" />
    <glyph glyph-name="Idieresis" unicode="&#xcf;" horiz-adv-x="527" 
d="M216.5 832.5q7.5 -6.5 7.5 -22.5v-65q0 -16 -7.5 -22.5t-21.5 -6.5h-110q-15 0 -22 6t-7 23v65q0 17 7 23t22 6h110q14 0 21.5 -6.5zM464 832.5q7 -6.5 7 -22.5v-65q0 -16 -7 -22.5t-22 -6.5h-110q-15 0 -22 6.5t-7 22.5v65q0 16 7 22.5t22 6.5h110q15 0 22 -6.5z
M441.5 133q6.5 -7 6.5 -22v-82q0 -15 -6.5 -22t-22.5 -7h-311q-16 0 -22.5 7t-6.5 22v82q0 15 6.5 22t22.5 7h77v378h-61q-16 0 -22.5 7t-6.5 22v82q0 15 6.5 22t22.5 7h278q16 0 22.5 -7t6.5 -22v-82q0 -15 -6.5 -22t-22.5 -7h-60v-378h77q16 0 22.5 -7z" />
    <glyph glyph-name="Eth" unicode="&#xd0;" horiz-adv-x="650" 
d="M453 633q62 -25 102.5 -76t40.5 -124v-208q0 -74 -40.5 -125t-102.5 -75.5t-126 -24.5h-224q-16 0 -22.5 7t-6.5 22v226h-41q-15 0 -22 6.5t-7 22.5v74q0 16 7 22.5t22 6.5h41v242q0 15 6.5 22t22.5 7h224q64 0 126 -25zM310 380.5q7 -6.5 7 -22.5v-74q0 -16 -7 -22.5
t-22 -6.5h-57v-116h96q51 0 81.5 26.5t30.5 73.5v180q0 47 -31 73.5t-81 26.5h-96v-132h57q15 0 22 -6.5z" />
    <glyph glyph-name="Ntilde" unicode="&#xd1;" horiz-adv-x="682" 
d="M543 827v-1q0 -46 -30 -78t-78 -32q-31 0 -81 18q-60 21 -71 23t-21 -3.5t-14 -19.5q-3 -9 -8 -13.5t-17 -4.5h-46q-12 0 -12 20v1q0 46 30 78t78 32q32 0 81 -18q60 -21 71 -23t21 3.5t14 19.5q3 9 8 13.5t17 4.5h46q12 0 12 -20zM601 651.5q7 -6.5 7 -22.5v-600
q0 -15 -6.5 -22t-22.5 -7h-91q-17 0 -24.5 7t-20.5 27l-212 343v-348q0 -16 -7 -22.5t-22 -6.5h-99q-15 0 -22 6.5t-7 22.5v600q0 15 6.5 22t22.5 7h94q17 0 24.5 -7t20.5 -27l212 -342v347q0 16 7 22.5t22 6.5h96q15 0 22 -6.5z" />
    <glyph glyph-name="Ograve" unicode="&#xd2;" horiz-adv-x="645" 
d="M296 721q-8 5 -15 12.5t-10 10.5l-100 108q-5 5 -5 11q0 7 6 12t18 5h127q17 0 25.5 -5t19.5 -23l67 -108q4 -6 4 -12q0 -7 -4.5 -11.5t-12.5 -4.5h-98q-14 0 -22 5zM550.5 86q-40.5 -51 -102.5 -76t-126 -25t-125.5 24.5t-101.5 76t-40 125.5v236q0 74 40 125.5
t101.5 76t125.5 24.5t126 -25t102.5 -76t40.5 -125v-236q0 -74 -40.5 -125zM403 507q-31 27 -81 27t-80.5 -27t-30.5 -74v-208q0 -47 30.5 -74t80.5 -27t81 27t31 74v208q0 47 -31 74z" />
    <glyph glyph-name="Oacute" unicode="&#xd3;" horiz-adv-x="645" 
d="M215.5 720.5q-4.5 4.5 -4.5 11.5q0 6 4 12l67 108q11 18 19.5 23t25.5 5h127q12 0 18 -5t6 -12q0 -6 -5 -11l-100 -108q-3 -3 -11 -11.5t-16 -12.5t-20 -4h-98q-8 0 -12.5 4.5zM550.5 86q-40.5 -51 -102.5 -76t-126 -25t-125.5 24.5t-101.5 76t-40 125.5v236
q0 74 40 125.5t101.5 76t125.5 24.5t126 -25t102.5 -76t40.5 -125v-236q0 -74 -40.5 -125zM403 507q-31 27 -81 27t-80.5 -27t-30.5 -74v-208q0 -47 30.5 -74t80.5 -27t81 27t31 74v208q0 47 -31 74z" />
    <glyph glyph-name="Ocircumflex" unicode="&#xd4;" horiz-adv-x="645" 
d="M389.5 721.5q-7.5 5.5 -15.5 15.5l-51 62l-51 -62q-17 -21 -35 -21h-88q-8 0 -12.5 4.5t-4.5 10.5t5 11l120 137q11 12 27 12h78q16 0 27 -12l119 -137q5 -5 5 -11t-4.5 -10.5t-11.5 -4.5h-89q-11 0 -18.5 5.5zM550.5 572q-40.5 51 -102.5 76t-126 25t-125.5 -24.5
t-101.5 -76t-40 -125.5v-236q0 -74 40 -125.5t101.5 -76t125.5 -24.5t126 25t102.5 76t40.5 125v236q0 74 -40.5 125zM403 151q-31 -27 -81 -27t-80.5 27t-30.5 74v208q0 47 30.5 74t80.5 27t81 -27t31 -74v-208q0 -47 -31 -74z" />
    <glyph glyph-name="Otilde" unicode="&#xd5;" horiz-adv-x="645" 
d="M511 827v-1q0 -46 -30 -78t-78 -32q-31 0 -81 18q-60 21 -71 23t-21 -3.5t-14 -19.5q-3 -9 -8 -13.5t-17 -4.5h-46q-12 0 -12 20v1q0 46 30 78t78 32q32 0 81 -18q60 -21 71 -23t21 3.5t14 19.5q3 9 8 13.5t17 4.5h46q12 0 12 -20zM550.5 572q-40.5 51 -102.5 76t-126 25
t-125.5 -24.5t-101.5 -76t-40 -125.5v-236q0 -74 40 -125.5t101.5 -76t125.5 -24.5t126 25t102.5 76t40.5 125v236q0 74 -40.5 125zM403 151q-31 -27 -81 -27t-80.5 27t-30.5 74v208q0 47 30.5 74t80.5 27t81 -27t31 -74v-208q0 -47 -31 -74z" />
    <glyph glyph-name="Odieresis" unicode="&#xd6;" horiz-adv-x="645" 
d="M274.5 832.5q7.5 -6.5 7.5 -22.5v-65q0 -16 -7.5 -22.5t-21.5 -6.5h-110q-15 0 -22 6t-7 23v65q0 17 7 23t22 6h110q14 0 21.5 -6.5zM522 832.5q7 -6.5 7 -22.5v-65q0 -16 -7 -22.5t-22 -6.5h-110q-15 0 -22 6.5t-7 22.5v65q0 16 7 22.5t22 6.5h110q15 0 22 -6.5z
M550.5 572q-40.5 51 -102.5 76t-126 25t-125.5 -24.5t-101.5 -76t-40 -125.5v-236q0 -74 40 -125.5t101.5 -76t125.5 -24.5t126 25t102.5 76t40.5 125v236q0 74 -40.5 125zM403 151q-31 -27 -81 -27t-80.5 27t-30.5 74v208q0 47 30.5 74t80.5 27t81 -27t31 -74v-208
q0 -47 -31 -74z" />
    <glyph glyph-name="multiply" unicode="&#xd7;" horiz-adv-x="538" 
d="M495 175q0 -10 -11 -20l-55 -56q-11 -11 -20 -11q-8 0 -21 11l-119 120l-120 -120q-11 -11 -20 -11q-8 0 -21 11l-55 56q-11 11 -11 20q0 8 11 21l120 119l-120 119q-11 13 -11 21q0 9 11 20l55 56q13 11 21 11q9 0 20 -11l120 -120l119 120q13 11 21 11q9 0 20 -11
l55 -56q11 -10 11 -20t-11 -21l-119 -119l119 -119q11 -11 11 -21z" />
    <glyph glyph-name="Oslash" unicode="&#xd8;" horiz-adv-x="645" 
d="M550.5 86q-40.5 -51 -102.5 -76t-126 -25q-37 0 -76 9l-20 -53q-5 -12 -11.5 -19.5t-19.5 -7.5h-63q-13 0 -18.5 6t-5.5 14q0 6 1 8l37 95q-42 30 -66.5 73.5t-24.5 100.5v236q0 74 40 125.5t101.5 76t125.5 24.5q33 0 71 -8l24 61q5 12 11.5 19.5t19.5 7.5h62
q13 0 18.5 -6t5.5 -14q0 -6 -1 -8l-40 -101q45 -30 71.5 -74.5t26.5 -102.5v-236q0 -74 -40.5 -125zM212 205l129 328l-19 1q-50 0 -80.5 -27t-30.5 -74v-208q0 -14 1 -20zM430 463l-132 -338q7 -1 24 -1q50 0 81 27t31 74v208q0 18 -4 30z" />
    <glyph glyph-name="Ugrave" unicode="&#xd9;" horiz-adv-x="661" 
d="M296 721q-8 5 -15 12.5t-10 10.5l-100 108q-5 5 -5 11q0 7 6 12t18 5h127q17 0 25.5 -5t19.5 -23l67 -108q4 -6 4 -12q0 -7 -4.5 -11.5t-12.5 -4.5h-98q-14 0 -22 5zM588 651.5q7 -6.5 7 -22.5v-428q0 -74 -39.5 -122.5t-100 -71t-125.5 -22.5t-125 22.5t-99.5 71
t-39.5 122.5v428q0 16 7 22.5t22 6.5h99q15 0 22 -6.5t7 -22.5v-406q0 -47 28.5 -73t78.5 -26t79 26t29 73v406q0 16 7 22.5t22 6.5h99q15 0 22 -6.5z" />
    <glyph glyph-name="Uacute" unicode="&#xda;" horiz-adv-x="661" 
d="M227.5 720.5q-4.5 4.5 -4.5 11.5q0 6 4 12l67 108q11 18 19.5 23t25.5 5h127q12 0 18 -5t6 -12q0 -6 -5 -11l-100 -108q-3 -3 -11 -11.5t-16 -12.5t-20 -4h-98q-8 0 -12.5 4.5zM588 651.5q7 -6.5 7 -22.5v-428q0 -74 -39.5 -122.5t-100 -71t-125.5 -22.5t-125 22.5
t-99.5 71t-39.5 122.5v428q0 16 7 22.5t22 6.5h99q15 0 22 -6.5t7 -22.5v-406q0 -47 28.5 -73t78.5 -26t79 26t29 73v406q0 16 7 22.5t22 6.5h99q15 0 22 -6.5z" />
    <glyph glyph-name="Ucircumflex" unicode="&#xdb;" horiz-adv-x="661" 
d="M396.5 721.5q-7.5 5.5 -15.5 15.5l-51 62l-51 -62q-17 -21 -35 -21h-88q-8 0 -12.5 4.5t-4.5 10.5t5 11l120 137q11 12 27 12h78q16 0 27 -12l119 -137q5 -5 5 -11t-4.5 -10.5t-11.5 -4.5h-89q-11 0 -18.5 5.5zM588 651.5q7 -6.5 7 -22.5v-428q0 -74 -39.5 -122.5
t-100 -71t-125.5 -22.5t-125 22.5t-99.5 71t-39.5 122.5v428q0 16 7 22.5t22 6.5h99q15 0 22 -6.5t7 -22.5v-406q0 -47 28.5 -73t78.5 -26t79 26t29 73v406q0 16 7 22.5t22 6.5h99q15 0 22 -6.5z" />
    <glyph glyph-name="Udieresis" unicode="&#xdc;" horiz-adv-x="661" 
d="M283.5 832.5q7.5 -6.5 7.5 -22.5v-65q0 -16 -7.5 -22.5t-21.5 -6.5h-110q-15 0 -22 6t-7 23v65q0 17 7 23t22 6h110q14 0 21.5 -6.5zM531 832.5q7 -6.5 7 -22.5v-65q0 -16 -7 -22.5t-22 -6.5h-110q-15 0 -22 6.5t-7 22.5v65q0 16 7 22.5t22 6.5h110q15 0 22 -6.5z
M588 651.5q7 -6.5 7 -22.5v-428q0 -74 -39.5 -122.5t-100 -71t-125.5 -22.5t-125 22.5t-99.5 71t-39.5 122.5v428q0 16 7 22.5t22 6.5h99q15 0 22 -6.5t7 -22.5v-406q0 -47 28.5 -73t78.5 -26t79 26t29 73v406q0 16 7 22.5t22 6.5h99q15 0 22 -6.5z" />
    <glyph glyph-name="Yacute" unicode="&#xdd;" horiz-adv-x="604" 
d="M230.5 720.5q-4.5 4.5 -4.5 11.5q0 6 4 12l67 108q11 18 19.5 23t25.5 5h127q12 0 18 -5t6 -12q0 -6 -5 -11l-100 -108q-3 -3 -11 -11.5t-16 -12.5t-20 -4h-98q-8 0 -12.5 4.5zM593 641q0 -5 -2 -11l-206 -383v-218q0 -16 -7 -22.5t-22 -6.5h-100q-15 0 -22 6t-7 23v218
l-214 383q-2 6 -2 11q0 17 18 17h115q18 0 27.5 -5.5t19.5 -24.5l117 -215l113 215q9 19 18.5 24.5t27.5 5.5h108q18 0 18 -17z" />
    <glyph glyph-name="Thorn" unicode="&#xde;" horiz-adv-x="628" 
d="M522 500q68 -63 68 -169t-68.5 -168.5t-194.5 -62.5h-96v-71q0 -16 -7 -22.5t-22 -6.5h-99q-15 0 -22 6.5t-7 22.5v602q0 16 7 22.5t22 6.5h99q15 0 22 -6.5t7 -22.5v-68h97q126 0 194 -63zM410.5 261.5q28.5 26.5 28.5 66.5q0 42 -28 68t-84 26h-96v-187h96
q55 0 83.5 26.5z" />
    <glyph glyph-name="germandbls" unicode="&#xdf;" horiz-adv-x="658" 
d="M547 326.5q21 -16.5 40 -49.5t19 -81q0 -93 -65.5 -143.5t-172.5 -50.5h-25h-31q-16 0 -22.5 7t-6.5 22v84q0 15 6.5 22t22.5 7h61q38 0 58.5 17t20.5 50q0 32 -23 47.5t-58 15.5h-27q-16 0 -22.5 7t-6.5 22v76q0 15 6.5 22t22.5 7h15q83 0 83 62q0 29 -21.5 43.5
t-61.5 14.5q-66 0 -97.5 -30.5t-31.5 -98.5v-485q0 -16 -7 -22.5t-22 -6.5h-98q-15 0 -22 6.5t-7 22.5v516q1 74 38.5 128t100.5 82.5t141 28.5t130.5 -25.5t78 -67t25.5 -90.5q0 -45 -14.5 -75.5t-31.5 -45t-27 -18.5q11 -4 32 -20.5z" />
    <glyph glyph-name="agrave" unicode="&#xe0;" 
d="M267 749q-8 5 -15 12.5t-10 10.5l-100 108q-5 5 -5 11q0 7 6 12t18 5h127q17 0 25.5 -5t19.5 -23l67 -108q4 -6 4 -12q0 -7 -4.5 -11.5t-12.5 -4.5h-98q-14 0 -22 5zM643 16q0 -16 -20 -16h-105q-17 0 -24.5 6t-13.5 24l-28 79h-245l-28 -79q-6 -18 -13.5 -24t-24.5 -6
h-105q-20 0 -20 16q0 6 3 12l222 599q6 16 15.5 23.5t25.5 7.5h96q16 0 25 -7.5t16 -23.5l221 -599q3 -6 3 -12zM330 470l-75 -221h150z" />
    <glyph glyph-name="aacute" unicode="&#xe1;" 
d="M255.5 744.5q-4.5 4.5 -4.5 11.5q0 6 4 12l67 108q11 18 19.5 23t25.5 5h127q12 0 18 -5t6 -12q0 -6 -5 -11l-100 -108q-3 -3 -11 -11.5t-16 -12.5t-20 -4h-98q-8 0 -12.5 4.5zM643 16q0 -16 -20 -16h-105q-17 0 -24.5 6t-13.5 24l-28 79h-245l-28 -79q-6 -18 -13.5 -24
t-24.5 -6h-105q-20 0 -20 16q0 6 3 12l222 599q6 16 15.5 23.5t25.5 7.5h96q16 0 25 -7.5t16 -23.5l221 -599q3 -6 3 -12zM330 470l-75 -221h150z" />
    <glyph glyph-name="acircumflex" unicode="&#xe2;" 
d="M400.5 742.5q-7.5 5.5 -15.5 15.5l-51 62l-51 -62q-17 -21 -35 -21h-88q-8 0 -12.5 4.5t-4.5 10.5t5 11l120 137q10 12 27 12h78q17 0 27 -12l119 -137q5 -5 5 -11t-4.5 -10.5t-11.5 -4.5h-89q-11 0 -18.5 5.5zM643 16q0 -16 -20 -16h-105q-17 0 -24.5 6t-13.5 24l-28 79
h-245l-28 -79q-6 -18 -13.5 -24t-24.5 -6h-105q-20 0 -20 16q0 6 3 12l222 599q6 16 15.5 23.5t25.5 7.5h96q16 0 25 -7.5t16 -23.5l221 -599q3 -6 3 -12zM330 470l-75 -221h150z" />
    <glyph glyph-name="atilde" unicode="&#xe3;" 
d="M514 844v-1q0 -46 -30 -78t-78 -32q-31 0 -81 18q-60 21 -71 23t-21 -3.5t-14 -19.5q-3 -9 -8 -13.5t-17 -4.5h-46q-12 0 -12 20v1q0 46 30 78t78 32q32 0 81 -18q60 -21 71 -23t21 3.5t14 19.5q3 9 8 13.5t17 4.5h46q12 0 12 -20zM643 16q0 -16 -20 -16h-105
q-17 0 -24.5 6t-13.5 24l-28 79h-245l-28 -79q-6 -18 -13.5 -24t-24.5 -6h-105q-20 0 -20 16q0 6 3 12l222 599q6 16 15.5 23.5t25.5 7.5h96q16 0 25 -7.5t16 -23.5l221 -599q3 -6 3 -12zM330 470l-75 -221h150z" />
    <glyph glyph-name="adieresis" unicode="&#xe4;" 
d="M284.5 859.5q7.5 -6.5 7.5 -22.5v-65q0 -16 -7.5 -22.5t-21.5 -6.5h-110q-15 0 -22 6t-7 23v65q0 17 7 23t22 6h110q14 0 21.5 -6.5zM532 859.5q7 -6.5 7 -22.5v-65q0 -16 -7 -22.5t-22 -6.5h-110q-15 0 -22 6.5t-7 22.5v65q0 16 7 22.5t22 6.5h110q15 0 22 -6.5zM643 16
q0 -16 -20 -16h-105q-17 0 -24.5 6t-13.5 24l-28 79h-245l-28 -79q-6 -18 -13.5 -24t-24.5 -6h-105q-20 0 -20 16q0 6 3 12l222 599q6 16 15.5 23.5t25.5 7.5h96q16 0 25 -7.5t16 -23.5l221 -599q3 -6 3 -12zM330 470l-75 -221h150z" />
    <glyph glyph-name="aring" unicode="&#xe5;" 
d="M250.5 823q33.5 33 79.5 33t79 -33t33 -79q0 -26 -12 -50t-33 -40q12 -6 22 -27l221 -599q3 -6 3 -12q0 -16 -20 -16h-105q-17 0 -24.5 6t-13.5 24l-28 79h-245l-28 -79q-6 -18 -13.5 -24t-24.5 -6h-105q-20 0 -20 16q0 6 3 12l222 599q8 20 21 27q-21 15 -33 38.5
t-12 51.5q0 46 33.5 79zM293 707q16 -16 37 -16t36.5 16t15.5 37q0 20 -16 36t-36 16q-21 0 -37 -15.5t-16 -36.5t16 -37zM330 470l-75 -221h150z" />
    <glyph glyph-name="ae" unicode="&#xe6;" horiz-adv-x="970" 
d="M917.5 133q6.5 -7 6.5 -22v-82q0 -15 -6.5 -22t-22.5 -7h-424q-14 0 -21.5 5t-7.5 19v85h-212l-38 -79q-9 -16 -18.5 -23t-26.5 -7h-117q-7 0 -11.5 5t-4.5 12t2 11l284 591q10 20 22 30t31 10h525q16 0 22.5 -7t6.5 -22v-82q0 -15 -6.5 -22t-22.5 -7h-286v-111h252
q16 0 22.5 -7t6.5 -22v-78q0 -15 -6.5 -22t-22.5 -7h-252v-132h303q16 0 22.5 -7zM410 520l-122 -270h154v270h-32z" />
    <glyph glyph-name="ccedilla" unicode="&#xe7;" horiz-adv-x="632" 
d="M523.5 64q-57.5 -54 -140.5 -72l-15 -36q49 -5 75.5 -36.5t26.5 -73.5q0 -32 -16 -62t-46.5 -49t-71.5 -19h-67q-61 0 -96 37q-15 15 -15 33q0 19 15 34t35 15q18 0 32 -14q15 -13 31 -13h63q16 0 25 11.5t9 26.5t-9 26.5t-25 12.5h-72q-17 0 -17 14q0 6 3 14l36 74
q-59 7 -112 33.5t-86 75t-33 115.5v236q0 74 40.5 125t102 76t125.5 25t121 -21.5t95 -64.5t44 -104q0 -18 -6.5 -23.5t-24.5 -5.5h-96q-10 0 -15 5t-8.5 13t-6.5 13q-16 25 -39.5 36.5t-63.5 11.5q-50 0 -80.5 -26.5t-30.5 -73.5v-208q0 -47 30.5 -73.5t80.5 -26.5
q43 0 71 17t34 51q3 19 7.5 27.5t19.5 8.5h98q16 0 23 -8t7 -26q0 -77 -57.5 -131z" />
    <glyph glyph-name="egrave" unicode="&#xe8;" horiz-adv-x="627" 
d="M288 735q-8 5 -15 12.5t-10 10.5l-100 108q-5 5 -5 11q0 7 6 12t18 5h127q17 0 25.5 -5t19.5 -23l67 -108q4 -6 4 -12q0 -7 -4.5 -11.5t-12.5 -4.5h-98q-14 0 -22 5zM573.5 133q6.5 -7 6.5 -22v-82q0 -15 -6.5 -22t-22.5 -7h-448q-16 0 -22.5 7t-6.5 22v600q0 15 6.5 22
t22.5 7h431q16 0 22.5 -7t6.5 -22v-83q0 -15 -6.5 -22t-22.5 -7h-302v-109h268q16 0 22.5 -7t6.5 -22v-78q0 -15 -6.5 -22t-22.5 -7h-268v-132h319q16 0 22.5 -7z" />
    <glyph glyph-name="eacute" unicode="&#xe9;" horiz-adv-x="627" 
d="M243.5 739.5q-4.5 4.5 -4.5 11.5q0 6 4 12l67 108q11 18 19.5 23t25.5 5h127q12 0 18 -5t6 -12q0 -6 -5 -11l-100 -108q-3 -3 -11 -11.5t-16 -12.5t-20 -4h-98q-8 0 -12.5 4.5zM573.5 133q6.5 -7 6.5 -22v-82q0 -15 -6.5 -22t-22.5 -7h-448q-16 0 -22.5 7t-6.5 22v600
q0 15 6.5 22t22.5 7h431q16 0 22.5 -7t6.5 -22v-83q0 -15 -6.5 -22t-22.5 -7h-302v-109h268q16 0 22.5 -7t6.5 -22v-78q0 -15 -6.5 -22t-22.5 -7h-268v-132h319q16 0 22.5 -7z" />
    <glyph glyph-name="ecircumflex" unicode="&#xea;" horiz-adv-x="627" 
d="M386.5 741.5q-7.5 5.5 -15.5 15.5l-51 62l-51 -62q-17 -21 -35 -21h-88q-8 0 -12.5 4.5t-4.5 10.5t5 11l120 137q10 12 27 12h78q17 0 27 -12l119 -137q5 -5 5 -11t-4.5 -10.5t-11.5 -4.5h-89q-11 0 -18.5 5.5zM573.5 133q6.5 -7 6.5 -22v-82q0 -15 -6.5 -22t-22.5 -7
h-448q-16 0 -22.5 7t-6.5 22v600q0 15 6.5 22t22.5 7h431q16 0 22.5 -7t6.5 -22v-83q0 -15 -6.5 -22t-22.5 -7h-302v-109h268q16 0 22.5 -7t6.5 -22v-78q0 -15 -6.5 -22t-22.5 -7h-268v-132h319q16 0 22.5 -7z" />
    <glyph glyph-name="edieresis" unicode="&#xeb;" horiz-adv-x="627" 
d="M278.5 850.5q7.5 -6.5 7.5 -22.5v-65q0 -16 -7.5 -22.5t-21.5 -6.5h-110q-15 0 -22 6t-7 23v65q0 17 7 23t22 6h110q14 0 21.5 -6.5zM526 850.5q7 -6.5 7 -22.5v-65q0 -16 -7 -22.5t-22 -6.5h-110q-15 0 -22 6.5t-7 22.5v65q0 16 7 22.5t22 6.5h110q15 0 22 -6.5z
M573.5 133q6.5 -7 6.5 -22v-82q0 -15 -6.5 -22t-22.5 -7h-448q-16 0 -22.5 7t-6.5 22v600q0 15 6.5 22t22.5 7h431q16 0 22.5 -7t6.5 -22v-83q0 -15 -6.5 -22t-22.5 -7h-302v-109h268q16 0 22.5 -7t6.5 -22v-78q0 -15 -6.5 -22t-22.5 -7h-268v-132h319q16 0 22.5 -7z" />
    <glyph glyph-name="igrave" unicode="&#xec;" horiz-adv-x="481" 
d="M191 738q-8 5 -15 12.5t-10 10.5l-100 108q-5 5 -5 11q0 7 6 12t18 5h127q17 0 25.5 -5t19.5 -23l67 -108q4 -6 4 -12q0 -7 -4.5 -11.5t-12.5 -4.5h-98q-14 0 -22 5zM404.5 130q6.5 -7 6.5 -22v-79q0 -15 -6.5 -22t-22.5 -7h-283q-16 0 -22.5 7t-6.5 22v79q0 15 6.5 22
t22.5 7h63v382h-61q-16 0 -22.5 7t-6.5 22v81q0 15 6.5 22t22.5 7h278q16 0 22.5 -7t6.5 -22v-81q0 -15 -6.5 -22t-22.5 -7h-60v-382h63q16 0 22.5 -7z" />
    <glyph glyph-name="iacute" unicode="&#xed;" horiz-adv-x="481" 
d="M157.5 731.5q-4.5 4.5 -4.5 11.5q0 6 4 12l67 108q11 18 19.5 23t25.5 5h127q12 0 18 -5t6 -12q0 -6 -5 -11l-100 -108q-3 -3 -11 -11.5t-16 -12.5t-20 -4h-98q-8 0 -12.5 4.5zM404.5 130q6.5 -7 6.5 -22v-79q0 -15 -6.5 -22t-22.5 -7h-283q-16 0 -22.5 7t-6.5 22v79
q0 15 6.5 22t22.5 7h63v382h-61q-16 0 -22.5 7t-6.5 22v81q0 15 6.5 22t22.5 7h278q16 0 22.5 -7t6.5 -22v-81q0 -15 -6.5 -22t-22.5 -7h-60v-382h63q16 0 22.5 -7z" />
    <glyph glyph-name="icircumflex" unicode="&#xee;" horiz-adv-x="481" 
d="M307.5 740.5q-7.5 5.5 -15.5 15.5l-51 62l-51 -62q-17 -21 -35 -21h-88q-8 0 -12.5 4.5t-4.5 10.5t5 11l120 137q11 12 27 12h78q17 0 27 -12l119 -137q5 -5 5 -11t-4.5 -10.5t-11.5 -4.5h-89q-11 0 -18.5 5.5zM404.5 130q6.5 -7 6.5 -22v-79q0 -15 -6.5 -22t-22.5 -7
h-283q-16 0 -22.5 7t-6.5 22v79q0 15 6.5 22t22.5 7h63v382h-61q-16 0 -22.5 7t-6.5 22v81q0 15 6.5 22t22.5 7h278q16 0 22.5 -7t6.5 -22v-81q0 -15 -6.5 -22t-22.5 -7h-60v-382h63q16 0 22.5 -7z" />
    <glyph glyph-name="idieresis" unicode="&#xef;" horiz-adv-x="481" 
d="M197.5 850.5q7.5 -6.5 7.5 -23.5v-66q0 -16 -7.5 -22.5t-21.5 -6.5h-108q-14 0 -21 6.5t-7 22.5v66q0 17 7 23.5t21 6.5h108q14 0 21.5 -6.5zM441 850.5q7 -6.5 7 -23.5v-66q0 -16 -7 -22.5t-22 -6.5h-108q-14 0 -21 6.5t-7 22.5v66q0 17 7 23.5t21 6.5h108q15 0 22 -6.5
zM404.5 130q6.5 -7 6.5 -22v-79q0 -15 -6.5 -22t-22.5 -7h-283q-16 0 -22.5 7t-6.5 22v79q0 15 6.5 22t22.5 7h63v382h-61q-16 0 -22.5 7t-6.5 22v81q0 15 6.5 22t22.5 7h278q16 0 22.5 -7t6.5 -22v-81q0 -15 -6.5 -22t-22.5 -7h-60v-382h63q16 0 22.5 -7z" />
    <glyph glyph-name="eth" unicode="&#xf0;" horiz-adv-x="650" 
d="M453 633q62 -25 102.5 -76t40.5 -124v-208q0 -74 -40.5 -125t-102.5 -75.5t-126 -24.5h-224q-16 0 -22.5 7t-6.5 22v226h-41q-15 0 -22 6.5t-7 22.5v74q0 16 7 22.5t22 6.5h41v242q0 15 6.5 22t22.5 7h224q64 0 126 -25zM310 380.5q7 -6.5 7 -22.5v-74q0 -16 -7 -22.5
t-22 -6.5h-57v-116h96q51 0 81.5 26.5t30.5 73.5v180q0 47 -31 73.5t-81 26.5h-96v-132h57q15 0 22 -6.5z" />
    <glyph glyph-name="ntilde" unicode="&#xf1;" horiz-adv-x="682" 
d="M526 841v-1q0 -46 -30 -78t-78 -32q-32 0 -81 18q-60 21 -71 23t-21 -3.5t-14 -19.5q-3 -9 -8 -13.5t-17 -4.5h-46q-12 0 -12 20v1q0 46 30 78t78 32q31 0 81 -18q60 -21 71 -23t21 3.5t14 19.5q3 9 8 13.5t17 4.5h46q12 0 12 -20zM601 651.5q7 -6.5 7 -22.5v-600
q0 -15 -6.5 -22t-22.5 -7h-91q-17 0 -24.5 7t-20.5 27l-212 343v-348q0 -16 -7 -22.5t-22 -6.5h-99q-15 0 -22 6.5t-7 22.5v600q0 15 6.5 22t22.5 7h94q17 0 24.5 -7t20.5 -27l212 -342v347q0 16 7 22.5t22 6.5h96q15 0 22 -6.5z" />
    <glyph glyph-name="ograve" unicode="&#xf2;" horiz-adv-x="645" 
d="M272 739q-8 5 -15 12.5t-10 10.5l-100 108q-5 5 -5 11q0 7 6 12t18 5h127q17 0 25.5 -5t19.5 -23l67 -108q4 -6 4 -12q0 -7 -4.5 -11.5t-12.5 -4.5h-98q-14 0 -22 5zM550.5 86q-40.5 -51 -102.5 -76t-126 -25t-125.5 24.5t-101.5 76t-40 125.5v236q0 74 40 125.5
t101.5 76t125.5 24.5t126 -25t102.5 -76t40.5 -125v-236q0 -74 -40.5 -125zM403 507q-31 27 -81 27t-80.5 -27t-30.5 -74v-208q0 -47 30.5 -74t80.5 -27t81 27t31 74v208q0 47 -31 74z" />
    <glyph glyph-name="oacute" unicode="&#xf3;" horiz-adv-x="645" 
d="M239.5 742.5q-4.5 4.5 -4.5 11.5q0 6 4 12l67 108q11 18 19.5 23t25.5 5h127q12 0 18 -5t6 -12q0 -6 -5 -11l-100 -108q-3 -3 -11 -11.5t-16 -12.5t-20 -4h-98q-8 0 -12.5 4.5zM550.5 86q-40.5 -51 -102.5 -76t-126 -25t-125.5 24.5t-101.5 76t-40 125.5v236
q0 74 40 125.5t101.5 76t125.5 24.5t126 -25t102.5 -76t40.5 -125v-236q0 -74 -40.5 -125zM403 507q-31 27 -81 27t-80.5 -27t-30.5 -74v-208q0 -47 30.5 -74t80.5 -27t81 27t31 74v208q0 47 -31 74z" />
    <glyph glyph-name="ocircumflex" unicode="&#xf4;" horiz-adv-x="645" 
d="M389.5 739.5q-7.5 5.5 -15.5 15.5l-51 62l-51 -62q-17 -21 -35 -21h-88q-8 0 -12.5 4.5t-4.5 10.5t5 11l120 137q11 12 27 12h78q16 0 27 -12l119 -137q5 -5 5 -11t-4.5 -10.5t-11.5 -4.5h-89q-11 0 -18.5 5.5zM550.5 86q-40.5 -51 -102.5 -76t-126 -25t-125.5 24.5
t-101.5 76t-40 125.5v236q0 74 40 125.5t101.5 76t125.5 24.5t126 -25t102.5 -76t40.5 -125v-236q0 -74 -40.5 -125zM403 507q-31 27 -81 27t-80.5 -27t-30.5 -74v-208q0 -47 30.5 -74t80.5 -27t81 27t31 74v208q0 47 -31 74z" />
    <glyph glyph-name="otilde" unicode="&#xf5;" horiz-adv-x="645" 
d="M513 845v-1q0 -46 -30 -78t-78 -32q-31 0 -81 18q-60 21 -71 23t-21 -3.5t-14 -19.5q-3 -9 -8 -13.5t-17 -4.5h-46q-12 0 -12 20v1q0 46 30 78t78 32q32 0 81 -18q60 -21 71 -23t21 3.5t14 19.5q3 9 8 13.5t17 4.5h46q12 0 12 -20zM550.5 86q-40.5 -51 -102.5 -76
t-126 -25t-125.5 24.5t-101.5 76t-40 125.5v236q0 74 40 125.5t101.5 76t125.5 24.5t126 -25t102.5 -76t40.5 -125v-236q0 -74 -40.5 -125zM403 507q-31 27 -81 27t-80.5 -27t-30.5 -74v-208q0 -47 30.5 -74t80.5 -27t81 27t31 74v208q0 47 -31 74z" />
    <glyph glyph-name="odieresis" unicode="&#xf6;" horiz-adv-x="645" 
d="M275.5 853.5q7.5 -6.5 7.5 -22.5v-65q0 -16 -7.5 -22.5t-21.5 -6.5h-110q-15 0 -22 6t-7 23v65q0 17 7 23t22 6h110q14 0 21.5 -6.5zM523 853.5q7 -6.5 7 -22.5v-65q0 -16 -7 -22.5t-22 -6.5h-110q-15 0 -22 6.5t-7 22.5v65q0 16 7 22.5t22 6.5h110q15 0 22 -6.5z
M550.5 86q-40.5 -51 -102.5 -76t-126 -25t-125.5 24.5t-101.5 76t-40 125.5v236q0 74 40 125.5t101.5 76t125.5 24.5t126 -25t102.5 -76t40.5 -125v-236q0 -74 -40.5 -125zM403 507q-31 27 -81 27t-80.5 -27t-30.5 -74v-208q0 -47 30.5 -74t80.5 -27t81 27t31 74v208
q0 47 -31 74z" />
    <glyph glyph-name="divide" unicode="&#xf7;" horiz-adv-x="556" 
d="M339 541q26 -26 26 -64q0 -37 -26 -63.5t-64 -26.5t-64.5 26.5t-26.5 63.5t26.5 63.5t64.5 26.5t64 -26zM499 338.5q7 -6.5 7 -22.5v-78q0 -16 -7 -22.5t-22 -6.5h-405q-15 0 -22 6.5t-7 22.5v78q0 16 7 22.5t22 6.5h405q15 0 22 -6.5zM339 140q26 -26 26 -64
t-26.5 -64.5t-63.5 -26.5t-64 27t-27 64t26.5 63.5t64.5 26.5t64 -26z" />
    <glyph glyph-name="oslash" unicode="&#xf8;" horiz-adv-x="645" 
d="M550.5 86q-40.5 -51 -102.5 -76t-126 -25q-37 0 -76 9l-20 -53q-5 -12 -11.5 -19.5t-19.5 -7.5h-63q-13 0 -18.5 6t-5.5 14q0 6 1 8l37 95q-42 30 -66.5 73.5t-24.5 100.5v236q0 74 40 125.5t101.5 76t125.5 24.5q33 0 71 -8l24 61q5 12 11.5 19.5t19.5 7.5h62
q13 0 18.5 -6t5.5 -14q0 -6 -1 -8l-40 -101q45 -30 71.5 -74.5t26.5 -102.5v-236q0 -74 -40.5 -125zM212 205l129 328l-19 1q-50 0 -80.5 -27t-30.5 -74v-208q0 -14 1 -20zM430 463l-132 -338q7 -1 24 -1q50 0 81 27t31 74v208q0 18 -4 30z" />
    <glyph glyph-name="ugrave" unicode="&#xf9;" horiz-adv-x="661" 
d="M283 739q-8 5 -15 12.5t-10 10.5l-100 108q-5 5 -5 11q0 7 6 12t18 5h127q17 0 25.5 -5t19.5 -23l67 -108q4 -6 4 -12q0 -7 -4.5 -11.5t-12.5 -4.5h-98q-14 0 -22 5zM588 651.5q7 -6.5 7 -22.5v-428q0 -74 -39.5 -122.5t-100 -71t-125.5 -22.5t-125 22.5t-99.5 71
t-39.5 122.5v428q0 16 7 22.5t22 6.5h99q15 0 22 -6.5t7 -22.5v-406q0 -47 28.5 -73t78.5 -26t79 26t29 73v406q0 16 7 22.5t22 6.5h99q15 0 22 -6.5z" />
    <glyph glyph-name="uacute" unicode="&#xfa;" horiz-adv-x="661" 
d="M249.5 732.5q-4.5 4.5 -4.5 11.5q0 6 4 12l67 108q11 18 19.5 23t25.5 5h127q12 0 18 -5t6 -12q0 -6 -5 -11l-100 -108q-3 -3 -11 -11.5t-16 -12.5t-20 -4h-98q-8 0 -12.5 4.5zM588 651.5q7 -6.5 7 -22.5v-428q0 -74 -39.5 -122.5t-100 -71t-125.5 -22.5t-125 22.5
t-99.5 71t-39.5 122.5v428q0 16 7 22.5t22 6.5h99q15 0 22 -6.5t7 -22.5v-406q0 -47 28.5 -73t78.5 -26t79 26t29 73v406q0 16 7 22.5t22 6.5h99q15 0 22 -6.5z" />
    <glyph glyph-name="ucircumflex" unicode="&#xfb;" horiz-adv-x="661" 
d="M403.5 742.5q-7.5 5.5 -15.5 15.5l-51 62l-51 -62q-17 -21 -35 -21h-88q-8 0 -12.5 4.5t-4.5 10.5t5 11l120 137q11 12 27 12h78q16 0 27 -12l119 -137q5 -5 5 -11t-4.5 -10.5t-11.5 -4.5h-89q-11 0 -18.5 5.5zM588 651.5q7 -6.5 7 -22.5v-428q0 -74 -39.5 -122.5
t-100 -71t-125.5 -22.5t-125 22.5t-99.5 71t-39.5 122.5v428q0 16 7 22.5t22 6.5h99q15 0 22 -6.5t7 -22.5v-406q0 -47 28.5 -73t78.5 -26t79 26t29 73v406q0 16 7 22.5t22 6.5h99q15 0 22 -6.5z" />
    <glyph glyph-name="udieresis" unicode="&#xfc;" horiz-adv-x="661" 
d="M281.5 860.5q7.5 -6.5 7.5 -22.5v-65q0 -16 -7.5 -22.5t-21.5 -6.5h-110q-15 0 -22 6t-7 23v65q0 17 7 23t22 6h110q14 0 21.5 -6.5zM529 860.5q7 -6.5 7 -22.5v-65q0 -16 -7 -22.5t-22 -6.5h-110q-15 0 -22 6.5t-7 22.5v65q0 16 7 22.5t22 6.5h110q15 0 22 -6.5z
M588 651.5q7 -6.5 7 -22.5v-428q0 -74 -39.5 -122.5t-100 -71t-125.5 -22.5t-125 22.5t-99.5 71t-39.5 122.5v428q0 16 7 22.5t22 6.5h99q15 0 22 -6.5t7 -22.5v-406q0 -47 28.5 -73t78.5 -26t79 26t29 73v406q0 16 7 22.5t22 6.5h99q15 0 22 -6.5z" />
    <glyph glyph-name="yacute" unicode="&#xfd;" horiz-adv-x="604" 
d="M226.5 735.5q-4.5 4.5 -4.5 11.5q0 6 4 12l67 108q11 18 19.5 23t25.5 5h127q12 0 18 -5t6 -12q0 -6 -5 -11l-100 -108q-3 -3 -11 -11.5t-16 -12.5t-20 -4h-98q-8 0 -12.5 4.5zM593 641q0 -5 -2 -11l-206 -383v-218q0 -16 -7 -22.5t-22 -6.5h-100q-15 0 -22 6t-7 23v218
l-214 383q-2 6 -2 11q0 17 18 17h115q18 0 27.5 -5.5t19.5 -24.5l117 -215l113 215q9 19 18.5 24.5t27.5 5.5h108q18 0 18 -17z" />
    <glyph glyph-name="thorn" unicode="&#xfe;" horiz-adv-x="628" 
d="M522 500q68 -63 68 -169t-68.5 -168.5t-194.5 -62.5h-96v-71q0 -16 -7 -22.5t-22 -6.5h-99q-15 0 -22 6.5t-7 22.5v602q0 16 7 22.5t22 6.5h99q15 0 22 -6.5t7 -22.5v-68h97q126 0 194 -63zM410.5 261.5q28.5 26.5 28.5 66.5q0 42 -28 68t-84 26h-96v-187h96
q55 0 83.5 26.5z" />
    <glyph glyph-name="ydieresis" unicode="&#xff;" horiz-adv-x="833" 
 />
    <glyph glyph-name="OE" unicode="&#x152;" horiz-adv-x="923" 
d="M870.5 133q6.5 -7 6.5 -22v-82q0 -15 -6.5 -22t-22.5 -7h-536q-63 1 -124 26.5t-100.5 76.5t-39.5 124v204q0 74 39.5 125t100.5 76.5t124 25.5h520q16 0 22 -7.5t6 -21.5v-82q0 -14 -6 -21.5t-22 -7.5h-255v-111h220q16 0 22.5 -7t6.5 -22v-78q0 -15 -6.5 -22t-22.5 -7
h-220v-131h271q16 0 22.5 -7zM317 524q-49 0 -80 -33t-31 -82v-160q0 -49 31 -81.5t80 -32.5h112v389h-112z" />
    <glyph glyph-name="oe" unicode="&#x153;" horiz-adv-x="923" 
d="M870.5 133q6.5 -7 6.5 -22v-82q0 -15 -6.5 -22t-22.5 -7h-536q-63 1 -124 26.5t-100.5 76.5t-39.5 124v204q0 74 39.5 125t100.5 76.5t124 25.5h520q16 0 22 -7.5t6 -21.5v-82q0 -14 -6 -21.5t-22 -7.5h-255v-111h220q16 0 22.5 -7t6.5 -22v-78q0 -15 -6.5 -22t-22.5 -7
h-220v-131h271q16 0 22.5 -7zM317 524q-49 0 -80 -33t-31 -82v-160q0 -49 31 -81.5t80 -32.5h112v389h-112z" />
    <glyph glyph-name="Scaron" unicode="&#x160;" horiz-adv-x="605" 
d="M237 887l51 -62l51 62q8 10 15.5 15.5t18.5 5.5h89q7 0 11.5 -4.5t4.5 -10.5t-5 -11l-119 -137q-10 -12 -27 -12h-78q-17 0 -27 12l-120 137q-5 5 -5 11t4.5 10.5t12.5 4.5h88q18 0 35 -21zM473 349q35 -17 62 -54t27 -100q0 -103 -73 -156.5t-193 -53.5q-65 0 -127 24.5
t-102 73t-40 114.5q0 17 6 22.5t23 5.5h97q19 0 27 -5t9 -23q2 -21 19 -41q14 -17 40.5 -25t57.5 -8q46 0 72 14.5t26 53.5q0 28 -26 41t-82 26q-50 12 -66 17q-61 19 -101.5 41t-66.5 60t-26 98q0 62 33.5 106t89 67t120.5 26q67 0 128 -21t99.5 -63.5t38.5 -105.5
q0 -18 -5.5 -23t-23.5 -5h-98q-11 0 -16 5.5t-7.5 12.5t-3.5 9q-6 15 -21 30q-14 13 -37.5 20t-47.5 7q-32 0 -60 -14t-28 -44q0 -31 40.5 -50t106.5 -37q28 -6 40 -12q54 -16 89 -33z" />
    <glyph glyph-name="scaron" unicode="&#x161;" horiz-adv-x="605" 
d="M236 900l51 -62l51 62q8 10 15.5 15.5t18.5 5.5h89q7 0 11.5 -4.5t4.5 -10.5t-5 -11l-119 -137q-10 -12 -27 -12h-78q-16 0 -27 12l-120 137q-5 5 -5 11t4.5 10.5t12.5 4.5h88q18 0 35 -21zM473 349q35 -17 62 -54t27 -100q0 -103 -73 -156.5t-193 -53.5q-65 0 -127 24.5
t-102 73t-40 114.5q0 17 6 22.5t23 5.5h97q19 0 27 -5t9 -23q2 -21 19 -41q14 -17 40.5 -25t57.5 -8q46 0 72 14.5t26 53.5q0 28 -26 41t-82 26q-50 12 -66 17q-61 19 -101.5 41t-66.5 60t-26 98q0 62 33.5 106t89 67t120.5 26q67 0 128 -21t99.5 -63.5t38.5 -105.5
q0 -18 -5.5 -23t-23.5 -5h-98q-11 0 -16 5.5t-7.5 12.5t-3.5 9q-6 15 -21 30q-14 13 -37.5 20t-47.5 7q-32 0 -60 -14t-28 -44q0 -31 40.5 -50t106.5 -37q28 -6 40 -12q54 -16 89 -33z" />
    <glyph glyph-name="Ydieresis" unicode="&#x178;" horiz-adv-x="613" 
d="M102 741.5q-7 6.5 -7 22.5v65q0 16 7 22.5t22 6.5h110q15 0 22 -6.5t7 -22.5v-65q0 -16 -7 -22.5t-22 -6.5h-110q-15 0 -22 6.5zM350 741.5q-7 6.5 -7 22.5v65q0 16 7 22.5t22 6.5h110q15 0 22 -6.5t7 -22.5v-65q0 -16 -7 -22.5t-22 -6.5h-110q-15 0 -22 6.5zM590 653
q5 -5 5 -12q0 -6 -3 -11l-206 -383v-218q0 -16 -7 -22.5t-22 -6.5h-100q-15 0 -22 6.5t-7 22.5v218l-214 383q-2 6 -2 11q0 17 18 17h115q18 0 27.5 -5.5t19.5 -24.5l117 -215l113 215q10 19 19 24.5t27 5.5h108q9 0 14 -5z" />
    <glyph glyph-name="Zcaron" unicode="&#x17d;" horiz-adv-x="567" 
d="M237 890l51 -62l51 62q8 10 15.5 15.5t18.5 5.5h89q7 0 11.5 -4.5t4.5 -10.5t-5 -11l-119 -137q-10 -12 -27 -12h-78q-17 0 -27 12l-120 137q-5 5 -5 11t4.5 10.5t12.5 4.5h88q18 0 35 -21zM524.5 133q6.5 -7 6.5 -22v-82q0 -15 -6.5 -22t-22.5 -7h-436q-19 0 -24.5 5.5
t-5.5 23.5v78q0 22 13 38l270 373h-245q-16 0 -22.5 7t-6.5 22v82q0 15 6.5 22t22.5 7h402q16 0 22.5 -7t6.5 -22v-78q0 -22 -13 -39l-268 -372h278q16 0 22.5 -7z" />
    <glyph glyph-name="zcaron" unicode="&#x17e;" horiz-adv-x="567" 
d="M239 892l51 -62l51 62q8 10 15.5 15.5t18.5 5.5h89q7 0 11.5 -4.5t4.5 -10.5t-5 -11l-119 -137q-10 -12 -27 -12h-78q-16 0 -27 12l-120 137q-5 5 -5 11t4.5 10.5t12.5 4.5h88q18 0 35 -21zM524.5 133q6.5 -7 6.5 -22v-82q0 -15 -6.5 -22t-22.5 -7h-436q-19 0 -24.5 5.5
t-5.5 23.5v78q0 22 13 38l270 373h-245q-16 0 -22.5 7t-6.5 22v82q0 15 6.5 22t22.5 7h402q16 0 22.5 -7t6.5 -22v-78q0 -22 -13 -39l-268 -372h278q16 0 22.5 -7z" />
    <glyph glyph-name="circumflex" unicode="&#x2c6;" horiz-adv-x="500" 
d="M314.5 488.5q-7.5 5.5 -15.5 15.5l-51 62l-51 -62q-17 -21 -35 -21h-88q-8 0 -12.5 4.5t-4.5 10.5t5 11l120 137q11 12 27 12h78q17 0 27 -12l119 -137q5 -5 5 -11t-4.5 -10.5t-11.5 -4.5h-89q-11 0 -18.5 5.5z" />
    <glyph glyph-name="caron" unicode="&#x2c7;" horiz-adv-x="440" 
d="M163 644l51 -62l51 62q8 10 15.5 15.5t18.5 5.5h89q7 0 11.5 -4.5t4.5 -10.5t-5 -11l-119 -137q-10 -12 -27 -12h-78q-17 0 -27 12l-120 137q-5 5 -5 11t4.5 10.5t12.5 4.5h88q18 0 35 -21z" />
    <glyph glyph-name="breve" unicode="&#x2d8;" horiz-adv-x="500" 
d="M418 648l-1 -10q-9 -60 -54 -91t-110 -32q-65 1 -110.5 32t-53.5 91l-1 7q0 13 10 13h50q7 0 10 -4t6 -12q9 -23 35 -36t54 -13t53.5 13t35.5 36q3 8 6 12t10 4h50q11 0 10 -10z" />
    <glyph glyph-name="dotaccent" unicode="&#x2d9;" horiz-adv-x="500" 
d="M341.5 651.5q7.5 -6.5 7.5 -22.5v-65q0 -16 -7.5 -22.5t-21.5 -6.5h-110q-15 0 -22 6t-7 23v65q0 17 7 23t22 6h110q14 0 21.5 -6.5z" />
    <glyph glyph-name="ring" unicode="&#x2da;" horiz-adv-x="500" 
d="M145.5 641q33.5 33 79.5 33t79 -33t33 -79t-33 -79.5t-79 -33.5t-79.5 33.5t-33.5 79.5t33.5 79zM188 525q16 -16 37 -16t36.5 16t15.5 37q0 20 -16 36t-36 16q-21 0 -37 -15.5t-16 -36.5t16 -37z" />
    <glyph glyph-name="tilde" unicode="&#x2dc;" horiz-adv-x="476" 
d="M460 638v-1q0 -46 -30 -78t-78 -32q-32 0 -81 18q-60 21 -71 23t-21 -3.5t-14 -19.5q-3 -9 -8 -13.5t-17 -4.5h-46q-12 0 -12 20v1q0 46 30 78t78 32q31 0 81 -18q60 -21 71 -23t21 3.5t14 19.5q3 9 8 13.5t17 4.5h46q12 0 12 -20z" />
    <glyph glyph-name="hungarumlaut" unicode="&#x2dd;" horiz-adv-x="500" 
d="M37.5 498.5q-4.5 4.5 -4.5 11.5q0 6 4 12l67 108q11 18 19.5 23t25.5 5h127q12 0 18 -5t6 -12q0 -6 -5 -11l-100 -108q-3 -3 -11 -11.5t-16 -12.5t-20 -4h-98q-8 0 -12.5 4.5zM308.5 498.5q-4.5 4.5 -4.5 11.5q0 6 4 12l67 108q11 18 19.5 23t25.5 5h127q12 0 18 -5
t6 -12q0 -6 -5 -11l-100 -108q-3 -3 -11 -11.5t-16 -12.5t-20 -4h-98q-8 0 -12.5 4.5z" />
    <glyph glyph-name="tonos" unicode="&#x384;" horiz-adv-x="556" 
d="M215.5 452q-5.5 8 -5.5 20v158q1 17 13 22.5t32 5.5h101q9 0 16.5 -4t7.5 -13l-45 -169q-3 -11 -16 -19.5t-31 -8.5h-57q-10 0 -15.5 8z" />
    <glyph glyph-name="Alphatonos" unicode="&#x386;" 
d="M5.5 452q-5.5 8 -5.5 20v158q1 17 13 22.5t32 5.5h101q9 0 16.5 -4t7.5 -13l-45 -169q-3 -11 -16 -19.5t-31 -8.5h-57q-10 0 -15.5 8zM643 16q0 -16 -20 -16h-105q-17 0 -24.5 6t-13.5 24l-28 79h-245l-28 -79q-6 -18 -13.5 -24t-24.5 -6h-105q-20 0 -20 16q0 6 3 12
l222 599q6 16 15.5 23.5t25.5 7.5h96q16 0 25 -7.5t16 -23.5l221 -599q3 -6 3 -12zM330 470l-75 -221h150z" />
    <glyph glyph-name="Epsilontonos" unicode="&#x388;" horiz-adv-x="777" 
d="M5.5 452q-5.5 8 -5.5 20v158q1 17 13 22.5t32 5.5h101q9 0 16.5 -4t7.5 -13l-45 -169q-3 -11 -16 -19.5t-31 -8.5h-57q-10 0 -15.5 8zM723.5 133q6.5 -7 6.5 -22v-82q0 -15 -6.5 -22t-22.5 -7h-448q-16 0 -22.5 7t-6.5 22v600q0 15 6.5 22t22.5 7h431q16 0 22.5 -7
t6.5 -22v-83q0 -15 -6.5 -22t-22.5 -7h-302v-109h268q16 0 22.5 -7t6.5 -22v-78q0 -15 -6.5 -22t-22.5 -7h-268v-132h319q16 0 22.5 -7z" />
    <glyph glyph-name="Etatonos" unicode="&#x389;" horiz-adv-x="845" 
d="M5.5 452q-5.5 8 -5.5 20v158q1 17 13 22.5t32 5.5h101q9 0 16.5 -4t7.5 -13l-45 -169q-3 -11 -16 -19.5t-31 -8.5h-57q-10 0 -15.5 8zM764 651.5q7 -6.5 7 -22.5v-600q0 -16 -7 -22.5t-22 -6.5h-99q-15 0 -22 6.5t-7 22.5v226h-223v-226q0 -17 -7 -23t-22 -6h-99
q-15 0 -22 6.5t-7 22.5v600q0 16 7 22.5t22 6.5h99q15 0 22 -6t7 -23v-226h223v226q0 16 7 22.5t22 6.5h99q15 0 22 -6.5z" />
    <glyph glyph-name="Iotatonos" unicode="&#x38a;" horiz-adv-x="624" 
d="M5.5 452q-5.5 8 -5.5 20v158q1 17 13 22.5t32 5.5h101q9 0 16.5 -4t7.5 -13l-45 -169q-3 -11 -16 -19.5t-31 -8.5h-57q-10 0 -15.5 8zM562.5 130q6.5 -7 6.5 -22v-79q0 -15 -6.5 -22t-22.5 -7h-283q-16 0 -22.5 7t-6.5 22v79q0 15 6.5 22t22.5 7h63v382h-61
q-16 0 -22.5 7t-6.5 22v81q0 15 6.5 22t22.5 7h278q16 0 22.5 -7t6.5 -22v-81q0 -15 -6.5 -22t-22.5 -7h-60v-382h63q16 0 22.5 -7z" />
    <glyph glyph-name="Omicrontonos" unicode="&#x38c;" horiz-adv-x="786" 
d="M690.5 86q-40.5 -51 -102.5 -76t-126 -25t-125.5 24.5t-101.5 76t-40 125.5v236q0 74 40 125.5t101.5 76t125.5 24.5t126 -25t102.5 -76t40.5 -125v-236q0 -74 -40.5 -125zM5.5 452q-5.5 8 -5.5 20v158q1 17 13 22.5t32 5.5h101q9 0 16.5 -4t7.5 -13l-45 -169
q-3 -11 -16 -19.5t-31 -8.5h-57q-10 0 -15.5 8zM543 507q-31 27 -81 27t-80.5 -27t-30.5 -74v-208q0 -47 30.5 -74t80.5 -27t81 27t31 74v208q0 47 -31 74z" />
    <glyph glyph-name="Upsilontonos" unicode="&#x38e;" horiz-adv-x="804" 
d="M5.5 452q-5.5 8 -5.5 20v158q1 17 13 22.5t32 5.5h101q9 0 16.5 -4t7.5 -13l-45 -169q-3 -11 -16 -19.5t-31 -8.5h-57q-10 0 -15.5 8zM793 641q0 -5 -2 -11l-206 -383v-218q0 -16 -7 -22.5t-22 -6.5h-100q-15 0 -22 6t-7 23v218l-214 383q-2 6 -2 11q0 17 18 17h115
q18 0 27.5 -5.5t19.5 -24.5l117 -215l113 215q9 19 18.5 24.5t27.5 5.5h108q18 0 18 -17z" />
    <glyph glyph-name="Omegatonos" unicode="&#x38f;" horiz-adv-x="765" 
d="M704.5 133q6.5 -7 6.5 -22v-82q0 -15 -6.5 -22t-22.5 -7h-174q-16 0 -23 7t-7 23v90q0 19 6 26.5t18 13.5q3 2 9 5.5t10 7.5q33 29 33 78v182q0 47 -31 74t-81 27t-80.5 -27t-30.5 -74v-182q0 -59 44 -87l13 -6.5t14.5 -13t5.5 -24.5v-90q0 -16 -7 -23t-23 -7h-174
q-16 0 -22.5 7t-6.5 22v82q0 15 6.5 22t22.5 7h57q-86 62 -86 171v136q0 74 40 125.5t101.5 76t125.5 24.5t126 -25t102.5 -76t40.5 -125v-136q0 -56 -23.5 -98.5t-64.5 -72.5h59q16 0 22.5 -7zM5.5 452q-5.5 8 -5.5 20v158q1 17 13 22.5t32 5.5h101q9 0 16.5 -4t7.5 -13
l-45 -169q-3 -11 -16 -19.5t-31 -8.5h-57q-10 0 -15.5 8z" />
    <glyph glyph-name="iotadieresistonos" unicode="&#x390;" horiz-adv-x="481" 
d="M197.5 850.5q7.5 -6.5 7.5 -23.5v-66q0 -16 -7.5 -22.5t-21.5 -6.5h-108q-14 0 -21 6.5t-7 22.5v66q0 17 7 23.5t21 6.5h108q14 0 21.5 -6.5zM441 850.5q7 -6.5 7 -23.5v-66q0 -16 -7 -22.5t-22 -6.5h-108q-14 0 -21 6.5t-7 22.5v66q0 17 7 23.5t21 6.5h108q15 0 22 -6.5
zM404.5 130q6.5 -7 6.5 -22v-79q0 -15 -6.5 -22t-22.5 -7h-283q-16 0 -22.5 7t-6.5 22v79q0 15 6.5 22t22.5 7h63v382h-61q-16 0 -22.5 7t-6.5 22v81q0 15 6.5 22t22.5 7h278q16 0 22.5 -7t6.5 -22v-81q0 -15 -6.5 -22t-22.5 -7h-60v-382h63q16 0 22.5 -7z" />
    <glyph glyph-name="Alpha" unicode="&#x391;" 
d="M643 16q0 -16 -20 -16h-105q-17 0 -24.5 6t-13.5 24l-28 79h-245l-28 -79q-6 -18 -13.5 -24t-24.5 -6h-105q-20 0 -20 16q0 6 3 12l222 599q6 16 15.5 23.5t25.5 7.5h96q16 0 25 -7.5t16 -23.5l221 -599q3 -6 3 -12zM330 470l-75 -221h150z" />
    <glyph glyph-name="Beta" unicode="&#x392;" horiz-adv-x="687" 
d="M576 321.5q21 -15.5 40 -48.5t19 -81q0 -93 -65 -142.5t-173 -49.5h-294q-16 0 -22.5 7t-6.5 22v601q0 15 6.5 22t22.5 7h280q78 0 130.5 -25t77.5 -66t25 -90q0 -64 -25.5 -95.5t-47.5 -41.5q12 -4 33 -19.5zM476 207q0 33 -22 47t-61 14h-23q-16 0 -22.5 7t-6.5 22v76
q0 15 6.5 22t22.5 7h13q83 0 83 60q0 32 -20.5 44t-62.5 12h-152v-376h168q77 0 77 65z" />
    <glyph glyph-name="Gamma" unicode="&#x393;" horiz-adv-x="602" 
d="M555.5 651q6.5 -7 6.5 -22v-82q0 -15 -6.5 -22t-22.5 -7h-302v-488q0 -19 -5.5 -24.5t-23.5 -5.5h-99q-16 0 -22.5 7t-6.5 22v600q0 15 6.5 22t22.5 7h430q16 0 22.5 -7z" />
    <glyph glyph-name="uni0394" unicode="&#x394;" 
d="M16 16q0 6 3 12l222 599q6 16 15.5 23.5t25.5 7.5h96q16 0 25 -7.5t16 -23.5l221 -599q3 -6 3 -12q0 -16 -20 -16h-587q-20 0 -20 16zM442 140l-112 330l-114 -330h226z" />
    <glyph glyph-name="Epsilon" unicode="&#x395;" horiz-adv-x="627" 
d="M573.5 133q6.5 -7 6.5 -22v-82q0 -15 -6.5 -22t-22.5 -7h-448q-16 0 -22.5 7t-6.5 22v600q0 15 6.5 22t22.5 7h431q16 0 22.5 -7t6.5 -22v-83q0 -15 -6.5 -22t-22.5 -7h-302v-109h268q16 0 22.5 -7t6.5 -22v-78q0 -15 -6.5 -22t-22.5 -7h-268v-132h319q16 0 22.5 -7z" />
    <glyph glyph-name="Zeta" unicode="&#x396;" horiz-adv-x="567" 
d="M524.5 133q6.5 -7 6.5 -22v-82q0 -15 -6.5 -22t-22.5 -7h-436q-19 0 -24.5 5.5t-5.5 23.5v78q0 22 13 38l270 373h-245q-16 0 -22.5 7t-6.5 22v82q0 15 6.5 22t22.5 7h402q16 0 22.5 -7t6.5 -22v-78q0 -22 -13 -39l-268 -372h278q16 0 22.5 -7z" />
    <glyph glyph-name="Eta" unicode="&#x397;" horiz-adv-x="685" 
d="M604 651.5q7 -6.5 7 -22.5v-600q0 -16 -7 -22.5t-22 -6.5h-99q-15 0 -22 6.5t-7 22.5v226h-223v-226q0 -17 -7 -23t-22 -6h-99q-15 0 -22 6.5t-7 22.5v600q0 16 7 22.5t22 6.5h99q15 0 22 -6t7 -23v-226h223v226q0 16 7 22.5t22 6.5h99q15 0 22 -6.5z" />
    <glyph glyph-name="Theta" unicode="&#x398;" horiz-adv-x="645" 
d="M550.5 86q-40.5 -51 -102.5 -76t-126 -25t-125.5 24.5t-101.5 76t-40 125.5v236q0 74 40 125.5t101.5 76t125.5 24.5t126 -25t102.5 -76t40.5 -125v-236q0 -74 -40.5 -125zM300 259q-15 0 -22 6.5t-7 22.5v78q0 16 7 22.5t22 6.5h134v38q0 47 -31 74t-81 27t-80.5 -27
t-30.5 -74v-208q0 -47 30.5 -74t80.5 -27t81 27t31 74v34h-134z" />
    <glyph glyph-name="Iota" unicode="&#x399;" horiz-adv-x="444" 
d="M382.5 130q6.5 -7 6.5 -22v-79q0 -15 -6.5 -22t-22.5 -7h-283q-16 0 -22.5 7t-6.5 22v79q0 15 6.5 22t22.5 7h63v382h-61q-16 0 -22.5 7t-6.5 22v81q0 15 6.5 22t22.5 7h278q16 0 22.5 -7t6.5 -22v-81q0 -15 -6.5 -22t-22.5 -7h-60v-382h63q16 0 22.5 -7z" />
    <glyph glyph-name="Kappa" unicode="&#x39a;" horiz-adv-x="654" 
d="M634 654q4 -4 4 -10q0 -8 -6 -14l-225 -244l215 -354q4 -5 4 -14q0 -7 -5 -12.5t-14 -5.5h-122q-17 0 -28.5 7.5t-21.5 24.5l-143 240l-62 -65v-178q0 -16 -7 -22.5t-21 -6.5h-99q-15 0 -22 6t-7 23v600q0 17 7 23t22 6h99q14 0 21 -6.5t7 -22.5v-223l207 228
q15 16 23.5 20t26.5 4h135q8 0 12 -4z" />
    <glyph glyph-name="Lambda" unicode="&#x39b;" 
d="M169.5 6q-7.5 -6 -24.5 -6h-109q-20 0 -20 16q0 6 3 12l222 599q6 16 15.5 23.5t25.5 7.5h96q16 0 25 -7.5t16 -23.5l221 -599q3 -6 3 -12q0 -16 -20 -16h-114q-17 0 -24.5 6t-13.5 24l-146 426l-142 -426q-6 -18 -13.5 -24z" />
    <glyph glyph-name="Mu" unicode="&#x39c;" horiz-adv-x="767" 
d="M686.5 652q6.5 -7 6.5 -22v-601q0 -16 -7 -22.5t-22 -6.5h-96q-15 0 -22 6.5t-7 22.5v339l-100 -175q-13 -21 -29 -21h-50q-10 0 -16 6t-12 15l-101 175v-339q0 -16 -7 -22.5t-22 -6.5h-99q-15 0 -22 6.5t-7 22.5v601q0 15 6.5 22t22.5 7h99q18 0 26.5 -7t13 -15.5
t6.5 -11.5l137 -246l138 246q2 3 6.5 12.5t14 15.5t24.5 6h96q16 0 22.5 -7z" />
    <glyph glyph-name="Nu" unicode="&#x39d;" horiz-adv-x="682" 
d="M601 651.5q7 -6.5 7 -22.5v-600q0 -15 -6.5 -22t-22.5 -7h-91q-17 0 -24.5 7t-20.5 27l-212 343v-348q0 -16 -7 -22.5t-22 -6.5h-99q-15 0 -22 6.5t-7 22.5v600q0 15 6.5 22t22.5 7h94q17 0 24.5 -7t20.5 -27l212 -342v347q0 16 7 22.5t22 6.5h96q15 0 22 -6.5z" />
    <glyph glyph-name="Xi" unicode="&#x39e;" horiz-adv-x="604" 
d="M545 650.5q7 -6.5 7 -22.5v-82q0 -16 -7 -22.5t-22 -6.5h-442q-15 0 -22 6.5t-7 22.5v82q0 16 7 22.5t22 6.5h442q15 0 22 -6.5zM495 392.5q7 -6.5 7 -22.5v-82q0 -16 -7 -22.5t-22 -6.5h-342q-15 0 -22 6.5t-7 22.5v82q0 16 7 22.5t22 6.5h342q15 0 22 -6.5zM545 132.5
q7 -6.5 7 -22.5v-82q0 -16 -7 -22.5t-22 -6.5h-442q-15 0 -22 6.5t-7 22.5v82q0 16 7 22.5t22 6.5h442q15 0 22 -6.5z" />
    <glyph glyph-name="Omicron" unicode="&#x39f;" horiz-adv-x="645" 
d="M550.5 86q-40.5 -51 -102.5 -76t-126 -25t-125.5 24.5t-101.5 76t-40 125.5v236q0 74 40 125.5t101.5 76t125.5 24.5t126 -25t102.5 -76t40.5 -125v-236q0 -74 -40.5 -125zM403 507q-31 27 -81 27t-80.5 -27t-30.5 -74v-208q0 -47 30.5 -74t80.5 -27t81 27t31 74v208
q0 47 -31 74z" />
    <glyph glyph-name="Pi" unicode="&#x3a0;" horiz-adv-x="666" 
d="M585.5 651q6.5 -7 6.5 -22v-600q0 -15 -6.5 -22t-22.5 -7h-99q-18 0 -23.5 5.5t-5.5 24.5v488h-204v-488q0 -19 -5.5 -24.5t-23.5 -5.5h-99q-16 0 -22.5 7t-6.5 22v600q0 15 6.5 22t22.5 7h460q16 0 22.5 -7z" />
    <glyph glyph-name="Rho" unicode="&#x3a1;" horiz-adv-x="628" 
d="M522 595q68 -63 68 -169t-68.5 -168.5t-194.5 -62.5h-96v-166q0 -16 -7 -22.5t-22 -6.5h-99q-15 0 -22 6.5t-7 22.5v600q0 15 6.5 22t22.5 7h225q126 0 194 -63zM410.5 356.5q28.5 26.5 28.5 66.5q0 42 -28 68t-84 26h-96v-187h96q55 0 83.5 26.5z" />
    <glyph glyph-name="Sigma" unicode="&#x3a3;" horiz-adv-x="610" 
d="M556.5 133q6.5 -7 6.5 -22v-82q0 -15 -6.5 -22t-22.5 -7h-431q-16 0 -22.5 7t-6.5 22v53q0 14 6 25t17 24l167 198l-166 208q-2 3 -9.5 12.5t-11 18t-3.5 18.5v43q0 15 6.5 22t22.5 7h421q16 0 22.5 -7t6.5 -22v-83q0 -15 -6.5 -22t-22.5 -7h-222q57 -74 92 -114
q21 -25 26 -33.5t5 -21.5v-38q0 -13 -4.5 -20.5t-26.5 -31.5q-52 -57 -102 -118h242q16 0 22.5 -7z" />
    <glyph glyph-name="Tau" unicode="&#x3a4;" horiz-adv-x="574" 
d="M541.5 651q6.5 -7 6.5 -22v-83q0 -15 -6.5 -22t-22.5 -7h-153v-488q0 -16 -7 -22.5t-22 -6.5h-99q-15 0 -22 6.5t-7 22.5v488h-154q-16 0 -22.5 7t-6.5 22v83q0 15 6.5 22t22.5 7h464q16 0 22.5 -7z" />
    <glyph glyph-name="Upsilon" unicode="&#x3a5;" horiz-adv-x="604" 
d="M593 641q0 -5 -2 -11l-206 -383v-218q0 -16 -7 -22.5t-22 -6.5h-100q-15 0 -22 6t-7 23v218l-214 383q-2 6 -2 11q0 17 18 17h115q18 0 27.5 -5.5t19.5 -24.5l117 -215l113 215q9 19 18.5 24.5t27.5 5.5h108q18 0 18 -17z" />
    <glyph glyph-name="Phi" unicode="&#x3a6;" horiz-adv-x="804" 
d="M475 4.5q-7 -6.5 -22 -6.5h-99q-15 0 -22 6.5t-7 22.5v51h-36q-110 0 -183.5 49.5t-73.5 177.5v46q0 131 73.5 181t183.5 50h36v51q0 16 7 22.5t22 6.5h99q29 0 29 -31v-49h36q110 0 183.5 -50t73.5 -181v-46q0 -128 -73.5 -177.5t-183.5 -49.5h-36v-51q0 -16 -7 -22.5z
M213 233.5q26 -24.5 76 -24.5h40v243h-40q-49 0 -75.5 -26.5t-26.5 -74.5v-45q0 -48 26 -72.5zM594 233.5q26 24.5 26 72.5v45q0 48 -26.5 74.5t-75.5 26.5h-39v-243h39q50 0 76 24.5z" />
    <glyph glyph-name="Chi" unicode="&#x3a7;" horiz-adv-x="586" 
d="M567 18q0 -7 -4.5 -12.5t-11.5 -5.5h-114q-18 0 -26 4.5t-18 23.5l-99 178l-100 -178q-9 -18 -17.5 -23t-26.5 -5h-114q-7 0 -11.5 5.5t-4.5 12.5q0 8 4 13l178 306l-181 293q-3 5 -3 10q0 7 5 12.5t13 5.5h118q14 0 22 -6t18 -23l100 -161l99 161q11 17 19 23t22 6h117
q8 0 13 -5t5 -12q0 -6 -3 -11l-180 -293l177 -306q4 -5 4 -13z" />
    <glyph glyph-name="Psi" unicode="&#x3a8;" horiz-adv-x="804" 
d="M594 283.5q26 24.5 26 72.5v275q0 16 7 23t23 7h95q16 0 23 -7t7 -23v-276q0 -128 -73.5 -177.5t-183.5 -49.5h-36v-101q0 -16 -7 -22.5t-22 -6.5h-99q-15 0 -22 6.5t-7 22.5v101h-36q-110 0 -183.5 49.5t-73.5 177.5v276q0 16 7 23t23 7h95q16 0 23 -7t7 -23v-275
q0 -48 26 -72.5t76 -24.5h40l-4 374q0 16 7 22.5t22 6.5h99q29 0 29 -31l-3 -372h39q50 0 76 24.5z" />
    <glyph glyph-name="uni03A9" unicode="&#x3a9;" horiz-adv-x="645" 
d="M584.5 133q6.5 -7 6.5 -22v-82q0 -15 -6.5 -22t-22.5 -7h-174q-16 0 -23 7t-7 23v90q0 19 6 26.5t18 13.5q3 2 9 5.5t10 7.5q33 29 33 78v182q0 47 -31 74t-81 27t-80.5 -27t-30.5 -74v-182q0 -59 44 -87l13 -6.5t14.5 -13t5.5 -24.5v-90q0 -16 -7 -23t-23 -7h-174
q-16 0 -22.5 7t-6.5 22v82q0 15 6.5 22t22.5 7h57q-86 62 -86 171v136q0 74 40 125.5t101.5 76t125.5 24.5t126 -25t102.5 -76t40.5 -125v-136q0 -56 -23.5 -98.5t-64.5 -72.5h59q16 0 22.5 -7z" />
    <glyph glyph-name="Iotadieresis" unicode="&#x3aa;" horiz-adv-x="481" 
d="M197.5 850.5q7.5 -6.5 7.5 -23.5v-66q0 -16 -7.5 -22.5t-21.5 -6.5h-108q-14 0 -21 6.5t-7 22.5v66q0 17 7 23.5t21 6.5h108q14 0 21.5 -6.5zM441 850.5q7 -6.5 7 -23.5v-66q0 -16 -7 -22.5t-22 -6.5h-108q-14 0 -21 6.5t-7 22.5v66q0 17 7 23.5t21 6.5h108q15 0 22 -6.5
zM404.5 130q6.5 -7 6.5 -22v-79q0 -15 -6.5 -22t-22.5 -7h-283q-16 0 -22.5 7t-6.5 22v79q0 15 6.5 22t22.5 7h63v382h-61q-16 0 -22.5 7t-6.5 22v81q0 15 6.5 22t22.5 7h278q16 0 22.5 -7t6.5 -22v-81q0 -15 -6.5 -22t-22.5 -7h-60v-382h63q16 0 22.5 -7z" />
    <glyph glyph-name="Upsilondieresis" unicode="&#x3ab;" horiz-adv-x="613" 
d="M102 741.5q-7 6.5 -7 22.5v65q0 16 7 22.5t22 6.5h110q15 0 22 -6.5t7 -22.5v-65q0 -16 -7 -22.5t-22 -6.5h-110q-15 0 -22 6.5zM350 741.5q-7 6.5 -7 22.5v65q0 16 7 22.5t22 6.5h110q15 0 22 -6.5t7 -22.5v-65q0 -16 -7 -22.5t-22 -6.5h-110q-15 0 -22 6.5zM590 653
q5 -5 5 -12q0 -6 -3 -11l-206 -383v-218q0 -16 -7 -22.5t-22 -6.5h-100q-15 0 -22 6.5t-7 22.5v218l-214 383q-2 6 -2 11q0 17 18 17h115q18 0 27.5 -5.5t19.5 -24.5l117 -215l113 215q10 19 19 24.5t27 5.5h108q9 0 14 -5z" />
    <glyph glyph-name="alphatonos" unicode="&#x3ac;" 
d="M5.5 452q-5.5 8 -5.5 20v158q1 17 13 22.5t32 5.5h101q9 0 16.5 -4t7.5 -13l-45 -169q-3 -11 -16 -19.5t-31 -8.5h-57q-10 0 -15.5 8zM643 16q0 -16 -20 -16h-105q-17 0 -24.5 6t-13.5 24l-28 79h-245l-28 -79q-6 -18 -13.5 -24t-24.5 -6h-105q-20 0 -20 16q0 6 3 12
l222 599q6 16 15.5 23.5t25.5 7.5h96q16 0 25 -7.5t16 -23.5l221 -599q3 -6 3 -12zM330 470l-75 -221h150z" />
    <glyph glyph-name="epsilontonos" unicode="&#x3ad;" horiz-adv-x="777" 
d="M5.5 452q-5.5 8 -5.5 20v158q1 17 13 22.5t32 5.5h101q9 0 16.5 -4t7.5 -13l-45 -169q-3 -11 -16 -19.5t-31 -8.5h-57q-10 0 -15.5 8zM723.5 133q6.5 -7 6.5 -22v-82q0 -15 -6.5 -22t-22.5 -7h-448q-16 0 -22.5 7t-6.5 22v600q0 15 6.5 22t22.5 7h431q16 0 22.5 -7
t6.5 -22v-83q0 -15 -6.5 -22t-22.5 -7h-302v-109h268q16 0 22.5 -7t6.5 -22v-78q0 -15 -6.5 -22t-22.5 -7h-268v-132h319q16 0 22.5 -7z" />
    <glyph glyph-name="etatonos" unicode="&#x3ae;" horiz-adv-x="845" 
d="M5.5 452q-5.5 8 -5.5 20v158q1 17 13 22.5t32 5.5h101q9 0 16.5 -4t7.5 -13l-45 -169q-3 -11 -16 -19.5t-31 -8.5h-57q-10 0 -15.5 8zM764 651.5q7 -6.5 7 -22.5v-600q0 -16 -7 -22.5t-22 -6.5h-99q-15 0 -22 6.5t-7 22.5v226h-223v-226q0 -17 -7 -23t-22 -6h-99
q-15 0 -22 6.5t-7 22.5v600q0 16 7 22.5t22 6.5h99q15 0 22 -6t7 -23v-226h223v226q0 16 7 22.5t22 6.5h99q15 0 22 -6.5z" />
    <glyph glyph-name="iotatonos" unicode="&#x3af;" horiz-adv-x="624" 
d="M5.5 452q-5.5 8 -5.5 20v158q1 17 13 22.5t32 5.5h101q9 0 16.5 -4t7.5 -13l-45 -169q-3 -11 -16 -19.5t-31 -8.5h-57q-10 0 -15.5 8zM562.5 130q6.5 -7 6.5 -22v-79q0 -15 -6.5 -22t-22.5 -7h-283q-16 0 -22.5 7t-6.5 22v79q0 15 6.5 22t22.5 7h63v382h-61
q-16 0 -22.5 7t-6.5 22v81q0 15 6.5 22t22.5 7h278q16 0 22.5 -7t6.5 -22v-81q0 -15 -6.5 -22t-22.5 -7h-60v-382h63q16 0 22.5 -7z" />
    <glyph glyph-name="upsilondieresistonos" unicode="&#x3b0;" horiz-adv-x="613" 
d="M102 741.5q-7 6.5 -7 22.5v65q0 16 7 22.5t22 6.5h110q15 0 22 -6.5t7 -22.5v-65q0 -16 -7 -22.5t-22 -6.5h-110q-15 0 -22 6.5zM350 741.5q-7 6.5 -7 22.5v65q0 16 7 22.5t22 6.5h110q15 0 22 -6.5t7 -22.5v-65q0 -16 -7 -22.5t-22 -6.5h-110q-15 0 -22 6.5zM590 653
q5 -5 5 -12q0 -6 -3 -11l-206 -383v-218q0 -16 -7 -22.5t-22 -6.5h-100q-15 0 -22 6.5t-7 22.5v218l-214 383q-2 6 -2 11q0 17 18 17h115q18 0 27.5 -5.5t19.5 -24.5l117 -215l113 215q10 19 19 24.5t27 5.5h108q9 0 14 -5z" />
    <glyph glyph-name="alpha" unicode="&#x3b1;" 
d="M643 16q0 -16 -20 -16h-105q-17 0 -24.5 6t-13.5 24l-28 79h-245l-28 -79q-6 -18 -13.5 -24t-24.5 -6h-105q-20 0 -20 16q0 6 3 12l222 599q6 16 15.5 23.5t25.5 7.5h96q16 0 25 -7.5t16 -23.5l221 -599q3 -6 3 -12zM330 470l-75 -221h150z" />
    <glyph glyph-name="beta" unicode="&#x3b2;" horiz-adv-x="687" 
d="M576 321.5q21 -15.5 40 -48.5t19 -81q0 -93 -65 -142.5t-173 -49.5h-294q-16 0 -22.5 7t-6.5 22v601q0 15 6.5 22t22.5 7h280q78 0 130.5 -25t77.5 -66t25 -90q0 -64 -25.5 -95.5t-47.5 -41.5q12 -4 33 -19.5zM476 207q0 33 -22 47t-61 14h-23q-16 0 -22.5 7t-6.5 22v76
q0 15 6.5 22t22.5 7h13q83 0 83 60q0 32 -20.5 44t-62.5 12h-152v-376h168q77 0 77 65z" />
    <glyph glyph-name="gamma" unicode="&#x3b3;" horiz-adv-x="602" 
d="M555.5 651q6.5 -7 6.5 -22v-82q0 -15 -6.5 -22t-22.5 -7h-302v-488q0 -19 -5.5 -24.5t-23.5 -5.5h-99q-16 0 -22.5 7t-6.5 22v600q0 15 6.5 22t22.5 7h430q16 0 22.5 -7z" />
    <glyph glyph-name="delta" unicode="&#x3b4;" 
d="M16 16q0 6 3 12l222 599q6 16 15.5 23.5t25.5 7.5h96q16 0 25 -7.5t16 -23.5l221 -599q3 -6 3 -12q0 -16 -20 -16h-587q-20 0 -20 16zM442 140l-112 330l-114 -330h226z" />
    <glyph glyph-name="epsilon" unicode="&#x3b5;" horiz-adv-x="627" 
d="M573.5 133q6.5 -7 6.5 -22v-82q0 -15 -6.5 -22t-22.5 -7h-448q-16 0 -22.5 7t-6.5 22v600q0 15 6.5 22t22.5 7h431q16 0 22.5 -7t6.5 -22v-83q0 -15 -6.5 -22t-22.5 -7h-302v-109h268q16 0 22.5 -7t6.5 -22v-78q0 -15 -6.5 -22t-22.5 -7h-268v-132h319q16 0 22.5 -7z" />
    <glyph glyph-name="zeta" unicode="&#x3b6;" horiz-adv-x="567" 
d="M524.5 133q6.5 -7 6.5 -22v-82q0 -15 -6.5 -22t-22.5 -7h-436q-19 0 -24.5 5.5t-5.5 23.5v78q0 22 13 38l270 373h-245q-16 0 -22.5 7t-6.5 22v82q0 15 6.5 22t22.5 7h402q16 0 22.5 -7t6.5 -22v-78q0 -22 -13 -39l-268 -372h278q16 0 22.5 -7z" />
    <glyph glyph-name="eta" unicode="&#x3b7;" horiz-adv-x="685" 
d="M604 651.5q7 -6.5 7 -22.5v-600q0 -16 -7 -22.5t-22 -6.5h-99q-15 0 -22 6.5t-7 22.5v226h-223v-226q0 -17 -7 -23t-22 -6h-99q-15 0 -22 6.5t-7 22.5v600q0 16 7 22.5t22 6.5h99q15 0 22 -6t7 -23v-226h223v226q0 16 7 22.5t22 6.5h99q15 0 22 -6.5z" />
    <glyph glyph-name="theta" unicode="&#x3b8;" horiz-adv-x="645" 
d="M550.5 86q-40.5 -51 -102.5 -76t-126 -25t-125.5 24.5t-101.5 76t-40 125.5v236q0 74 40 125.5t101.5 76t125.5 24.5t126 -25t102.5 -76t40.5 -125v-236q0 -74 -40.5 -125zM300 259q-15 0 -22 6.5t-7 22.5v78q0 16 7 22.5t22 6.5h134v38q0 47 -31 74t-81 27t-80.5 -27
t-30.5 -74v-208q0 -47 30.5 -74t80.5 -27t81 27t31 74v34h-134z" />
    <glyph glyph-name="iota" unicode="&#x3b9;" horiz-adv-x="444" 
d="M382.5 130q6.5 -7 6.5 -22v-79q0 -15 -6.5 -22t-22.5 -7h-283q-16 0 -22.5 7t-6.5 22v79q0 15 6.5 22t22.5 7h63v382h-61q-16 0 -22.5 7t-6.5 22v81q0 15 6.5 22t22.5 7h278q16 0 22.5 -7t6.5 -22v-81q0 -15 -6.5 -22t-22.5 -7h-60v-382h63q16 0 22.5 -7z" />
    <glyph glyph-name="kappa" unicode="&#x3ba;" horiz-adv-x="654" 
d="M634 654q4 -4 4 -10q0 -8 -6 -14l-225 -244l215 -354q4 -5 4 -14q0 -7 -5 -12.5t-14 -5.5h-122q-17 0 -28.5 7.5t-21.5 24.5l-143 240l-62 -65v-178q0 -16 -7 -22.5t-21 -6.5h-99q-15 0 -22 6t-7 23v600q0 17 7 23t22 6h99q14 0 21 -6.5t7 -22.5v-223l207 228
q15 16 23.5 20t26.5 4h135q8 0 12 -4z" />
    <glyph glyph-name="lambda" unicode="&#x3bb;" 
d="M169.5 6q-7.5 -6 -24.5 -6h-109q-20 0 -20 16q0 6 3 12l222 599q6 16 15.5 23.5t25.5 7.5h96q16 0 25 -7.5t16 -23.5l221 -599q3 -6 3 -12q0 -16 -20 -16h-114q-17 0 -24.5 6t-13.5 24l-146 426l-142 -426q-6 -18 -13.5 -24z" />
    <glyph glyph-name="uni03BC" unicode="&#x3bc;" horiz-adv-x="767" 
d="M686.5 652q6.5 -7 6.5 -22v-601q0 -16 -7 -22.5t-22 -6.5h-96q-15 0 -22 6.5t-7 22.5v339l-100 -175q-13 -21 -29 -21h-50q-10 0 -16 6t-12 15l-101 175v-339q0 -16 -7 -22.5t-22 -6.5h-99q-15 0 -22 6.5t-7 22.5v601q0 15 6.5 22t22.5 7h99q18 0 26.5 -7t13 -15.5
t6.5 -11.5l137 -246l138 246q2 3 6.5 12.5t14 15.5t24.5 6h96q16 0 22.5 -7z" />
    <glyph glyph-name="nu" unicode="&#x3bd;" horiz-adv-x="682" 
d="M601 651.5q7 -6.5 7 -22.5v-600q0 -15 -6.5 -22t-22.5 -7h-91q-17 0 -24.5 7t-20.5 27l-212 343v-348q0 -16 -7 -22.5t-22 -6.5h-99q-15 0 -22 6.5t-7 22.5v600q0 15 6.5 22t22.5 7h94q17 0 24.5 -7t20.5 -27l212 -342v347q0 16 7 22.5t22 6.5h96q15 0 22 -6.5z" />
    <glyph glyph-name="xi" unicode="&#x3be;" horiz-adv-x="604" 
d="M545 650.5q7 -6.5 7 -22.5v-82q0 -16 -7 -22.5t-22 -6.5h-442q-15 0 -22 6.5t-7 22.5v82q0 16 7 22.5t22 6.5h442q15 0 22 -6.5zM495 392.5q7 -6.5 7 -22.5v-82q0 -16 -7 -22.5t-22 -6.5h-342q-15 0 -22 6.5t-7 22.5v82q0 16 7 22.5t22 6.5h342q15 0 22 -6.5zM545 132.5
q7 -6.5 7 -22.5v-82q0 -16 -7 -22.5t-22 -6.5h-442q-15 0 -22 6.5t-7 22.5v82q0 16 7 22.5t22 6.5h442q15 0 22 -6.5z" />
    <glyph glyph-name="omicron" unicode="&#x3bf;" horiz-adv-x="645" 
d="M550.5 86q-40.5 -51 -102.5 -76t-126 -25t-125.5 24.5t-101.5 76t-40 125.5v236q0 74 40 125.5t101.5 76t125.5 24.5t126 -25t102.5 -76t40.5 -125v-236q0 -74 -40.5 -125zM403 507q-31 27 -81 27t-80.5 -27t-30.5 -74v-208q0 -47 30.5 -74t80.5 -27t81 27t31 74v208
q0 47 -31 74z" />
    <glyph glyph-name="pi" unicode="&#x3c0;" horiz-adv-x="666" 
d="M585.5 651q6.5 -7 6.5 -22v-600q0 -15 -6.5 -22t-22.5 -7h-99q-18 0 -23.5 5.5t-5.5 24.5v488h-204v-488q0 -19 -5.5 -24.5t-23.5 -5.5h-99q-16 0 -22.5 7t-6.5 22v600q0 15 6.5 22t22.5 7h460q16 0 22.5 -7z" />
    <glyph glyph-name="rho" unicode="&#x3c1;" horiz-adv-x="628" 
d="M522 595q68 -63 68 -169t-68.5 -168.5t-194.5 -62.5h-96v-166q0 -16 -7 -22.5t-22 -6.5h-99q-15 0 -22 6.5t-7 22.5v600q0 15 6.5 22t22.5 7h225q126 0 194 -63zM410.5 356.5q28.5 26.5 28.5 66.5q0 42 -28 68t-84 26h-96v-187h96q55 0 83.5 26.5z" />
    <glyph glyph-name="uni03C2" unicode="&#x3c2;" horiz-adv-x="610" 
d="M556.5 133q6.5 -7 6.5 -22v-82q0 -15 -6.5 -22t-22.5 -7h-431q-16 0 -22.5 7t-6.5 22v53q0 14 6 25t17 24l167 198l-166 208q-2 3 -9.5 12.5t-11 18t-3.5 18.5v43q0 15 6.5 22t22.5 7h421q16 0 22.5 -7t6.5 -22v-83q0 -15 -6.5 -22t-22.5 -7h-222q57 -74 92 -114
q21 -25 26 -33.5t5 -21.5v-38q0 -13 -4.5 -20.5t-26.5 -31.5q-52 -57 -102 -118h242q16 0 22.5 -7z" />
    <glyph glyph-name="sigma" unicode="&#x3c3;" horiz-adv-x="610" 
d="M556.5 133q6.5 -7 6.5 -22v-82q0 -15 -6.5 -22t-22.5 -7h-431q-16 0 -22.5 7t-6.5 22v53q0 14 6 25t17 24l167 198l-166 208q-2 3 -9.5 12.5t-11 18t-3.5 18.5v43q0 15 6.5 22t22.5 7h421q16 0 22.5 -7t6.5 -22v-83q0 -15 -6.5 -22t-22.5 -7h-222q57 -74 92 -114
q21 -25 26 -33.5t5 -21.5v-38q0 -13 -4.5 -20.5t-26.5 -31.5q-52 -57 -102 -118h242q16 0 22.5 -7z" />
    <glyph glyph-name="tau" unicode="&#x3c4;" horiz-adv-x="574" 
d="M541.5 651q6.5 -7 6.5 -22v-83q0 -15 -6.5 -22t-22.5 -7h-153v-488q0 -16 -7 -22.5t-22 -6.5h-99q-15 0 -22 6.5t-7 22.5v488h-154q-16 0 -22.5 7t-6.5 22v83q0 15 6.5 22t22.5 7h464q16 0 22.5 -7z" />
    <glyph glyph-name="upsilon" unicode="&#x3c5;" horiz-adv-x="604" 
d="M593 641q0 -5 -2 -11l-206 -383v-218q0 -16 -7 -22.5t-22 -6.5h-100q-15 0 -22 6t-7 23v218l-214 383q-2 6 -2 11q0 17 18 17h115q18 0 27.5 -5.5t19.5 -24.5l117 -215l113 215q9 19 18.5 24.5t27.5 5.5h108q18 0 18 -17z" />
    <glyph glyph-name="phi" unicode="&#x3c6;" horiz-adv-x="804" 
d="M475 4.5q-7 -6.5 -22 -6.5h-99q-15 0 -22 6.5t-7 22.5v51h-36q-110 0 -183.5 49.5t-73.5 177.5v46q0 131 73.5 181t183.5 50h36v51q0 16 7 22.5t22 6.5h99q29 0 29 -31v-49h36q110 0 183.5 -50t73.5 -181v-46q0 -128 -73.5 -177.5t-183.5 -49.5h-36v-51q0 -16 -7 -22.5z
M213 233.5q26 -24.5 76 -24.5h40v243h-40q-49 0 -75.5 -26.5t-26.5 -74.5v-45q0 -48 26 -72.5zM594 233.5q26 24.5 26 72.5v45q0 48 -26.5 74.5t-75.5 26.5h-39v-243h39q50 0 76 24.5z" />
    <glyph glyph-name="chi" unicode="&#x3c7;" horiz-adv-x="586" 
d="M567 18q0 -7 -4.5 -12.5t-11.5 -5.5h-114q-18 0 -26 4.5t-18 23.5l-99 178l-100 -178q-9 -18 -17.5 -23t-26.5 -5h-114q-7 0 -11.5 5.5t-4.5 12.5q0 8 4 13l178 306l-181 293q-3 5 -3 10q0 7 5 12.5t13 5.5h118q14 0 22 -6t18 -23l100 -161l99 161q11 17 19 23t22 6h117
q8 0 13 -5t5 -12q0 -6 -3 -11l-180 -293l177 -306q4 -5 4 -13z" />
    <glyph glyph-name="psi" unicode="&#x3c8;" horiz-adv-x="804" 
d="M594 283.5q26 24.5 26 72.5v275q0 16 7 23t23 7h95q16 0 23 -7t7 -23v-276q0 -128 -73.5 -177.5t-183.5 -49.5h-36v-101q0 -16 -7 -22.5t-22 -6.5h-99q-15 0 -22 6.5t-7 22.5v101h-36q-110 0 -183.5 49.5t-73.5 177.5v276q0 16 7 23t23 7h95q16 0 23 -7t7 -23v-275
q0 -48 26 -72.5t76 -24.5h40l-4 374q0 16 7 22.5t22 6.5h99q29 0 29 -31l-3 -372h39q50 0 76 24.5z" />
    <glyph glyph-name="omega" unicode="&#x3c9;" horiz-adv-x="645" 
d="M584.5 133q6.5 -7 6.5 -22v-82q0 -15 -6.5 -22t-22.5 -7h-174q-16 0 -23 7t-7 23v90q0 19 6 26.5t18 13.5q3 2 9 5.5t10 7.5q33 29 33 78v182q0 47 -31 74t-81 27t-80.5 -27t-30.5 -74v-182q0 -59 44 -87l13 -6.5t14.5 -13t5.5 -24.5v-90q0 -16 -7 -23t-23 -7h-174
q-16 0 -22.5 7t-6.5 22v82q0 15 6.5 22t22.5 7h57q-86 62 -86 171v136q0 74 40 125.5t101.5 76t125.5 24.5t126 -25t102.5 -76t40.5 -125v-136q0 -56 -23.5 -98.5t-64.5 -72.5h59q16 0 22.5 -7z" />
    <glyph glyph-name="iotadieresis" unicode="&#x3ca;" horiz-adv-x="481" 
d="M197.5 850.5q7.5 -6.5 7.5 -23.5v-66q0 -16 -7.5 -22.5t-21.5 -6.5h-108q-14 0 -21 6.5t-7 22.5v66q0 17 7 23.5t21 6.5h108q14 0 21.5 -6.5zM441 850.5q7 -6.5 7 -23.5v-66q0 -16 -7 -22.5t-22 -6.5h-108q-14 0 -21 6.5t-7 22.5v66q0 17 7 23.5t21 6.5h108q15 0 22 -6.5
zM404.5 130q6.5 -7 6.5 -22v-79q0 -15 -6.5 -22t-22.5 -7h-283q-16 0 -22.5 7t-6.5 22v79q0 15 6.5 22t22.5 7h63v382h-61q-16 0 -22.5 7t-6.5 22v81q0 15 6.5 22t22.5 7h278q16 0 22.5 -7t6.5 -22v-81q0 -15 -6.5 -22t-22.5 -7h-60v-382h63q16 0 22.5 -7z" />
    <glyph glyph-name="upsilondieresis" unicode="&#x3cb;" horiz-adv-x="613" 
d="M102 741.5q-7 6.5 -7 22.5v65q0 16 7 22.5t22 6.5h110q15 0 22 -6.5t7 -22.5v-65q0 -16 -7 -22.5t-22 -6.5h-110q-15 0 -22 6.5zM350 741.5q-7 6.5 -7 22.5v65q0 16 7 22.5t22 6.5h110q15 0 22 -6.5t7 -22.5v-65q0 -16 -7 -22.5t-22 -6.5h-110q-15 0 -22 6.5zM590 653
q5 -5 5 -12q0 -6 -3 -11l-206 -383v-218q0 -16 -7 -22.5t-22 -6.5h-100q-15 0 -22 6.5t-7 22.5v218l-214 383q-2 6 -2 11q0 17 18 17h115q18 0 27.5 -5.5t19.5 -24.5l117 -215l113 215q10 19 19 24.5t27 5.5h108q9 0 14 -5z" />
    <glyph glyph-name="omicrontonos" unicode="&#x3cc;" horiz-adv-x="786" 
d="M690.5 86q-40.5 -51 -102.5 -76t-126 -25t-125.5 24.5t-101.5 76t-40 125.5v236q0 74 40 125.5t101.5 76t125.5 24.5t126 -25t102.5 -76t40.5 -125v-236q0 -74 -40.5 -125zM5.5 452q-5.5 8 -5.5 20v158q1 17 13 22.5t32 5.5h101q9 0 16.5 -4t7.5 -13l-45 -169
q-3 -11 -16 -19.5t-31 -8.5h-57q-10 0 -15.5 8zM543 507q-31 27 -81 27t-80.5 -27t-30.5 -74v-208q0 -47 30.5 -74t80.5 -27t81 27t31 74v208q0 47 -31 74z" />
    <glyph glyph-name="upsilontonos" unicode="&#x3cd;" horiz-adv-x="804" 
d="M5.5 452q-5.5 8 -5.5 20v158q1 17 13 22.5t32 5.5h101q9 0 16.5 -4t7.5 -13l-45 -169q-3 -11 -16 -19.5t-31 -8.5h-57q-10 0 -15.5 8zM793 641q0 -5 -2 -11l-206 -383v-218q0 -16 -7 -22.5t-22 -6.5h-100q-15 0 -22 6t-7 23v218l-214 383q-2 6 -2 11q0 17 18 17h115
q18 0 27.5 -5.5t19.5 -24.5l117 -215l113 215q9 19 18.5 24.5t27.5 5.5h108q18 0 18 -17z" />
    <glyph glyph-name="omegatonos" unicode="&#x3ce;" horiz-adv-x="765" 
d="M704.5 133q6.5 -7 6.5 -22v-82q0 -15 -6.5 -22t-22.5 -7h-174q-16 0 -23 7t-7 23v90q0 19 6 26.5t18 13.5q3 2 9 5.5t10 7.5q33 29 33 78v182q0 47 -31 74t-81 27t-80.5 -27t-30.5 -74v-182q0 -59 44 -87l13 -6.5t14.5 -13t5.5 -24.5v-90q0 -16 -7 -23t-23 -7h-174
q-16 0 -22.5 7t-6.5 22v82q0 15 6.5 22t22.5 7h57q-86 62 -86 171v136q0 74 40 125.5t101.5 76t125.5 24.5t126 -25t102.5 -76t40.5 -125v-136q0 -56 -23.5 -98.5t-64.5 -72.5h59q16 0 22.5 -7zM5.5 452q-5.5 8 -5.5 20v158q1 17 13 22.5t32 5.5h101q9 0 16.5 -4t7.5 -13
l-45 -169q-3 -11 -16 -19.5t-31 -8.5h-57q-10 0 -15.5 8z" />
    <glyph glyph-name="uni0410" unicode="&#x410;" 
d="M643 16q0 -16 -20 -16h-105q-17 0 -24.5 6t-13.5 24l-28 79h-245l-28 -79q-6 -18 -13.5 -24t-24.5 -6h-105q-20 0 -20 16q0 6 3 12l222 599q6 16 15.5 23.5t25.5 7.5h96q16 0 25 -7.5t16 -23.5l221 -599q3 -6 3 -12zM330 470l-75 -221h150z" />
    <glyph glyph-name="uni0411" unicode="&#x411;" horiz-adv-x="669" 
d="M554.5 652q6.5 -7 6.5 -22v-77q0 -15 -6.5 -22t-22.5 -7h-301v-109h130q134 0 197.5 -49t63.5 -155q0 -211 -263 -211h-256q-16 0 -22.5 7t-6.5 22v601q0 16 7 22.5t22 6.5h429q16 0 22.5 -7zM231 138h127q57 0 84 17.5t27 56.5q0 38 -25 55t-83 17h-130v-146z" />
    <glyph glyph-name="uni0412" unicode="&#x412;" horiz-adv-x="687" 
d="M576 321.5q21 -15.5 40 -48.5t19 -81q0 -93 -65 -142.5t-173 -49.5h-294q-16 0 -22.5 7t-6.5 22v601q0 15 6.5 22t22.5 7h280q78 0 130.5 -25t77.5 -66t25 -90q0 -64 -25.5 -95.5t-47.5 -41.5q12 -4 33 -19.5zM476 207q0 33 -22 47t-61 14h-23q-16 0 -22.5 7t-6.5 22v76
q0 15 6.5 22t22.5 7h13q83 0 83 60q0 32 -20.5 44t-62.5 12h-152v-376h168q77 0 77 65z" />
    <glyph glyph-name="uni0413" unicode="&#x413;" horiz-adv-x="540" 
d="M231 29q0 -16 -7 -22.5t-22 -6.5h-99q-15 0 -22 6.5t-7 22.5v601q0 16 7 22.5t22 6.5h372q16 0 22.5 -7t6.5 -22v-79q0 -15 -6.5 -22t-22.5 -7h-244v-493z" />
    <glyph glyph-name="uni0414" unicode="&#x414;" horiz-adv-x="704" 
d="M168 11v-63q0 -16 -7 -22.5t-22 -6.5h-83q-15 0 -22 6.5t-7 22.5v172q0 15 6.5 22t22.5 7q38 0 51 16.5t16 49.5l32 414q0 16 7 22.5t22 6.5h384q15 0 22 -6.5t7 -22.5v-480h48q16 0 22.5 -7t6.5 -22v-172q0 -16 -7 -22.5t-22 -6.5h-82q-15 0 -22 6.5t-7 22.5v63h-366z
M237 142h208v381h-143l-25 -316q-3 -53 -40 -65z" />
    <glyph glyph-name="uni0415" unicode="&#x415;" horiz-adv-x="627" 
d="M573.5 133q6.5 -7 6.5 -22v-82q0 -15 -6.5 -22t-22.5 -7h-448q-16 0 -22.5 7t-6.5 22v600q0 15 6.5 22t22.5 7h431q16 0 22.5 -7t6.5 -22v-83q0 -15 -6.5 -22t-22.5 -7h-302v-109h268q16 0 22.5 -7t6.5 -22v-78q0 -15 -6.5 -22t-22.5 -7h-268v-132h319q16 0 22.5 -7z" />
    <glyph glyph-name="uni0416" unicode="&#x416;" horiz-adv-x="941" 
d="M902 654q4 -4 4 -10q0 -8 -6 -14l-199 -240l219 -358q4 -5 4 -14q0 -7 -5 -12.5t-14 -5.5h-119q-17 0 -28.5 7.5t-21.5 24.5q-91 159 -142 244l-46 -58v-189q0 -16 -7 -22.5t-21 -6.5h-99q-15 0 -22 6t-7 23v190l-45 57q-51 -86 -142 -244q-10 -17 -21.5 -24.5
t-28.5 -7.5h-119q-9 0 -14 5.5t-5 12.5q0 9 4 14l219 358l-199 240q-6 6 -6 14q0 6 4 10t12 4h127q18 0 26.5 -4t23.5 -20l164 -220v215q0 17 7 23t22 6h99q14 0 21 -6.5t7 -22.5v-217l165 222q15 16 23.5 20t26.5 4h127q8 0 12 -4z" />
    <glyph glyph-name="uni0417" unicode="&#x417;" horiz-adv-x="574" 
d="M200 386q7 6 20 6h45q47 0 69.5 16t22.5 49q0 43 -26.5 61.5t-64.5 18.5q-77 0 -94 -56q-3 -13 -7.5 -17t-17.5 -4h-87q-17 0 -22.5 5t-5.5 24q0 52 30.5 94t82.5 65.5t115 23.5q108 -1 177 -55t69 -157q0 -45 -24 -80.5t-56 -44.5q43 -16 71 -53t28 -85
q0 -111 -70.5 -161t-183.5 -51q-63 0 -118 25t-88.5 68.5t-33.5 95.5q0 19 5.5 24.5t22.5 5.5h89q12 0 17 -4.5t8 -17.5q10 -32 41 -45.5t63 -13.5q37 0 65.5 19t28.5 56q0 78 -106 78h-47q-15 0 -20 6t-5 21v66q0 11 7 17z" />
    <glyph glyph-name="uni0418" unicode="&#x418;" horiz-adv-x="682" 
d="M200 658q15 0 22 -6.5t7 -22.5v-347l212 342q13 20 20.5 27t24.5 7h94q16 0 22.5 -7t6.5 -22v-600q0 -16 -7 -22.5t-22 -6.5h-99q-15 0 -22 6.5t-7 22.5v348l-212 -343q-13 -20 -20.5 -27t-24.5 -7h-91q-16 0 -22.5 7t-6.5 22v600q0 16 7 22.5t22 6.5h96z" />
    <glyph glyph-name="uni0419" unicode="&#x419;" horiz-adv-x="682" 
d="M520 861l-1 -10q-9 -60 -54 -91t-110 -32q-65 1 -110.5 32t-53.5 91l-1 7q0 13 10 13h50q7 0 10 -4t6 -12q9 -23 35 -36t54 -13t53.5 13t35.5 36q3 8 6 12t10 4h50q11 0 10 -10zM82 651.5q-7 -6.5 -7 -22.5v-600q0 -15 6.5 -22t22.5 -7h91q17 0 24.5 7t20.5 27l212 343
v-348q0 -16 7 -22.5t22 -6.5h99q15 0 22 6.5t7 22.5v600q0 15 -6.5 22t-22.5 7h-94q-17 0 -24.5 -7t-20.5 -27l-212 -342v347q0 16 -7 22.5t-22 6.5h-96q-15 0 -22 -6.5z" />
    <glyph glyph-name="uni041A" unicode="&#x41a;" horiz-adv-x="654" 
d="M634 654q4 -4 4 -10q0 -8 -6 -14l-225 -244l215 -354q4 -5 4 -14q0 -7 -5 -12.5t-14 -5.5h-122q-17 0 -28.5 7.5t-21.5 24.5l-143 240l-62 -65v-178q0 -16 -7 -22.5t-21 -6.5h-99q-15 0 -22 6t-7 23v600q0 17 7 23t22 6h99q14 0 21 -6.5t7 -22.5v-223l207 228
q15 16 23.5 20t26.5 4h135q8 0 12 -4z" />
    <glyph glyph-name="uni041B" unicode="&#x41b;" horiz-adv-x="668" 
d="M144 651.5q7 6.5 22 6.5h399q15 0 22 -6.5t7 -22.5v-600q0 -16 -7 -22.5t-22 -6.5h-99q-15 0 -22 6.5t-7 22.5v489h-160l-22 -326q-6 -81 -22.5 -122t-53.5 -57.5t-110 -16.5q-22 0 -31 1.5t-12 7.5t-3 19v75q0 14 4.5 20.5t17.5 6.5q32 0 42.5 16t13.5 51l36 436
q0 16 7 22.5z" />
    <glyph glyph-name="uni041C" unicode="&#x41c;" horiz-adv-x="767" 
d="M686.5 652q6.5 -7 6.5 -22v-601q0 -16 -7 -22.5t-22 -6.5h-96q-15 0 -22 6.5t-7 22.5v339l-100 -175q-13 -21 -29 -21h-50q-10 0 -16 6t-12 15l-101 175v-339q0 -16 -7 -22.5t-22 -6.5h-99q-15 0 -22 6.5t-7 22.5v601q0 15 6.5 22t22.5 7h99q18 0 26.5 -7t13 -15.5
t6.5 -11.5l137 -246l138 246q2 3 6.5 12.5t14 15.5t24.5 6h96q16 0 22.5 -7z" />
    <glyph glyph-name="uni041D" unicode="&#x41d;" horiz-adv-x="685" 
d="M604 651.5q7 -6.5 7 -22.5v-600q0 -16 -7 -22.5t-22 -6.5h-99q-15 0 -22 6.5t-7 22.5v226h-223v-226q0 -17 -7 -23t-22 -6h-99q-15 0 -22 6.5t-7 22.5v600q0 16 7 22.5t22 6.5h99q15 0 22 -6t7 -23v-226h223v226q0 16 7 22.5t22 6.5h99q15 0 22 -6.5z" />
    <glyph glyph-name="uni041E" unicode="&#x41e;" horiz-adv-x="645" 
d="M550.5 86q-40.5 -51 -102.5 -76t-126 -25t-125.5 24.5t-101.5 76t-40 125.5v236q0 74 40 125.5t101.5 76t125.5 24.5t126 -25t102.5 -76t40.5 -125v-236q0 -74 -40.5 -125zM403 507q-31 27 -81 27t-80.5 -27t-30.5 -74v-208q0 -47 30.5 -74t80.5 -27t81 27t31 74v208
q0 47 -31 74z" />
    <glyph glyph-name="uni041F" unicode="&#x41f;" horiz-adv-x="685" 
d="M604 651.5q7 -6.5 7 -22.5v-600q0 -16 -7 -22.5t-22 -6.5h-99q-15 0 -22 6.5t-7 22.5v489h-223v-489q0 -17 -7 -23t-22 -6h-99q-15 0 -22 6.5t-7 22.5v600q0 16 7 22.5t22 6.5h479q15 0 22 -6.5z" />
    <glyph glyph-name="uni0420" unicode="&#x420;" horiz-adv-x="628" 
d="M522 595q68 -63 68 -169t-68.5 -168.5t-194.5 -62.5h-96v-166q0 -16 -7 -22.5t-22 -6.5h-99q-15 0 -22 6.5t-7 22.5v600q0 15 6.5 22t22.5 7h225q126 0 194 -63zM410.5 356.5q28.5 26.5 28.5 66.5q0 42 -28 68t-84 26h-96v-187h96q55 0 83.5 26.5z" />
    <glyph glyph-name="uni0421" unicode="&#x421;" horiz-adv-x="632" 
d="M543 85q-38 -48 -98.5 -74t-123.5 -26q-64 0 -125.5 25t-102 76t-40.5 125v236q0 74 40.5 125t102 76t125.5 25t121 -21.5t95 -64.5t44 -104q0 -18 -6.5 -23.5t-24.5 -5.5h-96q-10 0 -15 5t-8.5 13t-6.5 13q-16 25 -39.5 36.5t-63.5 11.5q-50 0 -80.5 -26.5t-30.5 -73.5
v-208q0 -47 30.5 -73.5t80.5 -26.5q43 0 71 17t34 51q3 19 7.5 27.5t19.5 8.5h98q16 0 23 -8t7 -26q0 -62 -38 -110z" />
    <glyph glyph-name="uni0422" unicode="&#x422;" horiz-adv-x="574" 
d="M541.5 651q6.5 -7 6.5 -22v-83q0 -15 -6.5 -22t-22.5 -7h-153v-488q0 -16 -7 -22.5t-22 -6.5h-99q-15 0 -22 6.5t-7 22.5v488h-154q-16 0 -22.5 7t-6.5 22v83q0 15 6.5 22t22.5 7h464q16 0 22.5 -7z" />
    <glyph glyph-name="uni0423" unicode="&#x423;" horiz-adv-x="653" 
d="M631 653.5q5 -5.5 5 -13.5q0 -4 -2 -10l-291 -602q-9 -18 -17.5 -23t-26.5 -5h-111q-7 0 -11.5 5.5t-4.5 12.5q0 8 4 13l75 153l-223 446q-2 6 -2 10q0 8 5 13.5t15 5.5h119q17 0 24.5 -5t14.5 -21l70 -143l60 -137l61 136l68 140q8 17 16 23.5t26 6.5h111q10 0 15 -5.5z
" />
    <glyph glyph-name="uni0424" unicode="&#x424;" horiz-adv-x="804" 
d="M475 4.5q-7 -6.5 -22 -6.5h-99q-15 0 -22 6.5t-7 22.5v51h-36q-110 0 -183.5 49.5t-73.5 177.5v46q0 131 73.5 181t183.5 50h36v51q0 16 7 22.5t22 6.5h99q29 0 29 -31v-49h36q110 0 183.5 -50t73.5 -181v-46q0 -128 -73.5 -177.5t-183.5 -49.5h-36v-51q0 -16 -7 -22.5z
M213 233.5q26 -24.5 76 -24.5h40v243h-40q-49 0 -75.5 -26.5t-26.5 -74.5v-45q0 -48 26 -72.5zM594 233.5q26 24.5 26 72.5v45q0 48 -26.5 74.5t-75.5 26.5h-39v-243h39q50 0 76 24.5z" />
    <glyph glyph-name="uni0425" unicode="&#x425;" horiz-adv-x="586" 
d="M567 18q0 -7 -4.5 -12.5t-11.5 -5.5h-114q-18 0 -26 4.5t-18 23.5l-99 178l-100 -178q-9 -18 -17.5 -23t-26.5 -5h-114q-7 0 -11.5 5.5t-4.5 12.5q0 8 4 13l178 306l-181 293q-3 5 -3 10q0 7 5 12.5t13 5.5h118q14 0 22 -6t18 -23l100 -161l99 161q11 17 19 23t22 6h117
q8 0 13 -5t5 -12q0 -6 -3 -11l-180 -293l177 -306q4 -5 4 -13z" />
    <glyph glyph-name="uni0426" unicode="&#x426;" horiz-adv-x="704" 
d="M80 6.5q-7 6.5 -7 22.5v600q0 16 7 22.5t22 6.5h99q15 0 22 -6.5t7 -22.5v-498h209v498q0 17 7 23t22 6h99q15 0 22 -6.5t7 -22.5v-491h48q16 0 22.5 -7t6.5 -22v-172q0 -16 -7 -22.5t-22 -6.5h-82q-15 0 -22 6.5t-7 22.5v63h-431q-15 0 -22 6.5z" />
    <glyph glyph-name="uni0427" unicode="&#x427;" horiz-adv-x="661" 
d="M230 382.5q24 -21.5 73 -21.5h127v268q0 16 7 22.5t22 6.5h99q15 0 22 -6.5t7 -22.5v-600q0 -16 -7 -22.5t-22 -6.5h-99q-15 0 -22 6.5t-7 22.5v193h-129q-114 0 -182.5 49t-68.5 177v182q0 16 7 22.5t22 6.5h98q15 0 22 -6.5t7 -22.5v-181q0 -45 24 -66.5z" />
    <glyph glyph-name="uni0428" unicode="&#x428;" horiz-adv-x="1006" 
d="M81 6.5q-7 6.5 -7 22.5v601q0 16 7 22.5t22 6.5h99q15 0 22 -6.5t7 -22.5v-493h193v493q0 16 7 22.5t22 6.5h102q15 0 21 -6.5t6 -22.5v-493h193v493q0 17 7 23t22 6h99q15 0 22 -6.5t7 -22.5v-601q0 -16 -7 -22.5t-22 -6.5h-800q-15 0 -22 6.5z" />
    <glyph glyph-name="uni0429" unicode="&#x429;" horiz-adv-x="1041" 
d="M782 653q7 6 22 6h99q15 0 22 -6.5t7 -22.5v-492h47q16 0 22.5 -7t6.5 -22v-172q0 -16 -7 -22.5t-22 -6.5h-82q-15 0 -22 6.5t-7 22.5v63h-765q-15 0 -22 6.5t-7 22.5v601q0 16 7 22.5t22 6.5h99q15 0 22 -6.5t7 -22.5v-493h193v493q0 16 7 22.5t22 6.5h102q15 0 21 -6.5
t6 -22.5v-493h193v493q0 17 7 23z" />
    <glyph glyph-name="uni042A" unicode="&#x42a;" horiz-adv-x="698" 
d="M136.5 7q-6.5 7 -6.5 22v487h-68q-16 0 -22.5 7t-6.5 22v85q0 15 6.5 22t22.5 7h196q15 0 22 -6.5t7 -22.5v-185h96q128 0 195.5 -57t67.5 -164q0 -105 -67.5 -164.5t-194.5 -59.5h-225q-16 0 -22.5 7zM287 141h96q57 0 84.5 22t27.5 62q0 39 -28 62t-84 23h-96v-169z
" />
    <glyph glyph-name="uni042B" unicode="&#x42b;" horiz-adv-x="916" 
d="M80.5 7q-6.5 7 -6.5 22v601q0 16 7 22.5t22 6.5h99q15 0 22 -6.5t7 -22.5v-185h96q128 0 195.5 -57t67.5 -164q0 -105 -67.5 -164.5t-194.5 -59.5h-225q-16 0 -22.5 7zM835 6.5q-7 -6.5 -22 -6.5h-99q-15 0 -22 6.5t-7 22.5v601q0 16 7 22.5t22 6.5h99q15 0 22 -6.5
t7 -22.5v-601q0 -16 -7 -22.5zM231 141h96q57 0 84.5 22t27.5 62q0 39 -28 62t-84 23h-96v-169z" />
    <glyph glyph-name="uni042C" unicode="&#x42c;" horiz-adv-x="642" 
d="M80.5 7q-6.5 7 -6.5 22v601q0 16 7 22.5t22 6.5h99q15 0 22 -6.5t7 -22.5v-185h96q128 0 195.5 -57t67.5 -164q0 -105 -67.5 -164.5t-194.5 -59.5h-225q-16 0 -22.5 7zM231 141h96q57 0 84.5 22t27.5 62q0 39 -28 62t-84 23h-96v-169z" />
    <glyph glyph-name="uni042D" unicode="&#x42d;" horiz-adv-x="632" 
d="M52 221q7 8 23 8h98q15 0 19.5 -8.5t7.5 -27.5q6 -34 34 -51t71 -17q50 0 80.5 26.5t30.5 73.5v47h-161q-16 0 -22.5 7t-6.5 22v75q0 15 6.5 22t22.5 7h161v28q0 47 -30.5 73.5t-80.5 26.5q-40 0 -63.5 -11.5t-39.5 -36.5q-3 -5 -6.5 -13.5t-9 -13t-14.5 -4.5h-96
q-18 0 -24.5 5.5t-6.5 23.5q6 61 44 104t95 64.5t121 21.5t125.5 -25t102 -76t40.5 -125v-236q0 -74 -40.5 -125t-102 -76t-125.5 -25q-63 0 -123.5 26t-98.5 74t-38 110q0 18 7 26z" />
    <glyph glyph-name="uni042E" unicode="&#x42e;" horiz-adv-x="941" 
d="M843.5 85.5q-39.5 -51.5 -100.5 -76t-125 -24.5t-124.5 24.5t-99.5 75.5t-39 126v48h-124v-230q0 -17 -7 -23t-22 -6h-99q-15 0 -22 6.5t-7 22.5v600q0 16 7 22.5t22 6.5h99q15 0 22 -6t7 -23v-231h124v49q0 75 39 126t99.5 75.5t124.5 24.5t125 -24.5t100.5 -76
t39.5 -125.5v-236q0 -74 -39.5 -125.5zM697 507.5q-29 26.5 -79 26.5q-49 0 -78 -26.5t-29 -74.5v-208q0 -48 29 -74.5t78 -26.5q50 0 79 26.5t29 74.5v208q0 48 -29 74.5z" />
    <glyph glyph-name="uni042F" unicode="&#x42f;" horiz-adv-x="656" 
d="M184 237q-33 11 -65 39t-53 69.5t-21 90.5q0 48 15 89t43 68q34 34 77.5 49t121.5 15h252q16 0 22 -7t6 -22v-599q0 -16 -7 -22.5t-21 -6.5h-99q-15 0 -22 6.5t-7 22.5v488h-133q-40 0 -66 -23.5t-26 -61.5q0 -34 28.5 -57.5t66.5 -23.5h20q16 0 22.5 -7t6.5 -22v-80
q0 -21 -2 -31.5t-9 -19.5l-108 -161q-11 -16 -22 -23t-28 -7h-118q-9 0 -14 5t-5 13q0 9 4 14z" />
    <glyph glyph-name="uni0430" unicode="&#x430;" 
d="M643 16q0 -16 -20 -16h-105q-17 0 -24.5 6t-13.5 24l-28 79h-245l-28 -79q-6 -18 -13.5 -24t-24.5 -6h-105q-20 0 -20 16q0 6 3 12l222 599q6 16 15.5 23.5t25.5 7.5h96q16 0 25 -7.5t16 -23.5l221 -599q3 -6 3 -12zM330 470l-75 -221h150z" />
    <glyph glyph-name="uni0431" unicode="&#x431;" horiz-adv-x="669" 
d="M554.5 652q6.5 -7 6.5 -22v-77q0 -15 -6.5 -22t-22.5 -7h-301v-109h130q134 0 197.5 -49t63.5 -155q0 -211 -263 -211h-256q-16 0 -22.5 7t-6.5 22v601q0 16 7 22.5t22 6.5h429q16 0 22.5 -7zM231 138h127q57 0 84 17.5t27 56.5q0 38 -25 55t-83 17h-130v-146z" />
    <glyph glyph-name="uni0432" unicode="&#x432;" horiz-adv-x="687" 
d="M576 321.5q21 -15.5 40 -48.5t19 -81q0 -93 -65 -142.5t-173 -49.5h-294q-16 0 -22.5 7t-6.5 22v601q0 15 6.5 22t22.5 7h280q78 0 130.5 -25t77.5 -66t25 -90q0 -64 -25.5 -95.5t-47.5 -41.5q12 -4 33 -19.5zM476 207q0 33 -22 47t-61 14h-23q-16 0 -22.5 7t-6.5 22v76
q0 15 6.5 22t22.5 7h13q83 0 83 60q0 32 -20.5 44t-62.5 12h-152v-376h168q77 0 77 65z" />
    <glyph glyph-name="uni0433" unicode="&#x433;" horiz-adv-x="540" 
d="M231 29q0 -16 -7 -22.5t-22 -6.5h-99q-15 0 -22 6.5t-7 22.5v601q0 16 7 22.5t22 6.5h372q16 0 22.5 -7t6.5 -22v-79q0 -15 -6.5 -22t-22.5 -7h-244v-493z" />
    <glyph glyph-name="uni0434" unicode="&#x434;" horiz-adv-x="713" 
d="M175 11v-63q0 -16 -7 -22.5t-22 -6.5h-83q-15 0 -22 6.5t-7 22.5v172q0 15 6.5 22t22.5 7q38 0 51 16.5t16 49.5l32 414q0 16 7 22.5t22 6.5h384q15 0 22 -6.5t7 -22.5v-480h48q16 0 22.5 -7t6.5 -22v-172q0 -16 -7 -22.5t-22 -6.5h-82q-15 0 -22 6.5t-7 22.5v63h-366z
M244 142h208v381h-143l-25 -316q-3 -53 -40 -65z" />
    <glyph glyph-name="uni0435" unicode="&#x435;" horiz-adv-x="627" 
d="M573.5 133q6.5 -7 6.5 -22v-82q0 -15 -6.5 -22t-22.5 -7h-448q-16 0 -22.5 7t-6.5 22v600q0 15 6.5 22t22.5 7h431q16 0 22.5 -7t6.5 -22v-83q0 -15 -6.5 -22t-22.5 -7h-302v-109h268q16 0 22.5 -7t6.5 -22v-78q0 -15 -6.5 -22t-22.5 -7h-268v-132h319q16 0 22.5 -7z" />
    <glyph glyph-name="uni0436" unicode="&#x436;" horiz-adv-x="941" 
d="M902 654q4 -4 4 -10q0 -8 -6 -14l-199 -240l219 -358q4 -5 4 -14q0 -7 -5 -12.5t-14 -5.5h-119q-17 0 -28.5 7.5t-21.5 24.5q-91 159 -142 244l-46 -58v-189q0 -16 -7 -22.5t-21 -6.5h-99q-15 0 -22 6t-7 23v190l-45 57q-51 -86 -142 -244q-10 -17 -21.5 -24.5
t-28.5 -7.5h-119q-9 0 -14 5.5t-5 12.5q0 9 4 14l219 358l-199 240q-6 6 -6 14q0 6 4 10t12 4h127q18 0 26.5 -4t23.5 -20l164 -220v215q0 17 7 23t22 6h99q14 0 21 -6.5t7 -22.5v-217l165 222q15 16 23.5 20t26.5 4h127q8 0 12 -4z" />
    <glyph glyph-name="uni0437" unicode="&#x437;" horiz-adv-x="574" 
d="M200 386q7 6 20 6h45q47 0 69.5 16t22.5 49q0 43 -26.5 61.5t-64.5 18.5q-77 0 -94 -56q-3 -13 -7.5 -17t-17.5 -4h-87q-17 0 -22.5 5t-5.5 24q0 52 30.5 94t82.5 65.5t115 23.5q108 -1 177 -55t69 -157q0 -45 -24 -80.5t-56 -44.5q43 -16 71 -53t28 -85
q0 -111 -70.5 -161t-183.5 -51q-63 0 -118 25t-88.5 68.5t-33.5 95.5q0 19 5.5 24.5t22.5 5.5h89q12 0 17 -4.5t8 -17.5q10 -32 41 -45.5t63 -13.5q37 0 65.5 19t28.5 56q0 78 -106 78h-47q-15 0 -20 6t-5 21v66q0 11 7 17z" />
    <glyph glyph-name="uni0438" unicode="&#x438;" horiz-adv-x="682" 
d="M200 658q15 0 22 -6.5t7 -22.5v-347l212 342q13 20 20.5 27t24.5 7h94q16 0 22.5 -7t6.5 -22v-600q0 -16 -7 -22.5t-22 -6.5h-99q-15 0 -22 6.5t-7 22.5v348l-212 -343q-13 -20 -20.5 -27t-24.5 -7h-91q-16 0 -22.5 7t-6.5 22v600q0 16 7 22.5t22 6.5h96z" />
    <glyph glyph-name="uni0439" unicode="&#x439;" horiz-adv-x="682" 
d="M520 861l-1 -10q-9 -60 -54 -91t-110 -32q-65 1 -110.5 32t-53.5 91l-1 7q0 13 10 13h50q7 0 10 -4t6 -12q9 -23 35 -36t54 -13t53.5 13t35.5 36q3 8 6 12t10 4h50q11 0 10 -10zM82 651.5q-7 -6.5 -7 -22.5v-600q0 -15 6.5 -22t22.5 -7h91q17 0 24.5 7t20.5 27l212 343
v-348q0 -16 7 -22.5t22 -6.5h99q15 0 22 6.5t7 22.5v600q0 15 -6.5 22t-22.5 7h-94q-17 0 -24.5 -7t-20.5 -27l-212 -342v347q0 16 -7 22.5t-22 6.5h-96q-15 0 -22 -6.5z" />
    <glyph glyph-name="uni043A" unicode="&#x43a;" horiz-adv-x="654" 
d="M634 654q4 -4 4 -10q0 -8 -6 -14l-225 -244l215 -354q4 -5 4 -14q0 -7 -5 -12.5t-14 -5.5h-122q-17 0 -28.5 7.5t-21.5 24.5l-143 240l-62 -65v-178q0 -16 -7 -22.5t-21 -6.5h-99q-15 0 -22 6t-7 23v600q0 17 7 23t22 6h99q14 0 21 -6.5t7 -22.5v-223l207 228
q15 16 23.5 20t26.5 4h135q8 0 12 -4z" />
    <glyph glyph-name="uni043B" unicode="&#x43b;" horiz-adv-x="668" 
d="M144 651.5q7 6.5 22 6.5h399q15 0 22 -6.5t7 -22.5v-600q0 -16 -7 -22.5t-22 -6.5h-99q-15 0 -22 6.5t-7 22.5v489h-160l-22 -326q-6 -81 -22.5 -122t-53.5 -57.5t-110 -16.5q-22 0 -31 1.5t-12 7.5t-3 19v75q0 14 4.5 20.5t17.5 6.5q32 0 42.5 16t13.5 51l36 436
q0 16 7 22.5z" />
    <glyph glyph-name="uni043C" unicode="&#x43c;" horiz-adv-x="767" 
d="M686.5 652q6.5 -7 6.5 -22v-601q0 -16 -7 -22.5t-22 -6.5h-96q-15 0 -22 6.5t-7 22.5v339l-100 -175q-13 -21 -29 -21h-50q-10 0 -16 6t-12 15l-101 175v-339q0 -16 -7 -22.5t-22 -6.5h-99q-15 0 -22 6.5t-7 22.5v601q0 15 6.5 22t22.5 7h99q18 0 26.5 -7t13 -15.5
t6.5 -11.5l137 -246l138 246q2 3 6.5 12.5t14 15.5t24.5 6h96q16 0 22.5 -7z" />
    <glyph glyph-name="uni043D" unicode="&#x43d;" horiz-adv-x="685" 
d="M604 651.5q7 -6.5 7 -22.5v-600q0 -16 -7 -22.5t-22 -6.5h-99q-15 0 -22 6.5t-7 22.5v226h-223v-226q0 -17 -7 -23t-22 -6h-99q-15 0 -22 6.5t-7 22.5v600q0 16 7 22.5t22 6.5h99q15 0 22 -6t7 -23v-226h223v226q0 16 7 22.5t22 6.5h99q15 0 22 -6.5z" />
    <glyph glyph-name="uni043E" unicode="&#x43e;" horiz-adv-x="645" 
d="M550.5 86q-40.5 -51 -102.5 -76t-126 -25t-125.5 24.5t-101.5 76t-40 125.5v236q0 74 40 125.5t101.5 76t125.5 24.5t126 -25t102.5 -76t40.5 -125v-236q0 -74 -40.5 -125zM403 507q-31 27 -81 27t-80.5 -27t-30.5 -74v-208q0 -47 30.5 -74t80.5 -27t81 27t31 74v208
q0 47 -31 74z" />
    <glyph glyph-name="uni043F" unicode="&#x43f;" horiz-adv-x="685" 
d="M604 651.5q7 -6.5 7 -22.5v-600q0 -16 -7 -22.5t-22 -6.5h-99q-15 0 -22 6.5t-7 22.5v489h-223v-489q0 -17 -7 -23t-22 -6h-99q-15 0 -22 6.5t-7 22.5v600q0 16 7 22.5t22 6.5h479q15 0 22 -6.5z" />
    <glyph glyph-name="uni0440" unicode="&#x440;" horiz-adv-x="628" 
d="M522 595q68 -63 68 -169t-68.5 -168.5t-194.5 -62.5h-96v-166q0 -16 -7 -22.5t-22 -6.5h-99q-15 0 -22 6.5t-7 22.5v600q0 15 6.5 22t22.5 7h225q126 0 194 -63zM410.5 356.5q28.5 26.5 28.5 66.5q0 42 -28 68t-84 26h-96v-187h96q55 0 83.5 26.5z" />
    <glyph glyph-name="uni0441" unicode="&#x441;" horiz-adv-x="632" 
d="M543 85q-38 -48 -98.5 -74t-123.5 -26q-64 0 -125.5 25t-102 76t-40.5 125v236q0 74 40.5 125t102 76t125.5 25t121 -21.5t95 -64.5t44 -104q0 -18 -6.5 -23.5t-24.5 -5.5h-96q-10 0 -15 5t-8.5 13t-6.5 13q-16 25 -39.5 36.5t-63.5 11.5q-50 0 -80.5 -26.5t-30.5 -73.5
v-208q0 -47 30.5 -73.5t80.5 -26.5q43 0 71 17t34 51q3 19 7.5 27.5t19.5 8.5h98q16 0 23 -8t7 -26q0 -62 -38 -110z" />
    <glyph glyph-name="uni0442" unicode="&#x442;" horiz-adv-x="574" 
d="M541.5 651q6.5 -7 6.5 -22v-83q0 -15 -6.5 -22t-22.5 -7h-153v-488q0 -16 -7 -22.5t-22 -6.5h-99q-15 0 -22 6.5t-7 22.5v488h-154q-16 0 -22.5 7t-6.5 22v83q0 15 6.5 22t22.5 7h464q16 0 22.5 -7z" />
    <glyph glyph-name="uni0443" unicode="&#x443;" horiz-adv-x="647" 
d="M625 653.5q5 -5.5 5 -13.5q0 -4 -2 -10l-291 -602q-9 -18 -17.5 -23t-26.5 -5h-111q-7 0 -11.5 5.5t-4.5 12.5q0 8 4 13l75 153l-223 446q-2 6 -2 10q0 8 5 13.5t15 5.5h119q17 0 24.5 -5t14.5 -21l70 -143l60 -137l61 136l68 140q8 17 16 23.5t26 6.5h111q10 0 15 -5.5z
" />
    <glyph glyph-name="uni0444" unicode="&#x444;" horiz-adv-x="804" 
d="M475 4.5q-7 -6.5 -22 -6.5h-99q-15 0 -22 6.5t-7 22.5v51h-36q-110 0 -183.5 49.5t-73.5 177.5v46q0 131 73.5 181t183.5 50h36v51q0 16 7 22.5t22 6.5h99q29 0 29 -31v-49h36q110 0 183.5 -50t73.5 -181v-46q0 -128 -73.5 -177.5t-183.5 -49.5h-36v-51q0 -16 -7 -22.5z
M213 233.5q26 -24.5 76 -24.5h40v243h-40q-49 0 -75.5 -26.5t-26.5 -74.5v-45q0 -48 26 -72.5zM594 233.5q26 24.5 26 72.5v45q0 48 -26.5 74.5t-75.5 26.5h-39v-243h39q50 0 76 24.5z" />
    <glyph glyph-name="uni0445" unicode="&#x445;" horiz-adv-x="586" 
d="M567 18q0 -7 -4.5 -12.5t-11.5 -5.5h-114q-18 0 -26 4.5t-18 23.5l-99 178l-100 -178q-9 -18 -17.5 -23t-26.5 -5h-114q-7 0 -11.5 5.5t-4.5 12.5q0 8 4 13l178 306l-181 293q-3 5 -3 10q0 7 5 12.5t13 5.5h118q14 0 22 -6t18 -23l100 -161l99 161q11 17 19 23t22 6h117
q8 0 13 -5t5 -12q0 -6 -3 -11l-180 -293l177 -306q4 -5 4 -13z" />
    <glyph glyph-name="uni0446" unicode="&#x446;" horiz-adv-x="704" 
d="M80 6.5q-7 6.5 -7 22.5v600q0 16 7 22.5t22 6.5h99q15 0 22 -6.5t7 -22.5v-498h209v498q0 17 7 23t22 6h99q15 0 22 -6.5t7 -22.5v-491h48q16 0 22.5 -7t6.5 -22v-172q0 -16 -7 -22.5t-22 -6.5h-82q-15 0 -22 6.5t-7 22.5v63h-431q-15 0 -22 6.5z" />
    <glyph glyph-name="uni0447" unicode="&#x447;" horiz-adv-x="661" 
d="M230 382.5q24 -21.5 73 -21.5h127v268q0 16 7 22.5t22 6.5h99q15 0 22 -6.5t7 -22.5v-600q0 -16 -7 -22.5t-22 -6.5h-99q-15 0 -22 6.5t-7 22.5v193h-129q-114 0 -182.5 49t-68.5 177v182q0 16 7 22.5t22 6.5h98q15 0 22 -6.5t7 -22.5v-181q0 -45 24 -66.5z" />
    <glyph glyph-name="uni0448" unicode="&#x448;" horiz-adv-x="1006" 
d="M81 6.5q-7 6.5 -7 22.5v601q0 16 7 22.5t22 6.5h99q15 0 22 -6.5t7 -22.5v-493h193v493q0 16 7 22.5t22 6.5h102q15 0 21 -6.5t6 -22.5v-493h193v493q0 17 7 23t22 6h99q15 0 22 -6.5t7 -22.5v-601q0 -16 -7 -22.5t-22 -6.5h-800q-15 0 -22 6.5z" />
    <glyph glyph-name="uni0449" unicode="&#x449;" horiz-adv-x="1041" 
d="M782 653q7 6 22 6h99q15 0 22 -6.5t7 -22.5v-492h47q16 0 22.5 -7t6.5 -22v-172q0 -16 -7 -22.5t-22 -6.5h-82q-15 0 -22 6.5t-7 22.5v63h-765q-15 0 -22 6.5t-7 22.5v601q0 16 7 22.5t22 6.5h99q15 0 22 -6.5t7 -22.5v-493h193v493q0 16 7 22.5t22 6.5h102q15 0 21 -6.5
t6 -22.5v-493h193v493q0 17 7 23z" />
    <glyph glyph-name="uni044A" unicode="&#x44a;" horiz-adv-x="701" 
d="M139.5 7q-6.5 7 -6.5 22v487h-68q-16 0 -22.5 7t-6.5 22v85q0 15 6.5 22t22.5 7h196q15 0 22 -6.5t7 -22.5v-185h96q128 0 195.5 -57t67.5 -164q0 -105 -67.5 -164.5t-194.5 -59.5h-225q-16 0 -22.5 7zM290 141h96q57 0 84.5 22t27.5 62q0 39 -28 62t-84 23h-96v-169z
" />
    <glyph glyph-name="uni044B" unicode="&#x44b;" horiz-adv-x="916" 
d="M80.5 7q-6.5 7 -6.5 22v601q0 16 7 22.5t22 6.5h99q15 0 22 -6.5t7 -22.5v-185h96q128 0 195.5 -57t67.5 -164q0 -105 -67.5 -164.5t-194.5 -59.5h-225q-16 0 -22.5 7zM835 6.5q-7 -6.5 -22 -6.5h-99q-15 0 -22 6.5t-7 22.5v601q0 16 7 22.5t22 6.5h99q15 0 22 -6.5
t7 -22.5v-601q0 -16 -7 -22.5zM231 141h96q57 0 84.5 22t27.5 62q0 39 -28 62t-84 23h-96v-169z" />
    <glyph glyph-name="uni044C" unicode="&#x44c;" horiz-adv-x="642" 
d="M80.5 7q-6.5 7 -6.5 22v601q0 16 7 22.5t22 6.5h99q15 0 22 -6.5t7 -22.5v-185h96q128 0 195.5 -57t67.5 -164q0 -105 -67.5 -164.5t-194.5 -59.5h-225q-16 0 -22.5 7zM231 141h96q57 0 84.5 22t27.5 62q0 39 -28 62t-84 23h-96v-169z" />
    <glyph glyph-name="uni044D" unicode="&#x44d;" horiz-adv-x="632" 
d="M52 221q7 8 23 8h98q15 0 19.5 -8.5t7.5 -27.5q6 -34 34 -51t71 -17q50 0 80.5 26.5t30.5 73.5v47h-161q-16 0 -22.5 7t-6.5 22v75q0 15 6.5 22t22.5 7h161v28q0 47 -30.5 73.5t-80.5 26.5q-40 0 -63.5 -11.5t-39.5 -36.5q-3 -5 -6.5 -13.5t-9 -13t-14.5 -4.5h-96
q-18 0 -24.5 5.5t-6.5 23.5q6 61 44 104t95 64.5t121 21.5t125.5 -25t102 -76t40.5 -125v-236q0 -74 -40.5 -125t-102 -76t-125.5 -25q-63 0 -123.5 26t-98.5 74t-38 110q0 18 7 26z" />
    <glyph glyph-name="uni044E" unicode="&#x44e;" horiz-adv-x="941" 
d="M843.5 85.5q-39.5 -51.5 -100.5 -76t-125 -24.5t-124.5 24.5t-99.5 75.5t-39 126v48h-124v-230q0 -17 -7 -23t-22 -6h-99q-15 0 -22 6.5t-7 22.5v600q0 16 7 22.5t22 6.5h99q15 0 22 -6t7 -23v-231h124v49q0 75 39 126t99.5 75.5t124.5 24.5t125 -24.5t100.5 -76
t39.5 -125.5v-236q0 -74 -39.5 -125.5zM697 507.5q-29 26.5 -79 26.5q-49 0 -78 -26.5t-29 -74.5v-208q0 -48 29 -74.5t78 -26.5q50 0 79 26.5t29 74.5v208q0 48 -29 74.5z" />
    <glyph glyph-name="uni044F" unicode="&#x44f;" horiz-adv-x="656" 
d="M184 237q-33 11 -65 39t-53 69.5t-21 90.5q0 48 15 89t43 68q34 34 77.5 49t121.5 15h252q16 0 22 -7t6 -22v-599q0 -16 -7 -22.5t-21 -6.5h-99q-15 0 -22 6.5t-7 22.5v488h-133q-40 0 -66 -23.5t-26 -61.5q0 -34 28.5 -57.5t66.5 -23.5h20q16 0 22.5 -7t6.5 -22v-80
q0 -21 -2 -31.5t-9 -19.5l-108 -161q-11 -16 -22 -23t-28 -7h-118q-9 0 -14 5t-5 13q0 9 4 14z" />
    <glyph glyph-name="endash" unicode="&#x2013;" horiz-adv-x="569" 
d="M513 337.5q7 -6.5 7 -22.5v-78q0 -16 -7 -22.5t-22 -6.5h-413q-15 0 -22 6.5t-7 22.5v78q0 16 7 22.5t22 6.5h413q15 0 22 -6.5z" />
    <glyph glyph-name="emdash" unicode="&#x2014;" horiz-adv-x="765" 
d="M709 337.5q7 -6.5 7 -22.5v-78q0 -16 -7 -22.5t-22 -6.5h-609q-15 0 -22 6.5t-7 22.5v78q0 16 7 22.5t22 6.5h609q15 0 22 -6.5z" />
    <glyph glyph-name="quoteleft" unicode="&#x2018;" horiz-adv-x="301" 
d="M73 367.5q-7 6.5 -7 22.5v90q0 17 1.5 26t5.5 21l57 116q6 9 12 13.5t15 4.5h64q6 0 9.5 -4.5t3.5 -10.5q0 -7 -3 -13l-55 -103h30q15 0 22 -6.5t7 -22.5v-111q0 -16 -7 -22.5t-22 -6.5h-111q-15 0 -22 6.5z" />
    <glyph glyph-name="quoteright" unicode="&#x2019;" horiz-adv-x="305" 
d="M232 492l-57 -116q-6 -9 -12 -13.5t-15 -4.5h-73q-9 0 -9 8q0 5 3 9l60 114h-28q-19 0 -25 6t-6 26v105q0 20 6 26t25 6h107q19 0 25 -6t6 -26v-97q0 -19 -7 -37z" />
    <glyph glyph-name="quotesinglbase" unicode="&#x201a;" horiz-adv-x="301" 
d="M228 162.5q7 -6.5 7 -22.5v-90q0 -17 -1.5 -26t-5.5 -21l-57 -116q-6 -9 -12 -13.5t-15 -4.5h-64q-6 0 -9.5 4.5t-3.5 10.5q0 7 3 13l55 103h-30q-15 0 -22 6.5t-7 22.5v111q0 16 7 22.5t22 6.5h111q15 0 22 -6.5z" />
    <glyph glyph-name="quotedblleft" unicode="&#x201c;" horiz-adv-x="546" 
d="M73 364.5q-7 6.5 -7 22.5v90q0 17 1.5 26t5.5 21l57 116q6 9 12 13.5t15 4.5h64q6 0 9.5 -4t3.5 -10q0 -7 -4 -14l-54 -103h30q15 0 22 -6.5t7 -22.5v-111q0 -16 -7 -22.5t-22 -6.5h-111q-15 0 -22 6.5zM318 364.5q-7 6.5 -7 22.5v90q0 17 1.5 26t5.5 21l57 116
q6 9 12 13.5t15 4.5h64q6 0 9.5 -4.5t3.5 -10.5q0 -7 -3 -13l-55 -103h30q15 0 22 -6.5t7 -22.5v-111q0 -16 -7 -22.5t-22 -6.5h-111q-15 0 -22 6.5z" />
    <glyph glyph-name="quotedblright" unicode="&#x201d;" horiz-adv-x="546" 
d="M228 651.5q7 -6.5 7 -22.5v-90q0 -17 -1.5 -26t-5.5 -21l-57 -116q-6 -9 -12 -13.5t-15 -4.5h-64q-6 0 -9.5 4.5t-3.5 10.5q0 7 3 13l55 103h-30q-15 0 -22 6.5t-7 22.5v111q0 16 7 22.5t22 6.5h111q15 0 22 -6.5zM473 651.5q7 -6.5 7 -22.5v-90q0 -17 -1.5 -26t-5.5 -21
l-57 -116q-6 -9 -12 -13.5t-15 -4.5h-64q-6 0 -9.5 4t-3.5 10q0 7 4 14l54 103h-30q-15 0 -22 6.5t-7 22.5v111q0 16 7 22.5t22 6.5h111q15 0 22 -6.5z" />
    <glyph glyph-name="quotedblbase" unicode="&#x201e;" horiz-adv-x="546" 
d="M228 162.5q7 -6.5 7 -22.5v-90q0 -17 -1.5 -26t-5.5 -21l-57 -116q-6 -9 -12 -13.5t-15 -4.5h-64q-6 0 -9.5 4.5t-3.5 10.5q0 7 3 13l55 103h-30q-15 0 -22 6.5t-7 22.5v111q0 16 7 22.5t22 6.5h111q15 0 22 -6.5zM473 162.5q7 -6.5 7 -22.5v-90q0 -17 -1.5 -26t-5.5 -21
l-57 -116q-6 -9 -12 -13.5t-15 -4.5h-64q-6 0 -9.5 4t-3.5 10q0 7 4 14l54 103h-30q-15 0 -22 6.5t-7 22.5v111q0 16 7 22.5t22 6.5h111q15 0 22 -6.5z" />
    <glyph glyph-name="bullet" unicode="&#x2022;" horiz-adv-x="470" 
d="M109.5 449.5q37.5 37.5 92.5 37.5t93 -37.5t38 -92.5q0 -36 -17.5 -66t-47.5 -47.5t-66 -17.5q-55 0 -92.5 38t-37.5 93t37.5 92.5z" />
    <glyph glyph-name="ellipsis" unicode="&#x2026;" horiz-adv-x="899" 
d="M219 161.5q7 -6.5 7 -22.5v-111q0 -16 -7 -22.5t-22 -6.5h-111q-15 0 -22 6.5t-7 22.5v111q0 16 7 22.5t22 6.5h111q15 0 22 -6.5zM495 161.5q7 -6.5 7 -22.5v-111q0 -16 -7 -22.5t-22 -6.5h-111q-15 0 -22 6.5t-7 22.5v111q0 16 7 22.5t22 6.5h111q15 0 22 -6.5z
M771 161.5q7 -6.5 7 -22.5v-111q0 -16 -7 -22.5t-22 -6.5h-111q-15 0 -22 6.5t-7 22.5v111q0 16 7 22.5t22 6.5h111q15 0 22 -6.5z" />
    <glyph glyph-name="perthousand" unicode="&#x2030;" horiz-adv-x="1243" 
d="M673 682q0 -4 -2 -10l-352 -643q-8 -14 -15.5 -21.5t-20.5 -7.5h-58q-18 0 -18 14q0 3 2 11l351 643q8 14 16 22t21 8h58q18 0 18 -16zM302.5 364.5q-42.5 -36.5 -102.5 -36.5t-102.5 36.5t-42.5 95.5v87q0 59 42.5 96t102.5 37t102.5 -37t42.5 -96v-87
q0 -59 -42.5 -95.5zM227 574.5q-11 13.5 -27 13.5t-27.5 -13.5t-11.5 -29.5v-83q0 -17 11 -30t28 -13t27.5 13t10.5 30v83q0 16 -11 29.5zM761.5 352.5q33.5 -16.5 53 -47t19.5 -68.5v-88q0 -59 -42.5 -96t-102.5 -37t-102.5 37t-42.5 96v88q0 38 19.5 68.5t53 47t72.5 16.5
t72.5 -16.5zM1114.5 352.5q33.5 -16.5 53 -47t19.5 -68.5v-88q0 -59 -42.5 -96t-102.5 -37t-102.5 37t-42.5 96v88q0 38 19.5 68.5t53 47t72.5 16.5t72.5 -16.5zM717 264.5q-11 13.5 -28 13.5q-16 0 -27 -13.5t-11 -30.5v-82q0 -17 11 -30.5t27 -13.5q17 0 28 13.5t11 30.5
v82q0 17 -11 30.5zM1070 264.5q-11 13.5 -28 13.5q-16 0 -27 -13.5t-11 -30.5v-82q0 -17 11 -30.5t27 -13.5q17 0 28 13.5t11 30.5v82q0 17 -11 30.5z" />
    <glyph glyph-name="guilsinglleft" unicode="&#x2039;" horiz-adv-x="254" 
d="M190 490q6 0 10.5 -4.5t4.5 -12.5v-88q0 -18 -21 -35l-62 -51l62 -51q10 -8 15.5 -15.5t5.5 -18.5v-89q0 -7 -4.5 -11.5t-10.5 -4.5t-11 5l-137 119q-12 11 -12 27v78q0 17 12 27l137 120q5 5 11 5z" />
    <glyph glyph-name="guilsinglright" unicode="&#x203a;" horiz-adv-x="246" 
d="M202 365q12 -10 12 -27v-78q0 -16 -12 -27l-137 -119q-5 -5 -11 -5t-10.5 4.5t-4.5 11.5v89q0 11 5.5 18.5t15.5 15.5l62 51l-62 51q-21 17 -21 35v88q0 8 4.5 12.5t10.5 4.5t11 -5z" />
    <glyph glyph-name="Euro" unicode="&#x20ac;" horiz-adv-x="687" 
d="M638 220q7 -8 7 -26q0 -62 -38 -109.5t-98.5 -73.5t-123.5 -26q-64 0 -125.5 24.5t-102 75.5t-40.5 125v4h-53q-15 0 -22 6.5t-7 22.5v36q0 16 7 22.5t22 6.5h53v48h-53q-15 0 -22 6.5t-7 22.5v36q0 16 7 22.5t22 6.5h53q1 73 42 123t102 74.5t124 24.5q64 0 121 -21.5
t95 -64.5t44 -104q0 -18 -6.5 -23.5t-24.5 -5.5h-96q-10 0 -15 5t-8.5 13t-6.5 13q-16 25 -39.5 36.5t-63.5 11.5q-45 0 -74.5 -21.5t-34.5 -60.5h131q14 0 21.5 -6.5t7.5 -22.5v-36q0 -16 -7.5 -22.5t-21.5 -6.5h-133v-48h133q14 0 21.5 -6.5t7.5 -22.5v-36
q0 -16 -7.5 -22.5t-21.5 -6.5h-132q3 -42 33 -66t77 -24q43 0 71 17t34 51q3 19 7.5 27.5t19.5 8.5h98q16 0 23 -8z" />
    <glyph glyph-name="uni2126" unicode="&#x2126;" horiz-adv-x="645" 
d="M584.5 133q6.5 -7 6.5 -22v-82q0 -15 -6.5 -22t-22.5 -7h-174q-16 0 -23 7t-7 23v90q0 19 6 26.5t18 13.5q3 2 9 5.5t10 7.5q33 29 33 78v182q0 47 -31 74t-81 27t-80.5 -27t-30.5 -74v-182q0 -59 44 -87l13 -6.5t14.5 -13t5.5 -24.5v-90q0 -16 -7 -23t-23 -7h-174
q-16 0 -22.5 7t-6.5 22v82q0 15 6.5 22t22.5 7h57q-86 62 -86 171v136q0 74 40 125.5t101.5 76t125.5 24.5t126 -25t102.5 -76t40.5 -125v-136q0 -56 -23.5 -98.5t-64.5 -72.5h59q16 0 22.5 -7z" />
    <glyph glyph-name="uni2206" unicode="&#x2206;" 
d="M16 16q0 6 3 12l222 599q6 16 15.5 23.5t25.5 7.5h96q16 0 25 -7.5t16 -23.5l221 -599q3 -6 3 -12q0 -16 -20 -16h-587q-20 0 -20 16zM442 140l-112 330l-114 -330h226z" />
    <glyph glyph-name="minus" unicode="&#x2212;" horiz-adv-x="505" 
d="M449 337.5q7 -6.5 7 -22.5v-78q0 -16 -7 -22.5t-22 -6.5h-349q-15 0 -22 6.5t-7 22.5v78q0 16 7 22.5t22 6.5h349q15 0 22 -6.5z" />
    </font>
</defs>
</svg>
